solid OpenSCAD_Model
  facet normal -1 0 0
    outer loop
      vertex 13.7638 -10 0
      vertex 13.7638 10 17.0126
      vertex 13.7638 10 0
    endloop
  endfacet
  facet normal -1 -0 0
    outer loop
      vertex 13.7638 10 17.0126
      vertex 13.7638 -10 0
      vertex 13.7638 -10 17.0126
    endloop
  endfacet
  facet normal 0 0 -1
    outer loop
      vertex 13.7638 -10 0
      vertex 24.2792 -10 0
      vertex 17.0132 -20.0007 0
    endloop
  endfacet
  facet normal 0 0 -1
    outer loop
      vertex 24.2792 -10 0
      vertex 13.7638 -10 0
      vertex 24.2792 10 0
    endloop
  endfacet
  facet normal 0 0 -1
    outer loop
      vertex 13.7638 10 0
      vertex 24.2792 10 0
      vertex 13.7638 -10 0
    endloop
  endfacet
  facet normal -0 0 -1
    outer loop
      vertex 17.0132 -20.0007 0
      vertex -2.00788 -26.1811 0
      vertex 13.7638 -10 0
    endloop
  endfacet
  facet normal 0 0 -1
    outer loop
      vertex -2.00788 -26.1811 0
      vertex -5.25731 -16.1803 0
      vertex 13.7638 -10 0
    endloop
  endfacet
  facet normal 0 0 -1
    outer loop
      vertex -13.7644 -22.3611 0
      vertex -5.25731 -16.1803 0
      vertex -2.00788 -26.1811 0
    endloop
  endfacet
  facet normal 0 0 -1
    outer loop
      vertex -13.7644 -22.3611 0
      vertex -17.013 3.16752e-16 0
      vertex -5.25731 -16.1803 0
    endloop
  endfacet
  facet normal 0 0 -1
    outer loop
      vertex -25.5201 -6.18078 0
      vertex -17.013 3.16752e-16 0
      vertex -13.7644 -22.3611 0
    endloop
  endfacet
  facet normal 0 0 -1
    outer loop
      vertex 24.2792 10 0
      vertex 13.7638 10 0
      vertex 17.0132 20.0007 0
    endloop
  endfacet
  facet normal 0 0 -1
    outer loop
      vertex 13.7638 10 0
      vertex -2.00788 26.1811 0
      vertex 17.0132 20.0007 0
    endloop
  endfacet
  facet normal 0 0 -1
    outer loop
      vertex -5.25731 16.1803 0
      vertex -2.00788 26.1811 0
      vertex 13.7638 10 0
    endloop
  endfacet
  facet normal 0 0 -1
    outer loop
      vertex -5.25731 16.1803 0
      vertex -13.7644 22.3611 0
      vertex -2.00788 26.1811 0
    endloop
  endfacet
  facet normal 0 0 -1
    outer loop
      vertex -17.013 2.04901e-15 0
      vertex -13.7644 22.3611 0
      vertex -5.25731 16.1803 0
    endloop
  endfacet
  facet normal -0 0 -1
    outer loop
      vertex -17.013 3.16752e-16 0
      vertex -25.5201 -6.18078 0
      vertex -17.013 2.04901e-15 0
    endloop
  endfacet
  facet normal 0 0 -1
    outer loop
      vertex -25.5201 6.18078 0
      vertex -17.013 2.04901e-15 0
      vertex -25.5201 -6.18078 0
    endloop
  endfacet
  facet normal 0 0 -1
    outer loop
      vertex -17.013 2.04901e-15 0
      vertex -25.5201 6.18078 0
      vertex -13.7644 22.3611 0
    endloop
  endfacet
  facet normal 0.850628 -0 0.525769
    outer loop
      vertex 13.7638 -10 17.0126
      vertex 24.2792 10 0
      vertex 13.7638 10 17.0126
    endloop
  endfacet
  facet normal 0.850628 0 0.525769
    outer loop
      vertex 24.2792 10 0
      vertex 13.7638 -10 17.0126
      vertex 24.2792 -10 0
    endloop
  endfacet
  facet normal 0 -1 0
    outer loop
      vertex 24.2792 -10 0
      vertex 13.7638 -10 17.0126
      vertex 13.7638 -10 0
    endloop
  endfacet
  facet normal 0 1 0
    outer loop
      vertex 24.2792 -10 0
      vertex 13.7638 -10 0
      vertex 13.7638 -10 17.0126
    endloop
  endfacet
  facet normal 0.723593 0.525721 0.447249
    outer loop
      vertex 13.7638 10 17.0126
      vertex 24.2792 10 0
      vertex 17.0132 20.0007 0
    endloop
  endfacet
  facet normal -0.309017 -0.951057 0
    outer loop
      vertex -5.25731 16.1803 0
      vertex 13.7638 10 17.0126
      vertex -5.25731 16.1803 17.0126
    endloop
  endfacet
  facet normal -0.309017 -0.951057 -0
    outer loop
      vertex 13.7638 10 17.0126
      vertex -5.25731 16.1803 0
      vertex 13.7638 10 0
    endloop
  endfacet
  facet normal 0.262858 0.808995 0.525769
    outer loop
      vertex -2.00788 26.1811 0
      vertex 13.7638 10 17.0126
      vertex 17.0132 20.0007 0
    endloop
  endfacet
  facet normal 0.262858 0.808995 0.525769
    outer loop
      vertex 13.7638 10 17.0126
      vertex -2.00788 26.1811 0
      vertex -5.25731 16.1803 17.0126
    endloop
  endfacet
  facet normal -0.276388 0.850634 0.447249
    outer loop
      vertex -2.00788 26.1811 0
      vertex -13.7644 22.3611 0
      vertex -5.25731 16.1803 17.0126
    endloop
  endfacet
  facet normal 0.809017 -0.587785 0
    outer loop
      vertex -17.013 2.04901e-15 17.0126
      vertex -5.25731 16.1803 0
      vertex -5.25731 16.1803 17.0126
    endloop
  endfacet
  facet normal 0.809017 -0.587785 0
    outer loop
      vertex -5.25731 16.1803 0
      vertex -17.013 2.04901e-15 17.0126
      vertex -17.013 2.04901e-15 0
    endloop
  endfacet
  facet normal -0.688172 0.499986 0.525769
    outer loop
      vertex -25.5201 6.18078 0
      vertex -5.25731 16.1803 17.0126
      vertex -13.7644 22.3611 0
    endloop
  endfacet
  facet normal -0.688172 0.499986 0.525769
    outer loop
      vertex -5.25731 16.1803 17.0126
      vertex -25.5201 6.18078 0
      vertex -17.013 2.04901e-15 17.0126
    endloop
  endfacet
  facet normal -0.89441 0 0.447249
    outer loop
      vertex -17.013 3.16752e-16 17.0126
      vertex -17.013 2.04901e-15 17.0126
      vertex -25.5201 6.18078 0
    endloop
  endfacet
  facet normal -0.89441 0 0.447249
    outer loop
      vertex -17.013 3.16752e-16 17.0126
      vertex -25.5201 6.18078 0
      vertex -25.5201 -6.18078 0
    endloop
  endfacet
  facet normal 0.89441 0 -0.447249
    outer loop
      vertex -17.013 3.16752e-16 17.0126
      vertex -25.5201 -6.18078 0
      vertex -17.013 3.91997e-15 17.0126
    endloop
  endfacet
  facet normal 1 -0 0
    outer loop
      vertex -17.013 3.16752e-16 17.0126
      vertex -17.013 2.04901e-15 0
      vertex -17.013 2.04901e-15 17.0126
    endloop
  endfacet
  facet normal 1 0 0
    outer loop
      vertex -17.013 2.04901e-15 0
      vertex -17.013 3.16752e-16 17.0126
      vertex -17.013 3.16752e-16 0
    endloop
  endfacet
  facet normal 0.809017 0.587785 0
    outer loop
      vertex -5.25731 -16.1803 17.0126
      vertex -17.013 3.16752e-16 0
      vertex -17.013 3.16752e-16 17.0126
    endloop
  endfacet
  facet normal 0.809017 0.587785 0
    outer loop
      vertex -17.013 3.16752e-16 0
      vertex -5.25731 -16.1803 17.0126
      vertex -5.25731 -16.1803 0
    endloop
  endfacet
  facet normal 0 0 -1
    outer loop
      vertex -5.25731 -16.1803 17.0126
      vertex -17.013 3.16752e-16 17.0126
      vertex -17.013 3.91997e-15 17.0126
    endloop
  endfacet
  facet normal -0.688172 -0.499986 0.525769
    outer loop
      vertex -25.5201 -6.18078 0
      vertex -5.25731 -16.1803 17.0126
      vertex -17.013 3.91997e-15 17.0126
    endloop
  endfacet
  facet normal -0.688172 -0.499986 0.525769
    outer loop
      vertex -5.25731 -16.1803 17.0126
      vertex -25.5201 -6.18078 0
      vertex -13.7644 -22.3611 0
    endloop
  endfacet
  facet normal -0.276388 -0.850634 0.447249
    outer loop
      vertex -2.00788 -26.1811 0
      vertex -5.25731 -16.1803 17.0126
      vertex -13.7644 -22.3611 0
    endloop
  endfacet
  facet normal -0.309017 0.951057 0
    outer loop
      vertex 13.7638 -10 0
      vertex -5.25731 -16.1803 17.0126
      vertex 13.7638 -10 17.0126
    endloop
  endfacet
  facet normal -0.309017 0.951057 0
    outer loop
      vertex -5.25731 -16.1803 17.0126
      vertex 13.7638 -10 0
      vertex -5.25731 -16.1803 0
    endloop
  endfacet
  facet normal 0.262858 -0.808995 0.525769
    outer loop
      vertex -2.00788 -26.1811 0
      vertex 13.7638 -10 17.0126
      vertex -5.25731 -16.1803 17.0126
    endloop
  endfacet
  facet normal 0.262858 -0.808995 0.525769
    outer loop
      vertex 13.7638 -10 17.0126
      vertex -2.00788 -26.1811 0
      vertex 17.0132 -20.0007 0
    endloop
  endfacet
  facet normal 0.723593 -0.525721 0.447249
    outer loop
      vertex 13.7638 -10 17.0126
      vertex 17.0132 -20.0007 0
      vertex 24.2792 -10 0
    endloop
  endfacet
endsolid OpenSCAD_Model
