solid OpenSCAD_Model
  facet normal -0 0 -1
    outer loop
      vertex -0.214255 -31.7013 0
      vertex -2.11637 -32.3193 0
      vertex -0.832289 -29.7992 0
    endloop
  endfacet
  facet normal 0 0 -1
    outer loop
      vertex 30.0835 -12 0
      vertex 28.0835 -10 0
      vertex 30.0835 -10 0
    endloop
  endfacet
  facet normal 0 0 -1
    outer loop
      vertex 18.1888 -23.6188 0
      vertex 28.0835 -10 0
      vertex 20.709 -24.9029 0
    endloop
  endfacet
  facet normal 0 0 -1
    outer loop
      vertex 20.709 -24.9029 0
      vertex 28.0835 -10 0
      vertex 30.0835 -12 0
    endloop
  endfacet
  facet normal 0 0 -1
    outer loop
      vertex 28.0835 10 0
      vertex 30.0835 12 0
      vertex 30.0835 10 0
    endloop
  endfacet
  facet normal 0 0 -1
    outer loop
      vertex 28.0835 10 0
      vertex 20.709 24.9029 0
      vertex 30.0835 12 0
    endloop
  endfacet
  facet normal 0 0 -1
    outer loop
      vertex 28.0835 -10 0
      vertex 16.5166 -10 0
      vertex 28.0835 10 0
    endloop
  endfacet
  facet normal 0 0 -1
    outer loop
      vertex 18.1888 -23.6188 0
      vertex 20.709 -24.9029 0
      vertex 18.8069 -25.5209 0
    endloop
  endfacet
  facet normal 0 0 -1
    outer loop
      vertex 16.5166 10 0
      vertex 28.0835 10 0
      vertex 16.5166 -10 0
    endloop
  endfacet
  facet normal -0 0 -1
    outer loop
      vertex 28.0835 -10 0
      vertex 18.1888 -23.6188 0
      vertex 16.5166 -10 0
    endloop
  endfacet
  facet normal 0 -0 -1
    outer loop
      vertex 18.1888 23.6188 0
      vertex 28.0835 10 0
      vertex 16.5166 10 0
    endloop
  endfacet
  facet normal 0 0 -1
    outer loop
      vertex 28.0835 10 0
      vertex 18.1888 23.6188 0
      vertex 20.709 24.9029 0
    endloop
  endfacet
  facet normal 0 0 -1
    outer loop
      vertex 18.1888 -23.6188 0
      vertex 14.6145 -12.618 0
      vertex 16.5166 -10 0
    endloop
  endfacet
  facet normal 0 0 -1
    outer loop
      vertex -0.832289 -29.7992 0
      vertex 14.6145 -12.618 0
      vertex 18.1888 -23.6188 0
    endloop
  endfacet
  facet normal 0 0 -1
    outer loop
      vertex -0.832289 -29.7992 0
      vertex -4.40666 -18.7984 0
      vertex 14.6145 -12.618 0
    endloop
  endfacet
  facet normal 0 0 -1
    outer loop
      vertex -16.8422 -24.5972 0
      vertex -0.832289 -29.7992 0
      vertex -2.11637 -32.3193 0
    endloop
  endfacet
  facet normal 0 0 -1
    outer loop
      vertex -0.832289 -29.7992 0
      vertex -16.8422 -24.5972 0
      vertex -4.40666 -18.7984 0
    endloop
  endfacet
  facet normal 0 0 -1
    outer loop
      vertex -4.40666 -18.7984 0
      vertex -5.54484 -17.0653 0
      vertex -5.02469 -16.8963 0
    endloop
  endfacet
  facet normal 0 0 -1
    outer loop
      vertex -4.40666 -18.7984 0
      vertex -7.48434 -17.7984 0
      vertex -5.54484 -17.0653 0
    endloop
  endfacet
  facet normal -0 0 -1
    outer loop
      vertex -5.54484 -17.0653 0
      vertex -7.48434 -17.7984 0
      vertex -5.86631 -16.6228 0
    endloop
  endfacet
  facet normal -0 0 -1
    outer loop
      vertex -4.40666 -18.7984 0
      vertex -16.8422 -24.5972 0
      vertex -7.48434 -17.7984 0
    endloop
  endfacet
  facet normal 0 0 -1
    outer loop
      vertex -17.2846 -27.3908 0
      vertex -16.8422 -24.5972 0
      vertex -2.11637 -32.3193 0
    endloop
  endfacet
  facet normal 0 0 -1
    outer loop
      vertex -16.8422 -24.5972 0
      vertex -17.2846 -27.3908 0
      vertex -18.4602 -25.7728 0
    endloop
  endfacet
  facet normal 0 0 -1
    outer loop
      vertex 14.6145 -12.618 0
      vertex 13.9964 -10.7159 0
      vertex 14.5166 -10.5469 0
    endloop
  endfacet
  facet normal 0 0 -1
    outer loop
      vertex 14.5166 10.5469 0
      vertex 16.5166 10 0
      vertex 14.5166 10 0
    endloop
  endfacet
  facet normal 0 0 -1
    outer loop
      vertex 16.5166 10 0
      vertex 14.5166 10.5469 0
      vertex 14.6145 12.618 0
    endloop
  endfacet
  facet normal 0 0 -1
    outer loop
      vertex 14.6145 12.618 0
      vertex 14.5166 10.5469 0
      vertex 13.9964 10.7159 0
    endloop
  endfacet
  facet normal -0 0 -1
    outer loop
      vertex 20.709 24.9029 0
      vertex 18.1888 23.6188 0
      vertex 18.8069 25.5209 0
    endloop
  endfacet
  facet normal 0 0 -1
    outer loop
      vertex 14.6145 12.618 0
      vertex 18.1888 23.6188 0
      vertex 16.5166 10 0
    endloop
  endfacet
  facet normal 0 0 -1
    outer loop
      vertex 14.6145 12.618 0
      vertex -0.832289 29.7992 0
      vertex 18.1888 23.6188 0
    endloop
  endfacet
  facet normal 0 0 -1
    outer loop
      vertex -4.40666 18.7984 0
      vertex -0.832289 29.7992 0
      vertex 14.6145 12.618 0
    endloop
  endfacet
  facet normal 0 0 -1
    outer loop
      vertex -16.8422 24.5972 0
      vertex -0.832289 29.7992 0
      vertex -4.40666 18.7984 0
    endloop
  endfacet
  facet normal 0 0 -1
    outer loop
      vertex -5.54484 17.0653 0
      vertex -4.40666 18.7984 0
      vertex -5.02469 16.8963 0
    endloop
  endfacet
  facet normal 0 0 -1
    outer loop
      vertex -7.48434 17.7984 0
      vertex -4.40666 18.7984 0
      vertex -5.54484 17.0653 0
    endloop
  endfacet
  facet normal 0 0 -1
    outer loop
      vertex -7.48434 17.7984 0
      vertex -5.54484 17.0653 0
      vertex -5.86631 16.6228 0
    endloop
  endfacet
  facet normal 0 0 -1
    outer loop
      vertex -16.8422 24.5972 0
      vertex -4.40666 18.7984 0
      vertex -7.48434 17.7984 0
    endloop
  endfacet
  facet normal -0 0 -1
    outer loop
      vertex -0.832289 29.7992 0
      vertex -16.8422 24.5972 0
      vertex -2.11637 32.3193 0
    endloop
  endfacet
  facet normal 0 0 -1
    outer loop
      vertex -16.8422 24.5972 0
      vertex -17.2846 27.3908 0
      vertex -2.11637 32.3193 0
    endloop
  endfacet
  facet normal 0 0 -1
    outer loop
      vertex -18.4602 25.7728 0
      vertex -17.2846 27.3908 0
      vertex -16.8422 24.5972 0
    endloop
  endfacet
  facet normal 0 0 -1
    outer loop
      vertex 14.5166 -10.5469 0
      vertex 16.5166 -10 0
      vertex 14.6145 -12.618 0
    endloop
  endfacet
  facet normal -0 0 -1
    outer loop
      vertex 16.5166 -10 0
      vertex 14.5166 -10.5469 0
      vertex 14.5166 -10 0
    endloop
  endfacet
  facet normal 0 0 -1
    outer loop
      vertex -19.24 1.61803 0
      vertex -16.8422 24.5972 0
      vertex -7.48434 17.7984 0
    endloop
  endfacet
  facet normal 0 0 -1
    outer loop
      vertex -28.5979 8.41689 0
      vertex -19.24 1.61803 0
      vertex -28.5979 -8.41689 0
    endloop
  endfacet
  facet normal 0 0 -1
    outer loop
      vertex -19.24 1.61803 0
      vertex -28.5979 8.41689 0
      vertex -16.8422 24.5972 0
    endloop
  endfacet
  facet normal 0 0 -1
    outer loop
      vertex -31.3915 -7.97443 0
      vertex -28.5979 -8.41689 0
      vertex -30.2159 -9.59246 0
    endloop
  endfacet
  facet normal 0 0 -1
    outer loop
      vertex -28.5979 -8.41689 0
      vertex -31.3915 -7.97443 0
      vertex -28.5979 8.41689 0
    endloop
  endfacet
  facet normal 0 0 -1
    outer loop
      vertex -31.3915 7.97443 0
      vertex -28.5979 8.41689 0
      vertex -31.3915 -7.97443 0
    endloop
  endfacet
  facet normal -0 0 -1
    outer loop
      vertex -28.5979 8.41689 0
      vertex -31.3915 7.97443 0
      vertex -30.2159 9.59246 0
    endloop
  endfacet
  facet normal -0 0 -1
    outer loop
      vertex -0.214255 31.7013 0
      vertex -0.832289 29.7992 0
      vertex -2.11637 32.3193 0
    endloop
  endfacet
  facet normal 0 0 -1
    outer loop
      vertex -16.8422 -24.5972 0
      vertex -19.24 -1.61803 0
      vertex -7.48434 -17.7984 0
    endloop
  endfacet
  facet normal -0 0 -1
    outer loop
      vertex -19.24 -1.61803 0
      vertex -28.5979 -8.41689 0
      vertex -19.24 1.61803 0
    endloop
  endfacet
  facet normal 0 0 -1
    outer loop
      vertex -28.5979 -8.41689 0
      vertex -19.24 -1.61803 0
      vertex -16.8422 -24.5972 0
    endloop
  endfacet
  facet normal -0 0 -1
    outer loop
      vertex -17.622 -0.442463 0
      vertex -19.24 -1.61803 0
      vertex -17.9435 -4.82982e-16 0
    endloop
  endfacet
  facet normal 0 0 -1
    outer loop
      vertex -19.24 1.61803 0
      vertex -17.9435 -4.82982e-16 0
      vertex -19.24 -1.61803 0
    endloop
  endfacet
  facet normal 0 0 -1
    outer loop
      vertex -17.9435 -4.82982e-16 0
      vertex -19.24 1.61803 0
      vertex -17.622 0.442463 0
    endloop
  endfacet
  facet normal -1 0 0
    outer loop
      vertex 16.5166 -10 0
      vertex 16.5166 10 18.7138
      vertex 16.5166 10 0
    endloop
  endfacet
  facet normal -1 -0 0
    outer loop
      vertex 16.5166 10 18.7138
      vertex 16.5166 -10 0
      vertex 16.5166 -10 18.7138
    endloop
  endfacet
  facet normal 0.850628 -0 0.525768
    outer loop
      vertex 16.5166 -10 18.7138
      vertex 28.0835 10 0
      vertex 16.5166 10 18.7138
    endloop
  endfacet
  facet normal 0.850628 0 0.525768
    outer loop
      vertex 28.0835 10 0
      vertex 16.5166 -10 18.7138
      vertex 28.0835 -10 0
    endloop
  endfacet
  facet normal -1 0 0
    outer loop
      vertex 14.5166 -10.5469 0
      vertex 14.5166 -10 20.7138
      vertex 14.5166 -10 0
    endloop
  endfacet
  facet normal -1 -0 0
    outer loop
      vertex 14.5166 -10 20.7138
      vertex 14.5166 -10.5469 0
      vertex 14.5166 -10.5469 20.7138
    endloop
  endfacet
  facet normal 0 1 0
    outer loop
      vertex 17.2804 -10 20.7138
      vertex 16.5166 -10 18.7138
      vertex 14.5166 -10 20.7138
    endloop
  endfacet
  facet normal 0 1 0
    outer loop
      vertex 30.0835 -10 0
      vertex 16.5166 -10 18.7138
      vertex 17.2804 -10 20.7138
    endloop
  endfacet
  facet normal 0 1 0
    outer loop
      vertex 16.5166 -10 18.7138
      vertex 30.0835 -10 0
      vertex 28.0835 -10 0
    endloop
  endfacet
  facet normal 0 1 0
    outer loop
      vertex 14.5166 -10 0
      vertex 16.5166 -10 18.7138
      vertex 16.5166 -10 0
    endloop
  endfacet
  facet normal 0 1 0
    outer loop
      vertex 16.5166 -10 18.7138
      vertex 14.5166 -10 0
      vertex 14.5166 -10 20.7138
    endloop
  endfacet
  facet normal 0.850628 -0 0.525769
    outer loop
      vertex 17.2804 -12 20.7138
      vertex 30.0835 -10 0
      vertex 17.2804 -10 20.7138
    endloop
  endfacet
  facet normal 0.850628 0 0.525769
    outer loop
      vertex 30.0835 -10 0
      vertex 17.2804 -12 20.7138
      vertex 30.0835 -12 0
    endloop
  endfacet
  facet normal -1 0 0
    outer loop
      vertex 14.5166 10 0
      vertex 14.5166 10.5469 20.7138
      vertex 14.5166 10.5469 0
    endloop
  endfacet
  facet normal -1 -0 0
    outer loop
      vertex 14.5166 10.5469 20.7138
      vertex 14.5166 10 0
      vertex 14.5166 10 20.7138
    endloop
  endfacet
  facet normal 0 -1 0
    outer loop
      vertex 14.5166 10 20.7138
      vertex 16.5166 10 18.7138
      vertex 17.2804 10 20.7138
    endloop
  endfacet
  facet normal 0 -1 0
    outer loop
      vertex 14.5166 10 0
      vertex 16.5166 10 18.7138
      vertex 14.5166 10 20.7138
    endloop
  endfacet
  facet normal 0 -1 -0
    outer loop
      vertex 16.5166 10 18.7138
      vertex 14.5166 10 0
      vertex 16.5166 10 0
    endloop
  endfacet
  facet normal 0 -1 0
    outer loop
      vertex 30.0835 10 0
      vertex 16.5166 10 18.7138
      vertex 28.0835 10 0
    endloop
  endfacet
  facet normal 0 -1 0
    outer loop
      vertex 16.5166 10 18.7138
      vertex 30.0835 10 0
      vertex 17.2804 10 20.7138
    endloop
  endfacet
  facet normal 0.850628 -0 0.525769
    outer loop
      vertex 17.2804 10 20.7138
      vertex 30.0835 12 0
      vertex 17.2804 12 20.7138
    endloop
  endfacet
  facet normal 0.850628 0 0.525769
    outer loop
      vertex 30.0835 12 0
      vertex 17.2804 10 20.7138
      vertex 30.0835 10 0
    endloop
  endfacet
  facet normal 0.723577 0.525749 0.44724
    outer loop
      vertex 30.0835 12 0
      vertex 16.7526 12.7264 20.7138
      vertex 17.2804 12 20.7138
    endloop
  endfacet
  facet normal 0.723592 0.52572 0.44725
    outer loop
      vertex 16.7526 12.7264 20.7138
      vertex 30.0835 12 0
      vertex 20.709 24.9029 0
    endloop
  endfacet
  facet normal -0.309019 -0.951056 0
    outer loop
      vertex -4.40666 18.7984 0
      vertex 14.6145 12.618 18.7138
      vertex -4.40666 18.7984 18.7138
    endloop
  endfacet
  facet normal -0.309019 -0.951056 -0
    outer loop
      vertex 14.6145 12.618 18.7138
      vertex -4.40666 18.7984 0
      vertex 14.6145 12.618 0
    endloop
  endfacet
  facet normal 0.262861 0.808994 0.525769
    outer loop
      vertex -0.832289 29.7992 0
      vertex 14.6145 12.618 18.7138
      vertex 18.1888 23.6188 0
    endloop
  endfacet
  facet normal 0.26286 0.808994 0.525769
    outer loop
      vertex 14.6145 12.618 18.7138
      vertex -0.832289 29.7992 0
      vertex -4.40666 18.7984 18.7138
    endloop
  endfacet
  facet normal -0.308979 -0.951069 0
    outer loop
      vertex 13.9964 10.7159 0
      vertex 14.5166 10.5469 20.7138
      vertex 13.9964 10.7159 20.7138
    endloop
  endfacet
  facet normal -0.308979 -0.951069 -0
    outer loop
      vertex 14.5166 10.5469 20.7138
      vertex 13.9964 10.7159 0
      vertex 14.5166 10.5469 0
    endloop
  endfacet
  facet normal -0.951046 0.309049 0
    outer loop
      vertex 14.6145 12.618 0
      vertex 13.9964 10.7159 0
      vertex 14.6145 12.618 18.7138
    endloop
  endfacet
  facet normal -0.951046 0.309049 2.45393e-05
    outer loop
      vertex 14.6145 12.618 18.7138
      vertex 18.8069 25.5209 0
      vertex 18.1888 23.6188 0
    endloop
  endfacet
  facet normal -0.951064 0.308995 -1.67565e-05
    outer loop
      vertex 18.8069 25.5209 0
      vertex 14.6145 12.618 18.7138
      vertex 14.8505 13.3445 20.7138
    endloop
  endfacet
  facet normal -0.951055 0.309022 -2.78684e-05
    outer loop
      vertex 14.6145 12.618 18.7138
      vertex 13.9964 10.7159 20.7138
      vertex 14.8505 13.3445 20.7138
    endloop
  endfacet
  facet normal -0.951046 0.309049 0
    outer loop
      vertex 13.9964 10.7159 20.7138
      vertex 14.6145 12.618 18.7138
      vertex 13.9964 10.7159 0
    endloop
  endfacet
  facet normal 0.262847 0.808998 0.52577
    outer loop
      vertex 18.8069 25.5209 0
      vertex 16.7526 12.7264 20.7138
      vertex 20.709 24.9029 0
    endloop
  endfacet
  facet normal 0.262886 0.808987 0.525767
    outer loop
      vertex 16.7526 12.7264 20.7138
      vertex 18.8069 25.5209 0
      vertex 14.8505 13.3445 20.7138
    endloop
  endfacet
  facet normal -0.309005 -0.95106 0
    outer loop
      vertex -5.54484 17.0653 0
      vertex -5.02469 16.8963 20.7138
      vertex -5.54484 17.0653 20.7138
    endloop
  endfacet
  facet normal -0.309005 -0.95106 -0
    outer loop
      vertex -5.02469 16.8963 20.7138
      vertex -5.54484 17.0653 0
      vertex -5.02469 16.8963 0
    endloop
  endfacet
  facet normal 0.951055 -0.30902 -2.61894e-06
    outer loop
      vertex -4.40666 18.7984 18.7138
      vertex -0.214255 31.7013 0
      vertex -4.17063 19.5248 20.7138
    endloop
  endfacet
  facet normal 0.951056 -0.309019 -1.53225e-06
    outer loop
      vertex -0.214255 31.7013 0
      vertex -4.40666 18.7984 18.7138
      vertex -0.832289 29.7992 0
    endloop
  endfacet
  facet normal 0.951056 -0.30902 -2.83508e-06
    outer loop
      vertex -5.02469 16.8963 20.7138
      vertex -4.40666 18.7984 18.7138
      vertex -4.17063 19.5248 20.7138
    endloop
  endfacet
  facet normal 0.951056 -0.309017 0
    outer loop
      vertex -5.02469 16.8963 0
      vertex -4.40666 18.7984 18.7138
      vertex -5.02469 16.8963 20.7138
    endloop
  endfacet
  facet normal 0.951056 -0.309017 0
    outer loop
      vertex -4.40666 18.7984 18.7138
      vertex -5.02469 16.8963 0
      vertex -4.40666 18.7984 0
    endloop
  endfacet
  facet normal 0.262845 0.808999 0.52577
    outer loop
      vertex -2.11637 32.3193 0
      vertex -4.17063 19.5248 20.7138
      vertex -0.214255 31.7013 0
    endloop
  endfacet
  facet normal 0.262846 0.808999 0.52577
    outer loop
      vertex -4.17063 19.5248 20.7138
      vertex -2.11637 32.3193 0
      vertex -6.07274 20.1428 20.7138
    endloop
  endfacet
  facet normal -0.27632 0.850645 0.44727
    outer loop
      vertex -2.11637 32.3193 0
      vertex -6.92671 19.8654 20.7138
      vertex -6.07274 20.1428 20.7138
    endloop
  endfacet
  facet normal -0.27639 0.850634 0.447247
    outer loop
      vertex -6.92671 19.8654 20.7138
      vertex -2.11637 32.3193 0
      vertex -17.2846 27.3908 0
    endloop
  endfacet
  facet normal 0.809019 -0.587783 0
    outer loop
      vertex -19.24 1.61803 18.7138
      vertex -7.48434 17.7984 0
      vertex -7.48434 17.7984 18.7138
    endloop
  endfacet
  facet normal 0.809019 -0.587783 0
    outer loop
      vertex -7.48434 17.7984 0
      vertex -19.24 1.61803 18.7138
      vertex -19.24 1.61803 0
    endloop
  endfacet
  facet normal -0.688172 0.499987 0.525769
    outer loop
      vertex -28.5979 8.41689 0
      vertex -7.48434 17.7984 18.7138
      vertex -16.8422 24.5972 0
    endloop
  endfacet
  facet normal -0.688172 0.499984 0.525771
    outer loop
      vertex -7.48434 17.7984 18.7138
      vertex -28.5979 8.41689 0
      vertex -19.24 1.61803 18.7138
    endloop
  endfacet
  facet normal 0.809039 -0.587755 0
    outer loop
      vertex -5.86631 16.6228 20.7138
      vertex -5.54484 17.0653 0
      vertex -5.54484 17.0653 20.7138
    endloop
  endfacet
  facet normal 0.809039 -0.587755 0
    outer loop
      vertex -5.54484 17.0653 0
      vertex -5.86631 16.6228 20.7138
      vertex -5.86631 16.6228 0
    endloop
  endfacet
  facet normal -0.587779 -0.809022 -2.10936e-05
    outer loop
      vertex -8.10228 18.2473 20.7138
      vertex -7.48434 17.7984 18.7138
      vertex -5.86631 16.6228 20.7138
    endloop
  endfacet
  facet normal -0.587767 -0.80903 -1.53808e-05
    outer loop
      vertex -18.4602 25.7728 0
      vertex -7.48434 17.7984 18.7138
      vertex -8.10228 18.2473 20.7138
    endloop
  endfacet
  facet normal -0.587803 -0.809004 1.71483e-05
    outer loop
      vertex -7.48434 17.7984 18.7138
      vertex -18.4602 25.7728 0
      vertex -16.8422 24.5972 0
    endloop
  endfacet
  facet normal -0.587796 -0.809009 0
    outer loop
      vertex -5.86631 16.6228 0
      vertex -7.48434 17.7984 18.7138
      vertex -7.48434 17.7984 0
    endloop
  endfacet
  facet normal -0.587796 -0.809009 0
    outer loop
      vertex -7.48434 17.7984 18.7138
      vertex -5.86631 16.6228 0
      vertex -5.86631 16.6228 20.7138
    endloop
  endfacet
  facet normal -0.688162 0.500002 0.525767
    outer loop
      vertex -18.4602 25.7728 0
      vertex -6.92671 19.8654 20.7138
      vertex -17.2846 27.3908 0
    endloop
  endfacet
  facet normal -0.688182 0.499973 0.525769
    outer loop
      vertex -6.92671 19.8654 20.7138
      vertex -18.4602 25.7728 0
      vertex -8.10228 18.2473 20.7138
    endloop
  endfacet
  facet normal 0.808989 -0.587823 0
    outer loop
      vertex -17.9435 -4.82982e-16 20.7138
      vertex -17.622 0.442463 0
      vertex -17.622 0.442463 20.7138
    endloop
  endfacet
  facet normal 0.808989 -0.587823 0
    outer loop
      vertex -17.622 0.442463 0
      vertex -17.9435 -4.82982e-16 20.7138
      vertex -17.9435 -4.82982e-16 0
    endloop
  endfacet
  facet normal 0.58778 0.809021 1.50382e-05
    outer loop
      vertex -17.622 0.442463 20.7138
      vertex -19.24 1.61803 18.7138
      vertex -19.858 2.06699 20.7138
    endloop
  endfacet
  facet normal 0.587792 0.809012 -0
    outer loop
      vertex -17.622 0.442463 0
      vertex -19.24 1.61803 18.7138
      vertex -17.622 0.442463 20.7138
    endloop
  endfacet
  facet normal 0.587792 0.809012 0
    outer loop
      vertex -19.24 1.61803 18.7138
      vertex -17.622 0.442463 0
      vertex -19.24 1.61803 0
    endloop
  endfacet
  facet normal 0.587793 0.809011 -8.31011e-06
    outer loop
      vertex -30.2159 9.59246 0
      vertex -19.24 1.61803 18.7138
      vertex -28.5979 8.41689 0
    endloop
  endfacet
  facet normal 0.587772 0.809027 1.10473e-05
    outer loop
      vertex -19.24 1.61803 18.7138
      vertex -30.2159 9.59246 0
      vertex -19.858 2.06699 20.7138
    endloop
  endfacet
  facet normal -0.688166 0.499996 0.525768
    outer loop
      vertex -31.3915 7.97443 0
      vertex -19.858 2.06699 20.7138
      vertex -30.2159 9.59246 0
    endloop
  endfacet
  facet normal -0.688166 0.499995 0.525768
    outer loop
      vertex -19.858 2.06699 20.7138
      vertex -31.3915 7.97443 0
      vertex -21.0336 0.448956 20.7138
    endloop
  endfacet
  facet normal -0.89441 0 0.447248
    outer loop
      vertex -31.3915 7.97443 0
      vertex -21.0336 -0.448956 20.7138
      vertex -21.0336 0.448956 20.7138
    endloop
  endfacet
  facet normal -0.89441 0 0.447248
    outer loop
      vertex -21.0336 -0.448956 20.7138
      vertex -31.3915 7.97443 0
      vertex -31.3915 -7.97443 0
    endloop
  endfacet
  facet normal 0.809019 0.587783 0
    outer loop
      vertex -7.48434 -17.7984 18.7138
      vertex -19.24 -1.61803 0
      vertex -19.24 -1.61803 18.7138
    endloop
  endfacet
  facet normal 0.809019 0.587783 0
    outer loop
      vertex -19.24 -1.61803 0
      vertex -7.48434 -17.7984 18.7138
      vertex -7.48434 -17.7984 0
    endloop
  endfacet
  facet normal -0.688172 -0.499984 0.525771
    outer loop
      vertex -28.5979 -8.41689 0
      vertex -7.48434 -17.7984 18.7138
      vertex -19.24 -1.61803 18.7138
    endloop
  endfacet
  facet normal -0.688172 -0.499987 0.525769
    outer loop
      vertex -7.48434 -17.7984 18.7138
      vertex -28.5979 -8.41689 0
      vertex -16.8422 -24.5972 0
    endloop
  endfacet
  facet normal 0.808989 0.587823 0
    outer loop
      vertex -17.622 -0.442463 20.7138
      vertex -17.9435 -4.82982e-16 0
      vertex -17.9435 -4.82982e-16 20.7138
    endloop
  endfacet
  facet normal 0.808989 0.587823 0
    outer loop
      vertex -17.9435 -4.82982e-16 0
      vertex -17.622 -0.442463 20.7138
      vertex -17.622 -0.442463 0
    endloop
  endfacet
  facet normal 0.58778 -0.809021 1.50382e-05
    outer loop
      vertex -19.858 -2.06699 20.7138
      vertex -19.24 -1.61803 18.7138
      vertex -17.622 -0.442463 20.7138
    endloop
  endfacet
  facet normal 0.587772 -0.809027 1.10473e-05
    outer loop
      vertex -30.2159 -9.59246 0
      vertex -19.24 -1.61803 18.7138
      vertex -19.858 -2.06699 20.7138
    endloop
  endfacet
  facet normal 0.587793 -0.809011 -8.31011e-06
    outer loop
      vertex -19.24 -1.61803 18.7138
      vertex -30.2159 -9.59246 0
      vertex -28.5979 -8.41689 0
    endloop
  endfacet
  facet normal 0.587792 -0.809012 0
    outer loop
      vertex -17.622 -0.442463 0
      vertex -19.24 -1.61803 18.7138
      vertex -19.24 -1.61803 0
    endloop
  endfacet
  facet normal 0.587792 -0.809012 0
    outer loop
      vertex -19.24 -1.61803 18.7138
      vertex -17.622 -0.442463 0
      vertex -17.622 -0.442463 20.7138
    endloop
  endfacet
  facet normal -0.688166 -0.499995 0.525768
    outer loop
      vertex -31.3915 -7.97443 0
      vertex -19.858 -2.06699 20.7138
      vertex -21.0336 -0.448956 20.7138
    endloop
  endfacet
  facet normal -0.688166 -0.499996 0.525768
    outer loop
      vertex -19.858 -2.06699 20.7138
      vertex -31.3915 -7.97443 0
      vertex -30.2159 -9.59246 0
    endloop
  endfacet
  facet normal 0.809039 0.587755 0
    outer loop
      vertex -5.54484 -17.0653 20.7138
      vertex -5.86631 -16.6228 0
      vertex -5.86631 -16.6228 20.7138
    endloop
  endfacet
  facet normal 0.809039 0.587755 0
    outer loop
      vertex -5.86631 -16.6228 0
      vertex -5.54484 -17.0653 20.7138
      vertex -5.54484 -17.0653 0
    endloop
  endfacet
  facet normal -0.587779 0.809022 -2.10936e-05
    outer loop
      vertex -5.86631 -16.6228 20.7138
      vertex -7.48434 -17.7984 18.7138
      vertex -8.10228 -18.2473 20.7138
    endloop
  endfacet
  facet normal -0.587796 0.809009 0
    outer loop
      vertex -5.86631 -16.6228 0
      vertex -7.48434 -17.7984 18.7138
      vertex -5.86631 -16.6228 20.7138
    endloop
  endfacet
  facet normal -0.587796 0.809009 0
    outer loop
      vertex -7.48434 -17.7984 18.7138
      vertex -5.86631 -16.6228 0
      vertex -7.48434 -17.7984 0
    endloop
  endfacet
  facet normal -0.587803 0.809004 1.71483e-05
    outer loop
      vertex -18.4602 -25.7728 0
      vertex -7.48434 -17.7984 18.7138
      vertex -16.8422 -24.5972 0
    endloop
  endfacet
  facet normal -0.587767 0.80903 -1.53808e-05
    outer loop
      vertex -7.48434 -17.7984 18.7138
      vertex -18.4602 -25.7728 0
      vertex -8.10228 -18.2473 20.7138
    endloop
  endfacet
  facet normal -0.688182 -0.499973 0.525769
    outer loop
      vertex -18.4602 -25.7728 0
      vertex -6.92671 -19.8654 20.7138
      vertex -8.10228 -18.2473 20.7138
    endloop
  endfacet
  facet normal -0.688162 -0.500002 0.525767
    outer loop
      vertex -6.92671 -19.8654 20.7138
      vertex -18.4602 -25.7728 0
      vertex -17.2846 -27.3908 0
    endloop
  endfacet
  facet normal -0.27639 -0.850634 0.447247
    outer loop
      vertex -2.11637 -32.3193 0
      vertex -6.92671 -19.8654 20.7138
      vertex -17.2846 -27.3908 0
    endloop
  endfacet
  facet normal -0.27632 -0.850645 0.44727
    outer loop
      vertex -6.92671 -19.8654 20.7138
      vertex -2.11637 -32.3193 0
      vertex -6.07274 -20.1428 20.7138
    endloop
  endfacet
  facet normal -0.309019 0.951056 0
    outer loop
      vertex 14.6145 -12.618 0
      vertex -4.40666 -18.7984 18.7138
      vertex 14.6145 -12.618 18.7138
    endloop
  endfacet
  facet normal -0.309019 0.951056 0
    outer loop
      vertex -4.40666 -18.7984 18.7138
      vertex 14.6145 -12.618 0
      vertex -4.40666 -18.7984 0
    endloop
  endfacet
  facet normal 0.26286 -0.808994 0.525769
    outer loop
      vertex -0.832289 -29.7992 0
      vertex 14.6145 -12.618 18.7138
      vertex -4.40666 -18.7984 18.7138
    endloop
  endfacet
  facet normal 0.262861 -0.808994 0.525769
    outer loop
      vertex 14.6145 -12.618 18.7138
      vertex -0.832289 -29.7992 0
      vertex 18.1888 -23.6188 0
    endloop
  endfacet
  facet normal -0.309005 0.95106 0
    outer loop
      vertex -5.02469 -16.8963 0
      vertex -5.54484 -17.0653 20.7138
      vertex -5.02469 -16.8963 20.7138
    endloop
  endfacet
  facet normal -0.309005 0.95106 0
    outer loop
      vertex -5.54484 -17.0653 20.7138
      vertex -5.02469 -16.8963 0
      vertex -5.54484 -17.0653 0
    endloop
  endfacet
  facet normal 0.951056 0.309017 0
    outer loop
      vertex -5.02469 -16.8963 20.7138
      vertex -4.40666 -18.7984 18.7138
      vertex -5.02469 -16.8963 0
    endloop
  endfacet
  facet normal 0.951056 0.30902 -2.83508e-06
    outer loop
      vertex -4.17063 -19.5248 20.7138
      vertex -4.40666 -18.7984 18.7138
      vertex -5.02469 -16.8963 20.7138
    endloop
  endfacet
  facet normal 0.951055 0.30902 -2.61894e-06
    outer loop
      vertex -0.214255 -31.7013 0
      vertex -4.40666 -18.7984 18.7138
      vertex -4.17063 -19.5248 20.7138
    endloop
  endfacet
  facet normal 0.951056 0.309019 -1.53225e-06
    outer loop
      vertex -4.40666 -18.7984 18.7138
      vertex -0.214255 -31.7013 0
      vertex -0.832289 -29.7992 0
    endloop
  endfacet
  facet normal 0.951056 0.309017 0
    outer loop
      vertex -5.02469 -16.8963 0
      vertex -4.40666 -18.7984 18.7138
      vertex -4.40666 -18.7984 0
    endloop
  endfacet
  facet normal 0.262846 -0.808999 0.52577
    outer loop
      vertex -2.11637 -32.3193 0
      vertex -4.17063 -19.5248 20.7138
      vertex -6.07274 -20.1428 20.7138
    endloop
  endfacet
  facet normal 0.262845 -0.808999 0.52577
    outer loop
      vertex -4.17063 -19.5248 20.7138
      vertex -2.11637 -32.3193 0
      vertex -0.214255 -31.7013 0
    endloop
  endfacet
  facet normal -0.308979 0.951069 0
    outer loop
      vertex 14.5166 -10.5469 0
      vertex 13.9964 -10.7159 20.7138
      vertex 14.5166 -10.5469 20.7138
    endloop
  endfacet
  facet normal -0.308979 0.951069 0
    outer loop
      vertex 13.9964 -10.7159 20.7138
      vertex 14.5166 -10.5469 0
      vertex 13.9964 -10.7159 0
    endloop
  endfacet
  facet normal -0.951046 -0.309049 -0
    outer loop
      vertex 14.6145 -12.618 18.7138
      vertex 13.9964 -10.7159 0
      vertex 14.6145 -12.618 0
    endloop
  endfacet
  facet normal -0.951046 -0.309049 0
    outer loop
      vertex 13.9964 -10.7159 0
      vertex 14.6145 -12.618 18.7138
      vertex 13.9964 -10.7159 20.7138
    endloop
  endfacet
  facet normal -0.951055 -0.309022 -2.78684e-05
    outer loop
      vertex 14.6145 -12.618 18.7138
      vertex 14.8505 -13.3445 20.7138
      vertex 13.9964 -10.7159 20.7138
    endloop
  endfacet
  facet normal -0.951046 -0.309049 2.45393e-05
    outer loop
      vertex 18.8069 -25.5209 0
      vertex 14.6145 -12.618 18.7138
      vertex 18.1888 -23.6188 0
    endloop
  endfacet
  facet normal -0.951064 -0.308995 -1.67565e-05
    outer loop
      vertex 14.6145 -12.618 18.7138
      vertex 18.8069 -25.5209 0
      vertex 14.8505 -13.3445 20.7138
    endloop
  endfacet
  facet normal 0.262886 -0.808987 0.525767
    outer loop
      vertex 18.8069 -25.5209 0
      vertex 16.7526 -12.7264 20.7138
      vertex 14.8505 -13.3445 20.7138
    endloop
  endfacet
  facet normal 0.262847 -0.808998 0.52577
    outer loop
      vertex 16.7526 -12.7264 20.7138
      vertex 18.8069 -25.5209 0
      vertex 20.709 -24.9029 0
    endloop
  endfacet
  facet normal 0.723577 -0.525749 0.44724
    outer loop
      vertex 16.7526 -12.7264 20.7138
      vertex 30.0835 -12 0
      vertex 17.2804 -12 20.7138
    endloop
  endfacet
  facet normal 0.723592 -0.52572 0.44725
    outer loop
      vertex 30.0835 -12 0
      vertex 16.7526 -12.7264 20.7138
      vertex 20.709 -24.9029 0
    endloop
  endfacet
  facet normal 0 0 1
    outer loop
      vertex -17.622 0.442463 20.7138
      vertex -19.858 2.06699 20.7138
      vertex -17.9435 -4.82982e-16 20.7138
    endloop
  endfacet
  facet normal -0 0 1
    outer loop
      vertex -21.0336 0.448956 20.7138
      vertex -17.9435 -4.82982e-16 20.7138
      vertex -19.858 2.06699 20.7138
    endloop
  endfacet
  facet normal 0 0 1
    outer loop
      vertex -21.0336 -0.448956 20.7138
      vertex -17.9435 -4.82982e-16 20.7138
      vertex -21.0336 0.448956 20.7138
    endloop
  endfacet
  facet normal 0 0 1
    outer loop
      vertex -17.9435 -4.82982e-16 20.7138
      vertex -19.858 -2.06699 20.7138
      vertex -17.622 -0.442463 20.7138
    endloop
  endfacet
  facet normal 0 0 1
    outer loop
      vertex -17.9435 -4.82982e-16 20.7138
      vertex -21.0336 -0.448956 20.7138
      vertex -19.858 -2.06699 20.7138
    endloop
  endfacet
  facet normal -0 0 1
    outer loop
      vertex -5.54484 -17.0653 20.7138
      vertex -4.17063 -19.5248 20.7138
      vertex -5.02469 -16.8963 20.7138
    endloop
  endfacet
  facet normal 0 0 1
    outer loop
      vertex -8.10228 -18.2473 20.7138
      vertex -5.54484 -17.0653 20.7138
      vertex -5.86631 -16.6228 20.7138
    endloop
  endfacet
  facet normal 0 0 1
    outer loop
      vertex -5.54484 -17.0653 20.7138
      vertex -6.07274 -20.1428 20.7138
      vertex -4.17063 -19.5248 20.7138
    endloop
  endfacet
  facet normal 0 0 1
    outer loop
      vertex -5.54484 -17.0653 20.7138
      vertex -6.92671 -19.8654 20.7138
      vertex -6.07274 -20.1428 20.7138
    endloop
  endfacet
  facet normal 0 0 1
    outer loop
      vertex -5.54484 -17.0653 20.7138
      vertex -8.10228 -18.2473 20.7138
      vertex -6.92671 -19.8654 20.7138
    endloop
  endfacet
  facet normal 0 0 1
    outer loop
      vertex -4.17063 19.5248 20.7138
      vertex -5.54484 17.0653 20.7138
      vertex -5.02469 16.8963 20.7138
    endloop
  endfacet
  facet normal 0 0 1
    outer loop
      vertex -6.07274 20.1428 20.7138
      vertex -5.54484 17.0653 20.7138
      vertex -4.17063 19.5248 20.7138
    endloop
  endfacet
  facet normal -0 0 1
    outer loop
      vertex -6.92671 19.8654 20.7138
      vertex -5.54484 17.0653 20.7138
      vertex -6.07274 20.1428 20.7138
    endloop
  endfacet
  facet normal -0 0 1
    outer loop
      vertex -8.10228 18.2473 20.7138
      vertex -5.54484 17.0653 20.7138
      vertex -6.92671 19.8654 20.7138
    endloop
  endfacet
  facet normal 0 0 1
    outer loop
      vertex -5.54484 17.0653 20.7138
      vertex -8.10228 18.2473 20.7138
      vertex -5.86631 16.6228 20.7138
    endloop
  endfacet
  facet normal -0 0 1
    outer loop
      vertex 14.5166 -10.5469 20.7138
      vertex 17.2804 -12 20.7138
      vertex 17.2804 -10 20.7138
    endloop
  endfacet
  facet normal 0 0 1
    outer loop
      vertex 17.2804 -12 20.7138
      vertex 14.5166 -10.5469 20.7138
      vertex 16.7526 -12.7264 20.7138
    endloop
  endfacet
  facet normal 0 0 1
    outer loop
      vertex 14.5166 -10.5469 20.7138
      vertex 17.2804 -10 20.7138
      vertex 14.5166 -10 20.7138
    endloop
  endfacet
  facet normal 0 0 1
    outer loop
      vertex 16.7526 -12.7264 20.7138
      vertex 14.5166 -10.5469 20.7138
      vertex 14.8505 -13.3445 20.7138
    endloop
  endfacet
  facet normal 0 0 1
    outer loop
      vertex 14.8505 -13.3445 20.7138
      vertex 14.5166 -10.5469 20.7138
      vertex 13.9964 -10.7159 20.7138
    endloop
  endfacet
  facet normal 0 0 1
    outer loop
      vertex 14.8505 13.3445 20.7138
      vertex 13.9964 10.7159 20.7138
      vertex 14.5166 10.5469 20.7138
    endloop
  endfacet
  facet normal 0 0 1
    outer loop
      vertex 14.5166 10.5469 20.7138
      vertex 17.2804 12 20.7138
      vertex 16.7526 12.7264 20.7138
    endloop
  endfacet
  facet normal 0 0 1
    outer loop
      vertex 14.5166 10.5469 20.7138
      vertex 16.7526 12.7264 20.7138
      vertex 14.8505 13.3445 20.7138
    endloop
  endfacet
  facet normal 0 0 1
    outer loop
      vertex 17.2804 12 20.7138
      vertex 14.5166 10.5469 20.7138
      vertex 17.2804 10 20.7138
    endloop
  endfacet
  facet normal 0 0 1
    outer loop
      vertex 17.2804 10 20.7138
      vertex 14.5166 10.5469 20.7138
      vertex 14.5166 10 20.7138
    endloop
  endfacet
endsolid OpenSCAD_Model
