<?xml version="1.0" standalone="no"?>
<!DOCTYPE svg PUBLIC "-//W3C//DTD SVG 1.1//EN" "http://www.w3.org/Graphics/SVG/1.1/DTD/svg11.dtd">
<svg width="962mm" height="951mm" viewBox="19 -964 962 951" xmlns="http://www.w3.org/2000/svg" version="1.1">
<title>OpenSCAD Model</title>
<path d="
M 940.837,-745.751 L 876.18,-834.743 L 980.797,-868.735 L 974.616,-887.756 L 870,-853.764 L 870,-963.764
 L 850,-963.764 L 850,-853.764 L 745.384,-887.756 L 739.203,-868.735 L 843.82,-834.743 L 779.163,-745.751
 L 795.344,-733.995 L 860,-822.987 L 924.656,-733.995 z
M 220.837,-745.751 L 156.18,-834.743 L 260.797,-868.735 L 254.616,-887.756 L 150,-853.764 L 150,-963.764
 L 130,-963.764 L 130,-853.764 L 25.3838,-887.756 L 19.2034,-868.735 L 123.82,-834.743 L 59.1633,-745.751
 L 75.3436,-733.995 L 140,-822.987 L 204.656,-733.995 z
M 580.837,-745.751 L 516.18,-834.743 L 620.797,-868.735 L 614.616,-887.756 L 510,-853.764 L 510,-963.764
 L 490,-963.764 L 490,-853.764 L 385.384,-887.756 L 379.203,-868.735 L 483.82,-834.743 L 419.163,-745.751
 L 435.344,-733.995 L 500,-822.987 L 564.656,-733.995 z
M 760.837,-665.751 L 696.18,-754.743 L 800.797,-788.735 L 794.616,-807.756 L 690,-773.764 L 690,-883.764
 L 670,-883.764 L 670,-773.764 L 565.384,-807.756 L 559.203,-788.735 L 663.82,-754.743 L 599.163,-665.751
 L 615.344,-653.995 L 680,-742.987 L 744.656,-653.995 z
M 400.837,-665.751 L 336.18,-754.743 L 440.797,-788.735 L 434.616,-807.756 L 320,-770.515 L 205.384,-807.756
 L 199.203,-788.735 L 303.82,-754.743 L 239.163,-665.751 L 255.344,-653.995 L 320,-742.987 L 384.656,-653.995
 z
M 220.837,-585.751 L 156.18,-674.743 L 260.797,-708.735 L 254.616,-727.756 L 150,-693.764 L 150,-803.764
 L 130,-803.764 L 130,-693.764 L 25.3838,-727.756 L 19.2034,-708.735 L 123.82,-674.743 L 59.1633,-585.751
 L 75.3436,-573.995 L 140,-662.987 L 204.656,-573.995 z
M 580.837,-585.751 L 516.18,-674.743 L 620.797,-708.735 L 614.616,-727.756 L 510,-693.764 L 510,-803.764
 L 490,-803.764 L 490,-693.764 L 385.384,-727.756 L 379.203,-708.735 L 483.82,-674.743 L 419.163,-585.751
 L 435.344,-573.995 L 500,-662.987 L 564.656,-573.995 z
M 940.837,-585.751 L 876.18,-674.743 L 980.797,-708.735 L 974.616,-727.756 L 870,-693.764 L 870,-803.764
 L 850,-803.764 L 850,-693.764 L 745.384,-727.756 L 739.203,-708.735 L 843.82,-674.743 L 779.163,-585.751
 L 795.344,-573.995 L 860,-662.987 L 924.656,-573.995 z
M 760.837,-505.751 L 696.18,-594.743 L 800.797,-628.735 L 794.616,-647.756 L 690,-613.764 L 690,-723.764
 L 670,-723.764 L 670,-613.764 L 565.384,-647.756 L 559.203,-628.735 L 663.82,-594.743 L 599.163,-505.751
 L 615.344,-493.995 L 680,-582.987 L 744.656,-493.995 z
M 400.837,-505.751 L 336.18,-594.743 L 440.797,-628.735 L 434.616,-647.756 L 320,-610.515 L 205.384,-647.756
 L 199.203,-628.735 L 303.82,-594.743 L 239.163,-505.751 L 255.344,-493.995 L 320,-582.987 L 384.656,-493.995
 z
M 940.837,-425.751 L 876.18,-514.743 L 980.797,-548.735 L 974.616,-567.756 L 870,-533.764 L 870,-643.764
 L 850,-643.764 L 850,-533.764 L 745.384,-567.756 L 739.203,-548.735 L 843.82,-514.743 L 779.163,-425.751
 L 795.344,-413.995 L 860,-502.987 L 924.656,-413.995 z
M 220.837,-425.751 L 156.18,-514.743 L 260.797,-548.735 L 254.616,-567.756 L 150,-533.764 L 150,-643.764
 L 130,-643.764 L 130,-533.764 L 25.3838,-567.756 L 19.2034,-548.735 L 123.82,-514.743 L 59.1633,-425.751
 L 75.3436,-413.995 L 140,-502.987 L 204.656,-413.995 z
M 580.837,-425.751 L 516.18,-514.743 L 620.797,-548.735 L 614.616,-567.756 L 510,-533.764 L 510,-643.764
 L 490,-643.764 L 490,-533.764 L 385.384,-567.756 L 379.203,-548.735 L 483.82,-514.743 L 419.163,-425.751
 L 435.344,-413.995 L 500,-502.987 L 564.656,-413.995 z
M 760.837,-345.751 L 696.18,-434.743 L 800.797,-468.735 L 794.616,-487.756 L 690,-453.764 L 690,-563.764
 L 670,-563.764 L 670,-453.764 L 565.384,-487.756 L 559.203,-468.735 L 663.82,-434.743 L 599.163,-345.751
 L 615.344,-333.995 L 680,-422.987 L 744.656,-333.995 z
M 400.837,-345.751 L 336.18,-434.743 L 440.797,-468.735 L 434.616,-487.756 L 320,-450.515 L 205.384,-487.756
 L 199.203,-468.735 L 303.82,-434.743 L 239.163,-345.751 L 255.344,-333.995 L 320,-422.987 L 384.656,-333.995
 z
M 220.837,-265.751 L 156.18,-354.743 L 260.797,-388.735 L 254.616,-407.756 L 150,-373.764 L 150,-483.764
 L 130,-483.764 L 130,-373.764 L 25.3838,-407.756 L 19.2034,-388.735 L 123.82,-354.743 L 59.1633,-265.751
 L 75.3436,-253.995 L 140,-342.987 L 204.656,-253.995 z
M 940.837,-265.751 L 876.18,-354.743 L 980.797,-388.735 L 974.616,-407.756 L 870,-373.764 L 870,-483.764
 L 850,-483.764 L 850,-373.764 L 745.384,-407.756 L 739.203,-388.735 L 843.82,-354.743 L 779.163,-265.751
 L 795.344,-253.995 L 860,-342.987 L 924.656,-253.995 z
M 580.837,-265.751 L 516.18,-354.743 L 620.797,-388.735 L 614.616,-407.756 L 510,-373.764 L 510,-483.764
 L 490,-483.764 L 490,-373.764 L 385.384,-407.756 L 379.203,-388.735 L 483.82,-354.743 L 419.163,-265.751
 L 435.344,-253.995 L 500,-342.987 L 564.656,-253.995 z
M 760.837,-185.751 L 696.18,-274.743 L 800.797,-308.735 L 794.616,-327.756 L 690,-293.764 L 690,-403.764
 L 670,-403.764 L 670,-293.764 L 565.384,-327.756 L 559.203,-308.735 L 663.82,-274.743 L 599.163,-185.751
 L 615.344,-173.995 L 680,-262.987 L 744.656,-173.995 z
M 400.837,-185.751 L 336.18,-274.743 L 440.797,-308.735 L 434.616,-327.756 L 320,-290.515 L 205.384,-327.756
 L 199.203,-308.735 L 303.82,-274.743 L 239.163,-185.751 L 255.344,-173.995 L 320,-262.987 L 384.656,-173.995
 z
M 580.837,-105.751 L 516.18,-194.743 L 620.797,-228.735 L 614.616,-247.756 L 510,-213.764 L 510,-323.764
 L 490,-323.764 L 490,-213.764 L 385.384,-247.756 L 379.203,-228.735 L 483.82,-194.743 L 419.163,-105.751
 L 435.344,-93.9951 L 500,-182.987 L 564.656,-93.9951 z
M 220.837,-105.751 L 156.18,-194.743 L 260.797,-228.735 L 254.616,-247.756 L 150,-213.764 L 150,-323.764
 L 130,-323.764 L 130,-213.764 L 25.3838,-247.756 L 19.2034,-228.735 L 123.82,-194.743 L 59.1633,-105.751
 L 75.3436,-93.9951 L 140,-182.987 L 204.656,-93.9951 z
M 940.837,-105.751 L 876.18,-194.743 L 980.797,-228.735 L 974.616,-247.756 L 870,-213.764 L 870,-323.764
 L 850,-323.764 L 850,-213.764 L 745.384,-247.756 L 739.203,-228.735 L 843.82,-194.743 L 779.163,-105.751
 L 795.344,-93.9951 L 860,-182.987 L 924.656,-93.9951 z
M 760.837,-25.7508 L 696.18,-114.743 L 800.797,-148.735 L 794.616,-167.756 L 690,-133.764 L 690,-243.764
 L 670,-243.764 L 670,-133.764 L 565.384,-167.756 L 559.203,-148.735 L 663.82,-114.743 L 599.163,-25.7508
 L 615.344,-13.9951 L 680,-102.987 L 744.656,-13.9951 z
M 400.837,-25.7508 L 336.18,-114.743 L 440.797,-148.735 L 434.616,-167.756 L 320,-130.515 L 205.384,-167.756
 L 199.203,-148.735 L 303.82,-114.743 L 239.163,-25.7508 L 255.344,-13.9951 L 320,-102.987 L 384.656,-13.9951
 z
" stroke="black" fill="lightgray" stroke-width="0.5"/>
</svg>
