  0
SECTION
  2
BLOCKS
  0
ENDSEC
  0
SECTION
  2
ENTITIES
  0
LINE
  8
0
 10
51.4474
 20
-53.7983
 11
16.1851
 21
-5.26385
  0
LINE
  8
0
 10
16.1851
 20
-5.26385
 11
16.1898
 21
-5.26039
  0
LINE
  8
0
 10
16.1898
 20
-5.26039
 11
16.188
 21
-5.25481
  0
LINE
  8
0
 10
16.188
 20
-5.25481
 11
73.2437
 21
13.2837
  0
LINE
  8
0
 10
73.2437
 20
13.2837
 11
67.0634
 21
32.3048
  0
LINE
  8
0
 10
67.0634
 20
32.3048
 11
10.0077
 21
13.7663
  0
LINE
  8
0
 10
10.0077
 20
13.7663
 11
10.0059
 21
13.7719
  0
LINE
  8
0
 10
10.0059
 20
13.7719
 11
10
 21
13.7719
  0
LINE
  8
0
 10
10
 20
13.7719
 11
10
 21
73.7638
  0
LINE
  8
0
 10
10
 20
73.7638
 11
-10
 21
73.7638
  0
LINE
  8
0
 10
-10
 20
73.7638
 11
-10
 21
13.7719
  0
LINE
  8
0
 10
-10
 20
13.7719
 11
-10.0059
 21
13.7719
  0
LINE
  8
0
 10
-10.0059
 20
13.7719
 11
-10.0077
 21
13.7663
  0
LINE
  8
0
 10
-10.0077
 20
13.7663
 11
-67.0634
 21
32.3048
  0
LINE
  8
0
 10
-67.0634
 20
32.3048
 11
-73.2437
 21
13.2837
  0
LINE
  8
0
 10
-73.2437
 20
13.2837
 11
-16.188
 21
-5.25481
  0
LINE
  8
0
 10
-16.188
 20
-5.25481
 11
-16.1898
 21
-5.26039
  0
LINE
  8
0
 10
-16.1898
 20
-5.26039
 11
-16.1851
 21
-5.26385
  0
LINE
  8
0
 10
-16.1851
 20
-5.26385
 11
-51.4474
 21
-53.7983
  0
LINE
  8
0
 10
-51.4474
 20
-53.7983
 11
-35.2671
 21
-65.554
  0
LINE
  8
0
 10
-35.2671
 20
-65.554
 11
-0.00474548
 21
-17.0196
  0
LINE
  8
0
 10
-0.00474548
 20
-17.0196
 11
0
 21
-17.023
  0
LINE
  8
0
 10
0
 20
-17.023
 11
0.00474548
 21
-17.0196
  0
LINE
  8
0
 10
0.00474548
 20
-17.0196
 11
35.2671
 21
-65.554
  0
LINE
  8
0
 10
35.2671
 20
-65.554
 11
51.4474
 21
-53.7983
  0
LINE
  8
0
 10
-0.16011
 20
61.2188
 11
-0.477814
 21
61.259
  0
LINE
  8
0
 10
-0.477814
 20
61.259
 11
-0.787979
 21
61.3386
  0
LINE
  8
0
 10
-0.787979
 20
61.3386
 11
-1.08572
 21
61.4565
  0
LINE
  8
0
 10
-1.08572
 20
61.4565
 11
-1.36635
 21
61.6108
  0
LINE
  8
0
 10
-1.36635
 20
61.6108
 11
-1.62543
 21
61.799
  0
LINE
  8
0
 10
-1.62543
 20
61.799
 11
-1.85886
 21
62.0182
  0
LINE
  8
0
 10
-1.85886
 20
62.0182
 11
-2.06299
 21
62.265
  0
LINE
  8
0
 10
-2.06299
 20
62.265
 11
-2.23457
 21
62.5353
  0
LINE
  8
0
 10
-2.23457
 20
62.5353
 11
-2.37093
 21
62.8251
  0
LINE
  8
0
 10
-2.37093
 20
62.8251
 11
-2.46988
 21
63.1296
  0
LINE
  8
0
 10
-2.46988
 20
63.1296
 11
-2.52989
 21
63.4442
  0
LINE
  8
0
 10
-2.52989
 20
63.4442
 11
-2.54999
 21
63.7638
  0
LINE
  8
0
 10
-2.54999
 20
63.7638
 11
-2.52989
 21
64.0834
  0
LINE
  8
0
 10
-2.52989
 20
64.0834
 11
-2.46988
 21
64.398
  0
LINE
  8
0
 10
-2.46988
 20
64.398
 11
-2.37093
 21
64.7025
  0
LINE
  8
0
 10
-2.37093
 20
64.7025
 11
-2.23457
 21
64.9923
  0
LINE
  8
0
 10
-2.23457
 20
64.9923
 11
-2.06299
 21
65.2626
  0
LINE
  8
0
 10
-2.06299
 20
65.2626
 11
-1.85886
 21
65.5094
  0
LINE
  8
0
 10
-1.85886
 20
65.5094
 11
-1.62543
 21
65.7286
  0
LINE
  8
0
 10
-1.62543
 20
65.7286
 11
-1.36635
 21
65.9168
  0
LINE
  8
0
 10
-1.36635
 20
65.9168
 11
-1.08572
 21
66.0711
  0
LINE
  8
0
 10
-1.08572
 20
66.0711
 11
-0.787979
 21
66.189
  0
LINE
  8
0
 10
-0.787979
 20
66.189
 11
-0.477814
 21
66.2686
  0
LINE
  8
0
 10
-0.477814
 20
66.2686
 11
-0.16011
 21
66.3088
  0
LINE
  8
0
 10
-0.16011
 20
66.3088
 11
0.16011
 21
66.3088
  0
LINE
  8
0
 10
0.16011
 20
66.3088
 11
0.477814
 21
66.2686
  0
LINE
  8
0
 10
0.477814
 20
66.2686
 11
0.787979
 21
66.189
  0
LINE
  8
0
 10
0.787979
 20
66.189
 11
1.08572
 21
66.0711
  0
LINE
  8
0
 10
1.08572
 20
66.0711
 11
1.36635
 21
65.9168
  0
LINE
  8
0
 10
1.36635
 20
65.9168
 11
1.62543
 21
65.7286
  0
LINE
  8
0
 10
1.62543
 20
65.7286
 11
1.85886
 21
65.5094
  0
LINE
  8
0
 10
1.85886
 20
65.5094
 11
2.06299
 21
65.2626
  0
LINE
  8
0
 10
2.06299
 20
65.2626
 11
2.23457
 21
64.9923
  0
LINE
  8
0
 10
2.23457
 20
64.9923
 11
2.37093
 21
64.7025
  0
LINE
  8
0
 10
2.37093
 20
64.7025
 11
2.46988
 21
64.398
  0
LINE
  8
0
 10
2.46988
 20
64.398
 11
2.52989
 21
64.0834
  0
LINE
  8
0
 10
2.52989
 20
64.0834
 11
2.54999
 21
63.7638
  0
LINE
  8
0
 10
2.54999
 20
63.7638
 11
2.52989
 21
63.4442
  0
LINE
  8
0
 10
2.52989
 20
63.4442
 11
2.46988
 21
63.1296
  0
LINE
  8
0
 10
2.46988
 20
63.1296
 11
2.37093
 21
62.8251
  0
LINE
  8
0
 10
2.37093
 20
62.8251
 11
2.23457
 21
62.5353
  0
LINE
  8
0
 10
2.23457
 20
62.5353
 11
2.06299
 21
62.265
  0
LINE
  8
0
 10
2.06299
 20
62.265
 11
1.85886
 21
62.0182
  0
LINE
  8
0
 10
1.85886
 20
62.0182
 11
1.62543
 21
61.799
  0
LINE
  8
0
 10
1.62543
 20
61.799
 11
1.36635
 21
61.6108
  0
LINE
  8
0
 10
1.36635
 20
61.6108
 11
1.08572
 21
61.4565
  0
LINE
  8
0
 10
1.08572
 20
61.4565
 11
0.787979
 21
61.3386
  0
LINE
  8
0
 10
0.787979
 20
61.3386
 11
0.477814
 21
61.259
  0
LINE
  8
0
 10
0.477814
 20
61.259
 11
0.16011
 21
61.2188
  0
LINE
  8
0
 10
0.16011
 20
61.2188
 11
-0.16011
 21
61.2188
  0
LINE
  8
0
 10
-0.16011
 20
36.2188
 11
-0.477814
 21
36.259
  0
LINE
  8
0
 10
-0.477814
 20
36.259
 11
-0.787979
 21
36.3386
  0
LINE
  8
0
 10
-0.787979
 20
36.3386
 11
-1.08572
 21
36.4565
  0
LINE
  8
0
 10
-1.08572
 20
36.4565
 11
-1.36635
 21
36.6108
  0
LINE
  8
0
 10
-1.36635
 20
36.6108
 11
-1.62543
 21
36.799
  0
LINE
  8
0
 10
-1.62543
 20
36.799
 11
-1.85886
 21
37.0182
  0
LINE
  8
0
 10
-1.85886
 20
37.0182
 11
-2.06299
 21
37.265
  0
LINE
  8
0
 10
-2.06299
 20
37.265
 11
-2.23457
 21
37.5353
  0
LINE
  8
0
 10
-2.23457
 20
37.5353
 11
-2.37093
 21
37.8251
  0
LINE
  8
0
 10
-2.37093
 20
37.8251
 11
-2.46988
 21
38.1296
  0
LINE
  8
0
 10
-2.46988
 20
38.1296
 11
-2.52989
 21
38.4442
  0
LINE
  8
0
 10
-2.52989
 20
38.4442
 11
-2.54999
 21
38.7638
  0
LINE
  8
0
 10
-2.54999
 20
38.7638
 11
-2.52989
 21
39.0834
  0
LINE
  8
0
 10
-2.52989
 20
39.0834
 11
-2.46988
 21
39.398
  0
LINE
  8
0
 10
-2.46988
 20
39.398
 11
-2.37093
 21
39.7025
  0
LINE
  8
0
 10
-2.37093
 20
39.7025
 11
-2.23457
 21
39.9923
  0
LINE
  8
0
 10
-2.23457
 20
39.9923
 11
-2.06299
 21
40.2626
  0
LINE
  8
0
 10
-2.06299
 20
40.2626
 11
-1.85886
 21
40.5094
  0
LINE
  8
0
 10
-1.85886
 20
40.5094
 11
-1.62543
 21
40.7286
  0
LINE
  8
0
 10
-1.62543
 20
40.7286
 11
-1.36635
 21
40.9168
  0
LINE
  8
0
 10
-1.36635
 20
40.9168
 11
-1.08572
 21
41.0711
  0
LINE
  8
0
 10
-1.08572
 20
41.0711
 11
-0.787979
 21
41.189
  0
LINE
  8
0
 10
-0.787979
 20
41.189
 11
-0.477814
 21
41.2686
  0
LINE
  8
0
 10
-0.477814
 20
41.2686
 11
-0.16011
 21
41.3088
  0
LINE
  8
0
 10
-0.16011
 20
41.3088
 11
0.16011
 21
41.3088
  0
LINE
  8
0
 10
0.16011
 20
41.3088
 11
0.477814
 21
41.2686
  0
LINE
  8
0
 10
0.477814
 20
41.2686
 11
0.787979
 21
41.189
  0
LINE
  8
0
 10
0.787979
 20
41.189
 11
1.08572
 21
41.0711
  0
LINE
  8
0
 10
1.08572
 20
41.0711
 11
1.36635
 21
40.9168
  0
LINE
  8
0
 10
1.36635
 20
40.9168
 11
1.62543
 21
40.7286
  0
LINE
  8
0
 10
1.62543
 20
40.7286
 11
1.85886
 21
40.5094
  0
LINE
  8
0
 10
1.85886
 20
40.5094
 11
2.06299
 21
40.2626
  0
LINE
  8
0
 10
2.06299
 20
40.2626
 11
2.23457
 21
39.9923
  0
LINE
  8
0
 10
2.23457
 20
39.9923
 11
2.37093
 21
39.7025
  0
LINE
  8
0
 10
2.37093
 20
39.7025
 11
2.46988
 21
39.398
  0
LINE
  8
0
 10
2.46988
 20
39.398
 11
2.52989
 21
39.0834
  0
LINE
  8
0
 10
2.52989
 20
39.0834
 11
2.54999
 21
38.7638
  0
LINE
  8
0
 10
2.54999
 20
38.7638
 11
2.52989
 21
38.4442
  0
LINE
  8
0
 10
2.52989
 20
38.4442
 11
2.46988
 21
38.1296
  0
LINE
  8
0
 10
2.46988
 20
38.1296
 11
2.37093
 21
37.8251
  0
LINE
  8
0
 10
2.37093
 20
37.8251
 11
2.23457
 21
37.5353
  0
LINE
  8
0
 10
2.23457
 20
37.5353
 11
2.06299
 21
37.265
  0
LINE
  8
0
 10
2.06299
 20
37.265
 11
1.85886
 21
37.0182
  0
LINE
  8
0
 10
1.85886
 20
37.0182
 11
1.62543
 21
36.799
  0
LINE
  8
0
 10
1.62543
 20
36.799
 11
1.36635
 21
36.6108
  0
LINE
  8
0
 10
1.36635
 20
36.6108
 11
1.08572
 21
36.4565
  0
LINE
  8
0
 10
1.08572
 20
36.4565
 11
0.787979
 21
36.3386
  0
LINE
  8
0
 10
0.787979
 20
36.3386
 11
0.477814
 21
36.259
  0
LINE
  8
0
 10
0.477814
 20
36.259
 11
0.16011
 21
36.2188
  0
LINE
  8
0
 10
0.16011
 20
36.2188
 11
-0.16011
 21
36.2188
  0
LINE
  8
0
 10
-60.8031
 20
17.1591
 11
-61.1208
 21
17.1993
  0
LINE
  8
0
 10
-61.1208
 20
17.1993
 11
-61.431
 21
17.2789
  0
LINE
  8
0
 10
-61.431
 20
17.2789
 11
-61.7287
 21
17.3968
  0
LINE
  8
0
 10
-61.7287
 20
17.3968
 11
-62.0093
 21
17.5511
  0
LINE
  8
0
 10
-62.0093
 20
17.5511
 11
-62.2684
 21
17.7393
  0
LINE
  8
0
 10
-62.2684
 20
17.7393
 11
-62.5018
 21
17.9585
  0
LINE
  8
0
 10
-62.5018
 20
17.9585
 11
-62.706
 21
18.2052
  0
LINE
  8
0
 10
-62.706
 20
18.2052
 11
-62.8776
 21
18.4756
  0
LINE
  8
0
 10
-62.8776
 20
18.4756
 11
-63.0139
 21
18.7654
  0
LINE
  8
0
 10
-63.0139
 20
18.7654
 11
-63.1129
 21
19.0699
  0
LINE
  8
0
 10
-63.1129
 20
19.0699
 11
-63.1729
 21
19.3845
  0
LINE
  8
0
 10
-63.1729
 20
19.3845
 11
-63.193
 21
19.7041
  0
LINE
  8
0
 10
-63.193
 20
19.7041
 11
-63.1729
 21
20.0237
  0
LINE
  8
0
 10
-63.1729
 20
20.0237
 11
-63.1129
 21
20.3383
  0
LINE
  8
0
 10
-63.1129
 20
20.3383
 11
-63.0139
 21
20.6428
  0
LINE
  8
0
 10
-63.0139
 20
20.6428
 11
-62.8776
 21
20.9326
  0
LINE
  8
0
 10
-62.8776
 20
20.9326
 11
-62.706
 21
21.2029
  0
LINE
  8
0
 10
-62.706
 20
21.2029
 11
-62.5018
 21
21.4497
  0
LINE
  8
0
 10
-62.5018
 20
21.4497
 11
-62.2684
 21
21.6689
  0
LINE
  8
0
 10
-62.2684
 20
21.6689
 11
-62.0093
 21
21.8571
  0
LINE
  8
0
 10
-62.0093
 20
21.8571
 11
-61.7287
 21
22.0114
  0
LINE
  8
0
 10
-61.7287
 20
22.0114
 11
-61.431
 21
22.1293
  0
LINE
  8
0
 10
-61.431
 20
22.1293
 11
-61.1208
 21
22.2089
  0
LINE
  8
0
 10
-61.1208
 20
22.2089
 11
-60.8031
 21
22.2491
  0
LINE
  8
0
 10
-60.8031
 20
22.2491
 11
-60.4829
 21
22.2491
  0
LINE
  8
0
 10
-60.4829
 20
22.2491
 11
-60.1652
 21
22.2089
  0
LINE
  8
0
 10
-60.1652
 20
22.2089
 11
-59.855
 21
22.1293
  0
LINE
  8
0
 10
-59.855
 20
22.1293
 11
-59.5572
 21
22.0114
  0
LINE
  8
0
 10
-59.5572
 20
22.0114
 11
-59.2766
 21
21.8571
  0
LINE
  8
0
 10
-59.2766
 20
21.8571
 11
-59.0176
 21
21.6689
  0
LINE
  8
0
 10
-59.0176
 20
21.6689
 11
-58.7841
 21
21.4497
  0
LINE
  8
0
 10
-58.7841
 20
21.4497
 11
-58.58
 21
21.2029
  0
LINE
  8
0
 10
-58.58
 20
21.2029
 11
-58.4084
 21
20.9326
  0
LINE
  8
0
 10
-58.4084
 20
20.9326
 11
-58.272
 21
20.6428
  0
LINE
  8
0
 10
-58.272
 20
20.6428
 11
-58.1731
 21
20.3382
  0
LINE
  8
0
 10
-58.1731
 20
20.3382
 11
-58.1131
 21
20.0237
  0
LINE
  8
0
 10
-58.1131
 20
20.0237
 11
-58.093
 21
19.7041
  0
LINE
  8
0
 10
-58.093
 20
19.7041
 11
-58.1131
 21
19.3845
  0
LINE
  8
0
 10
-58.1131
 20
19.3845
 11
-58.1731
 21
19.0699
  0
LINE
  8
0
 10
-58.1731
 20
19.0699
 11
-58.272
 21
18.7654
  0
LINE
  8
0
 10
-58.272
 20
18.7654
 11
-58.4084
 21
18.4756
  0
LINE
  8
0
 10
-58.4084
 20
18.4756
 11
-58.58
 21
18.2053
  0
LINE
  8
0
 10
-58.58
 20
18.2053
 11
-58.7841
 21
17.9585
  0
LINE
  8
0
 10
-58.7841
 20
17.9585
 11
-59.0175
 21
17.7393
  0
LINE
  8
0
 10
-59.0175
 20
17.7393
 11
-59.2766
 21
17.5511
  0
LINE
  8
0
 10
-59.2766
 20
17.5511
 11
-59.5572
 21
17.3968
  0
LINE
  8
0
 10
-59.5572
 20
17.3968
 11
-59.855
 21
17.2789
  0
LINE
  8
0
 10
-59.855
 20
17.2789
 11
-60.1651
 21
17.1993
  0
LINE
  8
0
 10
-60.1651
 20
17.1993
 11
-60.4829
 21
17.1591
  0
LINE
  8
0
 10
-60.4829
 20
17.1591
 11
-60.8031
 21
17.1591
  0
LINE
  8
0
 10
60.4829
 20
17.1591
 11
60.1651
 21
17.1993
  0
LINE
  8
0
 10
60.1651
 20
17.1993
 11
59.855
 21
17.2789
  0
LINE
  8
0
 10
59.855
 20
17.2789
 11
59.5572
 21
17.3968
  0
LINE
  8
0
 10
59.5572
 20
17.3968
 11
59.2766
 21
17.5511
  0
LINE
  8
0
 10
59.2766
 20
17.5511
 11
59.0175
 21
17.7393
  0
LINE
  8
0
 10
59.0175
 20
17.7393
 11
58.7841
 21
17.9585
  0
LINE
  8
0
 10
58.7841
 20
17.9585
 11
58.58
 21
18.2053
  0
LINE
  8
0
 10
58.58
 20
18.2053
 11
58.4084
 21
18.4756
  0
LINE
  8
0
 10
58.4084
 20
18.4756
 11
58.272
 21
18.7654
  0
LINE
  8
0
 10
58.272
 20
18.7654
 11
58.1731
 21
19.0699
  0
LINE
  8
0
 10
58.1731
 20
19.0699
 11
58.1131
 21
19.3845
  0
LINE
  8
0
 10
58.1131
 20
19.3845
 11
58.093
 21
19.7041
  0
LINE
  8
0
 10
58.093
 20
19.7041
 11
58.1131
 21
20.0237
  0
LINE
  8
0
 10
58.1131
 20
20.0237
 11
58.1731
 21
20.3382
  0
LINE
  8
0
 10
58.1731
 20
20.3382
 11
58.272
 21
20.6428
  0
LINE
  8
0
 10
58.272
 20
20.6428
 11
58.4084
 21
20.9326
  0
LINE
  8
0
 10
58.4084
 20
20.9326
 11
58.58
 21
21.2029
  0
LINE
  8
0
 10
58.58
 20
21.2029
 11
58.7841
 21
21.4497
  0
LINE
  8
0
 10
58.7841
 20
21.4497
 11
59.0176
 21
21.6689
  0
LINE
  8
0
 10
59.0176
 20
21.6689
 11
59.2766
 21
21.8571
  0
LINE
  8
0
 10
59.2766
 20
21.8571
 11
59.5572
 21
22.0114
  0
LINE
  8
0
 10
59.5572
 20
22.0114
 11
59.855
 21
22.1293
  0
LINE
  8
0
 10
59.855
 20
22.1293
 11
60.1652
 21
22.2089
  0
LINE
  8
0
 10
60.1652
 20
22.2089
 11
60.4829
 21
22.2491
  0
LINE
  8
0
 10
60.4829
 20
22.2491
 11
60.8031
 21
22.2491
  0
LINE
  8
0
 10
60.8031
 20
22.2491
 11
61.1208
 21
22.2089
  0
LINE
  8
0
 10
61.1208
 20
22.2089
 11
61.431
 21
22.1293
  0
LINE
  8
0
 10
61.431
 20
22.1293
 11
61.7287
 21
22.0114
  0
LINE
  8
0
 10
61.7287
 20
22.0114
 11
62.0093
 21
21.8571
  0
LINE
  8
0
 10
62.0093
 20
21.8571
 11
62.2684
 21
21.6689
  0
LINE
  8
0
 10
62.2684
 20
21.6689
 11
62.5018
 21
21.4497
  0
LINE
  8
0
 10
62.5018
 20
21.4497
 11
62.706
 21
21.2029
  0
LINE
  8
0
 10
62.706
 20
21.2029
 11
62.8776
 21
20.9326
  0
LINE
  8
0
 10
62.8776
 20
20.9326
 11
63.0139
 21
20.6428
  0
LINE
  8
0
 10
63.0139
 20
20.6428
 11
63.1129
 21
20.3383
  0
LINE
  8
0
 10
63.1129
 20
20.3383
 11
63.1729
 21
20.0237
  0
LINE
  8
0
 10
63.1729
 20
20.0237
 11
63.193
 21
19.7041
  0
LINE
  8
0
 10
63.193
 20
19.7041
 11
63.1729
 21
19.3845
  0
LINE
  8
0
 10
63.1729
 20
19.3845
 11
63.1129
 21
19.0699
  0
LINE
  8
0
 10
63.1129
 20
19.0699
 11
63.0139
 21
18.7654
  0
LINE
  8
0
 10
63.0139
 20
18.7654
 11
62.8776
 21
18.4756
  0
LINE
  8
0
 10
62.8776
 20
18.4756
 11
62.706
 21
18.2052
  0
LINE
  8
0
 10
62.706
 20
18.2052
 11
62.5018
 21
17.9585
  0
LINE
  8
0
 10
62.5018
 20
17.9585
 11
62.2684
 21
17.7393
  0
LINE
  8
0
 10
62.2684
 20
17.7393
 11
62.0093
 21
17.5511
  0
LINE
  8
0
 10
62.0093
 20
17.5511
 11
61.7287
 21
17.3968
  0
LINE
  8
0
 10
61.7287
 20
17.3968
 11
61.431
 21
17.2789
  0
LINE
  8
0
 10
61.431
 20
17.2789
 11
61.1208
 21
17.1993
  0
LINE
  8
0
 10
61.1208
 20
17.1993
 11
60.8031
 21
17.1591
  0
LINE
  8
0
 10
60.8031
 20
17.1591
 11
60.4829
 21
17.1591
  0
LINE
  8
0
 10
-37.0267
 20
9.4337
 11
-37.3444
 21
9.47383
  0
LINE
  8
0
 10
-37.3444
 20
9.47383
 11
-37.6546
 21
9.55348
  0
LINE
  8
0
 10
-37.6546
 20
9.55348
 11
-37.9523
 21
9.67136
  0
LINE
  8
0
 10
-37.9523
 20
9.67136
 11
-38.2329
 21
9.82564
  0
LINE
  8
0
 10
-38.2329
 20
9.82564
 11
-38.492
 21
10.0139
  0
LINE
  8
0
 10
-38.492
 20
10.0139
 11
-38.7254
 21
10.2331
  0
LINE
  8
0
 10
-38.7254
 20
10.2331
 11
-38.9296
 21
10.4798
  0
LINE
  8
0
 10
-38.9296
 20
10.4798
 11
-39.1012
 21
10.7502
  0
LINE
  8
0
 10
-39.1012
 20
10.7502
 11
-39.2375
 21
11.0399
  0
LINE
  8
0
 10
-39.2375
 20
11.0399
 11
-39.3365
 21
11.3445
  0
LINE
  8
0
 10
-39.3365
 20
11.3445
 11
-39.3965
 21
11.6591
  0
LINE
  8
0
 10
-39.3965
 20
11.6591
 11
-39.4166
 21
11.9787
  0
LINE
  8
0
 10
-39.4166
 20
11.9787
 11
-39.3965
 21
12.2983
  0
LINE
  8
0
 10
-39.3965
 20
12.2983
 11
-39.3365
 21
12.6128
  0
LINE
  8
0
 10
-39.3365
 20
12.6128
 11
-39.2375
 21
12.9174
  0
LINE
  8
0
 10
-39.2375
 20
12.9174
 11
-39.1012
 21
13.2071
  0
LINE
  8
0
 10
-39.1012
 20
13.2071
 11
-38.9296
 21
13.4775
  0
LINE
  8
0
 10
-38.9296
 20
13.4775
 11
-38.7254
 21
13.7242
  0
LINE
  8
0
 10
-38.7254
 20
13.7242
 11
-38.492
 21
13.9435
  0
LINE
  8
0
 10
-38.492
 20
13.9435
 11
-38.2329
 21
14.1317
  0
LINE
  8
0
 10
-38.2329
 20
14.1317
 11
-37.9523
 21
14.286
  0
LINE
  8
0
 10
-37.9523
 20
14.286
 11
-37.6546
 21
14.4039
  0
LINE
  8
0
 10
-37.6546
 20
14.4039
 11
-37.3444
 21
14.4835
  0
LINE
  8
0
 10
-37.3444
 20
14.4835
 11
-37.0267
 21
14.5236
  0
LINE
  8
0
 10
-37.0267
 20
14.5236
 11
-36.7065
 21
14.5236
  0
LINE
  8
0
 10
-36.7065
 20
14.5236
 11
-36.3887
 21
14.4835
  0
LINE
  8
0
 10
-36.3887
 20
14.4835
 11
-36.0786
 21
14.4039
  0
LINE
  8
0
 10
-36.0786
 20
14.4039
 11
-35.7808
 21
14.286
  0
LINE
  8
0
 10
-35.7808
 20
14.286
 11
-35.5002
 21
14.1317
  0
LINE
  8
0
 10
-35.5002
 20
14.1317
 11
-35.2411
 21
13.9435
  0
LINE
  8
0
 10
-35.2411
 20
13.9435
 11
-35.0077
 21
13.7243
  0
LINE
  8
0
 10
-35.0077
 20
13.7243
 11
-34.8036
 21
13.4775
  0
LINE
  8
0
 10
-34.8036
 20
13.4775
 11
-34.632
 21
13.2071
  0
LINE
  8
0
 10
-34.632
 20
13.2071
 11
-34.4956
 21
12.9174
  0
LINE
  8
0
 10
-34.4956
 20
12.9174
 11
-34.3967
 21
12.6128
  0
LINE
  8
0
 10
-34.3967
 20
12.6128
 11
-34.3367
 21
12.2983
  0
LINE
  8
0
 10
-34.3367
 20
12.2983
 11
-34.3166
 21
11.9787
  0
LINE
  8
0
 10
-34.3166
 20
11.9787
 11
-34.3367
 21
11.6591
  0
LINE
  8
0
 10
-34.3367
 20
11.6591
 11
-34.3967
 21
11.3445
  0
LINE
  8
0
 10
-34.3967
 20
11.3445
 11
-34.4956
 21
11.0399
  0
LINE
  8
0
 10
-34.4956
 20
11.0399
 11
-34.632
 21
10.7502
  0
LINE
  8
0
 10
-34.632
 20
10.7502
 11
-34.8036
 21
10.4798
  0
LINE
  8
0
 10
-34.8036
 20
10.4798
 11
-35.0077
 21
10.2331
  0
LINE
  8
0
 10
-35.0077
 20
10.2331
 11
-35.2411
 21
10.0139
  0
LINE
  8
0
 10
-35.2411
 20
10.0139
 11
-35.5002
 21
9.82564
  0
LINE
  8
0
 10
-35.5002
 20
9.82564
 11
-35.7808
 21
9.67137
  0
LINE
  8
0
 10
-35.7808
 20
9.67137
 11
-36.0786
 21
9.55348
  0
LINE
  8
0
 10
-36.0786
 20
9.55348
 11
-36.3887
 21
9.47385
  0
LINE
  8
0
 10
-36.3887
 20
9.47385
 11
-36.7065
 21
9.4337
  0
LINE
  8
0
 10
-36.7065
 20
9.4337
 11
-37.0267
 21
9.4337
  0
LINE
  8
0
 10
36.7065
 20
9.4337
 11
36.3887
 21
9.47385
  0
LINE
  8
0
 10
36.3887
 20
9.47385
 11
36.0786
 21
9.55348
  0
LINE
  8
0
 10
36.0786
 20
9.55348
 11
35.7808
 21
9.67137
  0
LINE
  8
0
 10
35.7808
 20
9.67137
 11
35.5002
 21
9.82564
  0
LINE
  8
0
 10
35.5002
 20
9.82564
 11
35.2411
 21
10.0139
  0
LINE
  8
0
 10
35.2411
 20
10.0139
 11
35.0077
 21
10.2331
  0
LINE
  8
0
 10
35.0077
 20
10.2331
 11
34.8036
 21
10.4798
  0
LINE
  8
0
 10
34.8036
 20
10.4798
 11
34.632
 21
10.7502
  0
LINE
  8
0
 10
34.632
 20
10.7502
 11
34.4956
 21
11.0399
  0
LINE
  8
0
 10
34.4956
 20
11.0399
 11
34.3967
 21
11.3445
  0
LINE
  8
0
 10
34.3967
 20
11.3445
 11
34.3367
 21
11.6591
  0
LINE
  8
0
 10
34.3367
 20
11.6591
 11
34.3166
 21
11.9787
  0
LINE
  8
0
 10
34.3166
 20
11.9787
 11
34.3367
 21
12.2983
  0
LINE
  8
0
 10
34.3367
 20
12.2983
 11
34.3967
 21
12.6128
  0
LINE
  8
0
 10
34.3967
 20
12.6128
 11
34.4956
 21
12.9174
  0
LINE
  8
0
 10
34.4956
 20
12.9174
 11
34.632
 21
13.2071
  0
LINE
  8
0
 10
34.632
 20
13.2071
 11
34.8036
 21
13.4775
  0
LINE
  8
0
 10
34.8036
 20
13.4775
 11
35.0077
 21
13.7243
  0
LINE
  8
0
 10
35.0077
 20
13.7243
 11
35.2411
 21
13.9435
  0
LINE
  8
0
 10
35.2411
 20
13.9435
 11
35.5002
 21
14.1317
  0
LINE
  8
0
 10
35.5002
 20
14.1317
 11
35.7808
 21
14.286
  0
LINE
  8
0
 10
35.7808
 20
14.286
 11
36.0786
 21
14.4039
  0
LINE
  8
0
 10
36.0786
 20
14.4039
 11
36.3887
 21
14.4835
  0
LINE
  8
0
 10
36.3887
 20
14.4835
 11
36.7065
 21
14.5236
  0
LINE
  8
0
 10
36.7065
 20
14.5236
 11
37.0267
 21
14.5236
  0
LINE
  8
0
 10
37.0267
 20
14.5236
 11
37.3444
 21
14.4835
  0
LINE
  8
0
 10
37.3444
 20
14.4835
 11
37.6546
 21
14.4039
  0
LINE
  8
0
 10
37.6546
 20
14.4039
 11
37.9523
 21
14.286
  0
LINE
  8
0
 10
37.9523
 20
14.286
 11
38.2329
 21
14.1317
  0
LINE
  8
0
 10
38.2329
 20
14.1317
 11
38.492
 21
13.9435
  0
LINE
  8
0
 10
38.492
 20
13.9435
 11
38.7254
 21
13.7242
  0
LINE
  8
0
 10
38.7254
 20
13.7242
 11
38.9296
 21
13.4775
  0
LINE
  8
0
 10
38.9296
 20
13.4775
 11
39.1012
 21
13.2071
  0
LINE
  8
0
 10
39.1012
 20
13.2071
 11
39.2375
 21
12.9174
  0
LINE
  8
0
 10
39.2375
 20
12.9174
 11
39.3365
 21
12.6128
  0
LINE
  8
0
 10
39.3365
 20
12.6128
 11
39.3965
 21
12.2983
  0
LINE
  8
0
 10
39.3965
 20
12.2983
 11
39.4166
 21
11.9787
  0
LINE
  8
0
 10
39.4166
 20
11.9787
 11
39.3965
 21
11.6591
  0
LINE
  8
0
 10
39.3965
 20
11.6591
 11
39.3365
 21
11.3445
  0
LINE
  8
0
 10
39.3365
 20
11.3445
 11
39.2375
 21
11.0399
  0
LINE
  8
0
 10
39.2375
 20
11.0399
 11
39.1012
 21
10.7502
  0
LINE
  8
0
 10
39.1012
 20
10.7502
 11
38.9296
 21
10.4798
  0
LINE
  8
0
 10
38.9296
 20
10.4798
 11
38.7254
 21
10.2331
  0
LINE
  8
0
 10
38.7254
 20
10.2331
 11
38.492
 21
10.0139
  0
LINE
  8
0
 10
38.492
 20
10.0139
 11
38.2329
 21
9.82564
  0
LINE
  8
0
 10
38.2329
 20
9.82564
 11
37.9523
 21
9.67136
  0
LINE
  8
0
 10
37.9523
 20
9.67136
 11
37.6546
 21
9.55348
  0
LINE
  8
0
 10
37.6546
 20
9.55348
 11
37.3444
 21
9.47383
  0
LINE
  8
0
 10
37.3444
 20
9.47383
 11
37.0267
 21
9.4337
  0
LINE
  8
0
 10
37.0267
 20
9.4337
 11
36.7065
 21
9.4337
  0
LINE
  8
0
 10
-22.9449
 20
-33.9055
 11
-23.2626
 21
-33.8654
  0
LINE
  8
0
 10
-23.2626
 20
-33.8654
 11
-23.5728
 21
-33.7858
  0
LINE
  8
0
 10
-23.5728
 20
-33.7858
 11
-23.8705
 21
-33.6679
  0
LINE
  8
0
 10
-23.8705
 20
-33.6679
 11
-24.1512
 21
-33.5136
  0
LINE
  8
0
 10
-24.1512
 20
-33.5136
 11
-24.4102
 21
-33.3254
  0
LINE
  8
0
 10
-24.4102
 20
-33.3254
 11
-24.6436
 21
-33.1062
  0
LINE
  8
0
 10
-24.6436
 20
-33.1062
 11
-24.8478
 21
-32.8594
  0
LINE
  8
0
 10
-24.8478
 20
-32.8594
 11
-25.0194
 21
-32.5891
  0
LINE
  8
0
 10
-25.0194
 20
-32.5891
 11
-25.1557
 21
-32.2993
  0
LINE
  8
0
 10
-25.1557
 20
-32.2993
 11
-25.2547
 21
-31.9947
  0
LINE
  8
0
 10
-25.2547
 20
-31.9947
 11
-25.3147
 21
-31.6802
  0
LINE
  8
0
 10
-25.3147
 20
-31.6802
 11
-25.3348
 21
-31.3606
  0
LINE
  8
0
 10
-25.3348
 20
-31.3606
 11
-25.3147
 21
-31.041
  0
LINE
  8
0
 10
-25.3147
 20
-31.041
 11
-25.2547
 21
-30.7264
  0
LINE
  8
0
 10
-25.2547
 20
-30.7264
 11
-25.1557
 21
-30.4219
  0
LINE
  8
0
 10
-25.1557
 20
-30.4219
 11
-25.0194
 21
-30.1321
  0
LINE
  8
0
 10
-25.0194
 20
-30.1321
 11
-24.8478
 21
-29.8617
  0
LINE
  8
0
 10
-24.8478
 20
-29.8617
 11
-24.6437
 21
-29.615
  0
LINE
  8
0
 10
-24.6437
 20
-29.615
 11
-24.4102
 21
-29.3958
  0
LINE
  8
0
 10
-24.4102
 20
-29.3958
 11
-24.1512
 21
-29.2076
  0
LINE
  8
0
 10
-24.1512
 20
-29.2076
 11
-23.8705
 21
-29.0533
  0
LINE
  8
0
 10
-23.8705
 20
-29.0533
 11
-23.5728
 21
-28.9354
  0
LINE
  8
0
 10
-23.5728
 20
-28.9354
 11
-23.2626
 21
-28.8557
  0
LINE
  8
0
 10
-23.2626
 20
-28.8557
 11
-22.9449
 21
-28.8156
  0
LINE
  8
0
 10
-22.9449
 20
-28.8156
 11
-22.6247
 21
-28.8156
  0
LINE
  8
0
 10
-22.6247
 20
-28.8156
 11
-22.307
 21
-28.8558
  0
LINE
  8
0
 10
-22.307
 20
-28.8558
 11
-21.9968
 21
-28.9354
  0
LINE
  8
0
 10
-21.9968
 20
-28.9354
 11
-21.6991
 21
-29.0533
  0
LINE
  8
0
 10
-21.6991
 20
-29.0533
 11
-21.4184
 21
-29.2075
  0
LINE
  8
0
 10
-21.4184
 20
-29.2075
 11
-21.1594
 21
-29.3958
  0
LINE
  8
0
 10
-21.1594
 20
-29.3958
 11
-20.9259
 21
-29.615
  0
LINE
  8
0
 10
-20.9259
 20
-29.615
 11
-20.7218
 21
-29.8617
  0
LINE
  8
0
 10
-20.7218
 20
-29.8617
 11
-20.5502
 21
-30.1321
  0
LINE
  8
0
 10
-20.5502
 20
-30.1321
 11
-20.4139
 21
-30.4218
  0
LINE
  8
0
 10
-20.4139
 20
-30.4218
 11
-20.3149
 21
-30.7264
  0
LINE
  8
0
 10
-20.3149
 20
-30.7264
 11
-20.2549
 21
-31.041
  0
LINE
  8
0
 10
-20.2549
 20
-31.041
 11
-20.2348
 21
-31.3606
  0
LINE
  8
0
 10
-20.2348
 20
-31.3606
 11
-20.2549
 21
-31.6802
  0
LINE
  8
0
 10
-20.2549
 20
-31.6802
 11
-20.3149
 21
-31.9947
  0
LINE
  8
0
 10
-20.3149
 20
-31.9947
 11
-20.4139
 21
-32.2993
  0
LINE
  8
0
 10
-20.4139
 20
-32.2993
 11
-20.5502
 21
-32.5891
  0
LINE
  8
0
 10
-20.5502
 20
-32.5891
 11
-20.7218
 21
-32.8594
  0
LINE
  8
0
 10
-20.7218
 20
-32.8594
 11
-20.9259
 21
-33.1062
  0
LINE
  8
0
 10
-20.9259
 20
-33.1062
 11
-21.1594
 21
-33.3254
  0
LINE
  8
0
 10
-21.1594
 20
-33.3254
 11
-21.4184
 21
-33.5136
  0
LINE
  8
0
 10
-21.4184
 20
-33.5136
 11
-21.6991
 21
-33.6679
  0
LINE
  8
0
 10
-21.6991
 20
-33.6679
 11
-21.9968
 21
-33.7858
  0
LINE
  8
0
 10
-21.9968
 20
-33.7858
 11
-22.307
 21
-33.8654
  0
LINE
  8
0
 10
-22.307
 20
-33.8654
 11
-22.6247
 21
-33.9055
  0
LINE
  8
0
 10
-22.6247
 20
-33.9055
 11
-22.9449
 21
-33.9055
  0
LINE
  8
0
 10
22.6247
 20
-33.9055
 11
22.307
 21
-33.8654
  0
LINE
  8
0
 10
22.307
 20
-33.8654
 11
21.9968
 21
-33.7858
  0
LINE
  8
0
 10
21.9968
 20
-33.7858
 11
21.6991
 21
-33.6679
  0
LINE
  8
0
 10
21.6991
 20
-33.6679
 11
21.4184
 21
-33.5136
  0
LINE
  8
0
 10
21.4184
 20
-33.5136
 11
21.1594
 21
-33.3254
  0
LINE
  8
0
 10
21.1594
 20
-33.3254
 11
20.9259
 21
-33.1062
  0
LINE
  8
0
 10
20.9259
 20
-33.1062
 11
20.7218
 21
-32.8594
  0
LINE
  8
0
 10
20.7218
 20
-32.8594
 11
20.5502
 21
-32.5891
  0
LINE
  8
0
 10
20.5502
 20
-32.5891
 11
20.4139
 21
-32.2993
  0
LINE
  8
0
 10
20.4139
 20
-32.2993
 11
20.3149
 21
-31.9947
  0
LINE
  8
0
 10
20.3149
 20
-31.9947
 11
20.2549
 21
-31.6802
  0
LINE
  8
0
 10
20.2549
 20
-31.6802
 11
20.2348
 21
-31.3606
  0
LINE
  8
0
 10
20.2348
 20
-31.3606
 11
20.2549
 21
-31.041
  0
LINE
  8
0
 10
20.2549
 20
-31.041
 11
20.3149
 21
-30.7264
  0
LINE
  8
0
 10
20.3149
 20
-30.7264
 11
20.4139
 21
-30.4218
  0
LINE
  8
0
 10
20.4139
 20
-30.4218
 11
20.5502
 21
-30.1321
  0
LINE
  8
0
 10
20.5502
 20
-30.1321
 11
20.7218
 21
-29.8617
  0
LINE
  8
0
 10
20.7218
 20
-29.8617
 11
20.9259
 21
-29.615
  0
LINE
  8
0
 10
20.9259
 20
-29.615
 11
21.1594
 21
-29.3958
  0
LINE
  8
0
 10
21.1594
 20
-29.3958
 11
21.4184
 21
-29.2075
  0
LINE
  8
0
 10
21.4184
 20
-29.2075
 11
21.6991
 21
-29.0533
  0
LINE
  8
0
 10
21.6991
 20
-29.0533
 11
21.9968
 21
-28.9354
  0
LINE
  8
0
 10
21.9968
 20
-28.9354
 11
22.307
 21
-28.8558
  0
LINE
  8
0
 10
22.307
 20
-28.8558
 11
22.6247
 21
-28.8156
  0
LINE
  8
0
 10
22.6247
 20
-28.8156
 11
22.9449
 21
-28.8156
  0
LINE
  8
0
 10
22.9449
 20
-28.8156
 11
23.2626
 21
-28.8557
  0
LINE
  8
0
 10
23.2626
 20
-28.8557
 11
23.5728
 21
-28.9354
  0
LINE
  8
0
 10
23.5728
 20
-28.9354
 11
23.8705
 21
-29.0533
  0
LINE
  8
0
 10
23.8705
 20
-29.0533
 11
24.1512
 21
-29.2076
  0
LINE
  8
0
 10
24.1512
 20
-29.2076
 11
24.4102
 21
-29.3958
  0
LINE
  8
0
 10
24.4102
 20
-29.3958
 11
24.6437
 21
-29.615
  0
LINE
  8
0
 10
24.6437
 20
-29.615
 11
24.8478
 21
-29.8617
  0
LINE
  8
0
 10
24.8478
 20
-29.8617
 11
25.0194
 21
-30.1321
  0
LINE
  8
0
 10
25.0194
 20
-30.1321
 11
25.1557
 21
-30.4219
  0
LINE
  8
0
 10
25.1557
 20
-30.4219
 11
25.2547
 21
-30.7264
  0
LINE
  8
0
 10
25.2547
 20
-30.7264
 11
25.3147
 21
-31.041
  0
LINE
  8
0
 10
25.3147
 20
-31.041
 11
25.3348
 21
-31.3606
  0
LINE
  8
0
 10
25.3348
 20
-31.3606
 11
25.3147
 21
-31.6802
  0
LINE
  8
0
 10
25.3147
 20
-31.6802
 11
25.2547
 21
-31.9947
  0
LINE
  8
0
 10
25.2547
 20
-31.9947
 11
25.1557
 21
-32.2993
  0
LINE
  8
0
 10
25.1557
 20
-32.2993
 11
25.0194
 21
-32.5891
  0
LINE
  8
0
 10
25.0194
 20
-32.5891
 11
24.8478
 21
-32.8594
  0
LINE
  8
0
 10
24.8478
 20
-32.8594
 11
24.6436
 21
-33.1062
  0
LINE
  8
0
 10
24.6436
 20
-33.1062
 11
24.4102
 21
-33.3254
  0
LINE
  8
0
 10
24.4102
 20
-33.3254
 11
24.1512
 21
-33.5136
  0
LINE
  8
0
 10
24.1512
 20
-33.5136
 11
23.8705
 21
-33.6679
  0
LINE
  8
0
 10
23.8705
 20
-33.6679
 11
23.5728
 21
-33.7858
  0
LINE
  8
0
 10
23.5728
 20
-33.7858
 11
23.2626
 21
-33.8654
  0
LINE
  8
0
 10
23.2626
 20
-33.8654
 11
22.9449
 21
-33.9055
  0
LINE
  8
0
 10
22.9449
 20
-33.9055
 11
22.6247
 21
-33.9055
  0
LINE
  8
0
 10
-37.6395
 20
-54.131
 11
-37.9572
 21
-54.0908
  0
LINE
  8
0
 10
-37.9572
 20
-54.0908
 11
-38.2674
 21
-54.0112
  0
LINE
  8
0
 10
-38.2674
 20
-54.0112
 11
-38.5652
 21
-53.8933
  0
LINE
  8
0
 10
-38.5652
 20
-53.8933
 11
-38.8458
 21
-53.739
  0
LINE
  8
0
 10
-38.8458
 20
-53.739
 11
-39.1049
 21
-53.5508
  0
LINE
  8
0
 10
-39.1049
 20
-53.5508
 11
-39.3383
 21
-53.3316
  0
LINE
  8
0
 10
-39.3383
 20
-53.3316
 11
-39.5424
 21
-53.0849
  0
LINE
  8
0
 10
-39.5424
 20
-53.0849
 11
-39.714
 21
-52.8145
  0
LINE
  8
0
 10
-39.714
 20
-52.8145
 11
-39.8503
 21
-52.5247
  0
LINE
  8
0
 10
-39.8503
 20
-52.5247
 11
-39.9493
 21
-52.2202
  0
LINE
  8
0
 10
-39.9493
 20
-52.2202
 11
-40.0093
 21
-51.9056
  0
LINE
  8
0
 10
-40.0093
 20
-51.9056
 11
-40.0294
 21
-51.586
  0
LINE
  8
0
 10
-40.0294
 20
-51.586
 11
-40.0093
 21
-51.2664
  0
LINE
  8
0
 10
-40.0093
 20
-51.2664
 11
-39.9493
 21
-50.9518
  0
LINE
  8
0
 10
-39.9493
 20
-50.9518
 11
-39.8503
 21
-50.6473
  0
LINE
  8
0
 10
-39.8503
 20
-50.6473
 11
-39.714
 21
-50.3575
  0
LINE
  8
0
 10
-39.714
 20
-50.3575
 11
-39.5424
 21
-50.0872
  0
LINE
  8
0
 10
-39.5424
 20
-50.0872
 11
-39.3383
 21
-49.8404
  0
LINE
  8
0
 10
-39.3383
 20
-49.8404
 11
-39.1048
 21
-49.6212
  0
LINE
  8
0
 10
-39.1048
 20
-49.6212
 11
-38.8458
 21
-49.433
  0
LINE
  8
0
 10
-38.8458
 20
-49.433
 11
-38.5651
 21
-49.2787
  0
LINE
  8
0
 10
-38.5651
 20
-49.2787
 11
-38.2674
 21
-49.1608
  0
LINE
  8
0
 10
-38.2674
 20
-49.1608
 11
-37.9572
 21
-49.0812
  0
LINE
  8
0
 10
-37.9572
 20
-49.0812
 11
-37.6395
 21
-49.041
  0
LINE
  8
0
 10
-37.6395
 20
-49.041
 11
-37.3193
 21
-49.041
  0
LINE
  8
0
 10
-37.3193
 20
-49.041
 11
-37.0016
 21
-49.0812
  0
LINE
  8
0
 10
-37.0016
 20
-49.0812
 11
-36.6914
 21
-49.1608
  0
LINE
  8
0
 10
-36.6914
 20
-49.1608
 11
-36.3937
 21
-49.2787
  0
LINE
  8
0
 10
-36.3937
 20
-49.2787
 11
-36.1131
 21
-49.433
  0
LINE
  8
0
 10
-36.1131
 20
-49.433
 11
-35.854
 21
-49.6212
  0
LINE
  8
0
 10
-35.854
 20
-49.6212
 11
-35.6206
 21
-49.8404
  0
LINE
  8
0
 10
-35.6206
 20
-49.8404
 11
-35.4164
 21
-50.0871
  0
LINE
  8
0
 10
-35.4164
 20
-50.0871
 11
-35.2449
 21
-50.3575
  0
LINE
  8
0
 10
-35.2449
 20
-50.3575
 11
-35.1085
 21
-50.6473
  0
LINE
  8
0
 10
-35.1085
 20
-50.6473
 11
-35.0095
 21
-50.9518
  0
LINE
  8
0
 10
-35.0095
 20
-50.9518
 11
-34.9495
 21
-51.2664
  0
LINE
  8
0
 10
-34.9495
 20
-51.2664
 11
-34.9294
 21
-51.586
  0
LINE
  8
0
 10
-34.9294
 20
-51.586
 11
-34.9495
 21
-51.9056
  0
LINE
  8
0
 10
-34.9495
 20
-51.9056
 11
-35.0095
 21
-52.2202
  0
LINE
  8
0
 10
-35.0095
 20
-52.2202
 11
-35.1085
 21
-52.5247
  0
LINE
  8
0
 10
-35.1085
 20
-52.5247
 11
-35.2448
 21
-52.8145
  0
LINE
  8
0
 10
-35.2448
 20
-52.8145
 11
-35.4164
 21
-53.0849
  0
LINE
  8
0
 10
-35.4164
 20
-53.0849
 11
-35.6206
 21
-53.3316
  0
LINE
  8
0
 10
-35.6206
 20
-53.3316
 11
-35.854
 21
-53.5508
  0
LINE
  8
0
 10
-35.854
 20
-53.5508
 11
-36.1131
 21
-53.739
  0
LINE
  8
0
 10
-36.1131
 20
-53.739
 11
-36.3937
 21
-53.8933
  0
LINE
  8
0
 10
-36.3937
 20
-53.8933
 11
-36.6914
 21
-54.0112
  0
LINE
  8
0
 10
-36.6914
 20
-54.0112
 11
-37.0016
 21
-54.0908
  0
LINE
  8
0
 10
-37.0016
 20
-54.0908
 11
-37.3193
 21
-54.131
  0
LINE
  8
0
 10
-37.3193
 20
-54.131
 11
-37.6395
 21
-54.131
  0
LINE
  8
0
 10
37.3193
 20
-54.131
 11
37.0016
 21
-54.0908
  0
LINE
  8
0
 10
37.0016
 20
-54.0908
 11
36.6914
 21
-54.0112
  0
LINE
  8
0
 10
36.6914
 20
-54.0112
 11
36.3937
 21
-53.8933
  0
LINE
  8
0
 10
36.3937
 20
-53.8933
 11
36.1131
 21
-53.739
  0
LINE
  8
0
 10
36.1131
 20
-53.739
 11
35.854
 21
-53.5508
  0
LINE
  8
0
 10
35.854
 20
-53.5508
 11
35.6206
 21
-53.3316
  0
LINE
  8
0
 10
35.6206
 20
-53.3316
 11
35.4164
 21
-53.0849
  0
LINE
  8
0
 10
35.4164
 20
-53.0849
 11
35.2448
 21
-52.8145
  0
LINE
  8
0
 10
35.2448
 20
-52.8145
 11
35.1085
 21
-52.5247
  0
LINE
  8
0
 10
35.1085
 20
-52.5247
 11
35.0095
 21
-52.2202
  0
LINE
  8
0
 10
35.0095
 20
-52.2202
 11
34.9495
 21
-51.9056
  0
LINE
  8
0
 10
34.9495
 20
-51.9056
 11
34.9294
 21
-51.586
  0
LINE
  8
0
 10
34.9294
 20
-51.586
 11
34.9495
 21
-51.2664
  0
LINE
  8
0
 10
34.9495
 20
-51.2664
 11
35.0095
 21
-50.9518
  0
LINE
  8
0
 10
35.0095
 20
-50.9518
 11
35.1085
 21
-50.6473
  0
LINE
  8
0
 10
35.1085
 20
-50.6473
 11
35.2449
 21
-50.3575
  0
LINE
  8
0
 10
35.2449
 20
-50.3575
 11
35.4164
 21
-50.0871
  0
LINE
  8
0
 10
35.4164
 20
-50.0871
 11
35.6206
 21
-49.8404
  0
LINE
  8
0
 10
35.6206
 20
-49.8404
 11
35.854
 21
-49.6212
  0
LINE
  8
0
 10
35.854
 20
-49.6212
 11
36.1131
 21
-49.433
  0
LINE
  8
0
 10
36.1131
 20
-49.433
 11
36.3937
 21
-49.2787
  0
LINE
  8
0
 10
36.3937
 20
-49.2787
 11
36.6914
 21
-49.1608
  0
LINE
  8
0
 10
36.6914
 20
-49.1608
 11
37.0016
 21
-49.0812
  0
LINE
  8
0
 10
37.0016
 20
-49.0812
 11
37.3193
 21
-49.041
  0
LINE
  8
0
 10
37.3193
 20
-49.041
 11
37.6395
 21
-49.041
  0
LINE
  8
0
 10
37.6395
 20
-49.041
 11
37.9572
 21
-49.0812
  0
LINE
  8
0
 10
37.9572
 20
-49.0812
 11
38.2674
 21
-49.1608
  0
LINE
  8
0
 10
38.2674
 20
-49.1608
 11
38.5651
 21
-49.2787
  0
LINE
  8
0
 10
38.5651
 20
-49.2787
 11
38.8458
 21
-49.433
  0
LINE
  8
0
 10
38.8458
 20
-49.433
 11
39.1048
 21
-49.6212
  0
LINE
  8
0
 10
39.1048
 20
-49.6212
 11
39.3383
 21
-49.8404
  0
LINE
  8
0
 10
39.3383
 20
-49.8404
 11
39.5424
 21
-50.0872
  0
LINE
  8
0
 10
39.5424
 20
-50.0872
 11
39.714
 21
-50.3575
  0
LINE
  8
0
 10
39.714
 20
-50.3575
 11
39.8503
 21
-50.6473
  0
LINE
  8
0
 10
39.8503
 20
-50.6473
 11
39.9493
 21
-50.9518
  0
LINE
  8
0
 10
39.9493
 20
-50.9518
 11
40.0093
 21
-51.2664
  0
LINE
  8
0
 10
40.0093
 20
-51.2664
 11
40.0294
 21
-51.586
  0
LINE
  8
0
 10
40.0294
 20
-51.586
 11
40.0093
 21
-51.9056
  0
LINE
  8
0
 10
40.0093
 20
-51.9056
 11
39.9493
 21
-52.2202
  0
LINE
  8
0
 10
39.9493
 20
-52.2202
 11
39.8503
 21
-52.5247
  0
LINE
  8
0
 10
39.8503
 20
-52.5247
 11
39.714
 21
-52.8145
  0
LINE
  8
0
 10
39.714
 20
-52.8145
 11
39.5424
 21
-53.0849
  0
LINE
  8
0
 10
39.5424
 20
-53.0849
 11
39.3383
 21
-53.3316
  0
LINE
  8
0
 10
39.3383
 20
-53.3316
 11
39.1049
 21
-53.5508
  0
LINE
  8
0
 10
39.1049
 20
-53.5508
 11
38.8458
 21
-53.739
  0
LINE
  8
0
 10
38.8458
 20
-53.739
 11
38.5652
 21
-53.8933
  0
LINE
  8
0
 10
38.5652
 20
-53.8933
 11
38.2674
 21
-54.0112
  0
LINE
  8
0
 10
38.2674
 20
-54.0112
 11
37.9572
 21
-54.0908
  0
LINE
  8
0
 10
37.9572
 20
-54.0908
 11
37.6395
 21
-54.131
  0
LINE
  8
0
 10
37.6395
 20
-54.131
 11
37.3193
 21
-54.131
  0
ENDSEC
  0
SECTION
  2
OBJECTS
  0
DICTIONARY
  0
ENDSEC
  0
EOF
