<?xml version="1.0" standalone="no"?>
<!DOCTYPE svg PUBLIC "-//W3C//DTD SVG 1.1//EN" "http://www.w3.org/Graphics/SVG/1.1/DTD/svg11.dtd">
<svg width="242mm" height="231mm" viewBox="-121 -124 242 231" xmlns="http://www.w3.org/2000/svg" version="1.1">
<title>OpenSCAD Model</title>
<path d="
M 80.8367,94.2492 L 22.0862,13.386 L 21.67,12.7451 L 21.3231,12.0643 L 21.0493,11.351 L 20.8515,10.6129
 L 20.732,9.8582 L 20.692,9.09512 L 20.732,8.33208 L 20.8515,7.57738 L 21.0493,6.83931 L 21.3231,6.12598
 L 21.67,5.44514 L 22.0861,4.80432 L 22.567,4.21048 L 23.1073,3.67018 L 23.7011,3.18933 L 24.342,2.77316
 L 25.0228,2.42627 L 25.7359,2.15253 L 120.797,-28.7345 L 114.616,-47.7557 L 19.5558,-16.8687 L 18.8177,-16.6709
 L 18.063,-16.5514 L 17.3,-16.5114 L 16.5369,-16.5514 L 15.7822,-16.6709 L 15.0442,-16.8687 L 14.3308,-17.1425
 L 13.65,-17.4894 L 13.0092,-17.9056 L 12.4153,-18.3864 L 11.875,-18.9267 L 11.3942,-19.5206 L 10.978,-20.1614
 L 10.6311,-20.8422 L 10.3573,-21.5556 L 10.1595,-22.2936 L 10.04,-23.0483 L 10,-23.8111 L 10,-123.764
 L -9.99998,-123.764 L -10,-23.8111 L -10.04,-23.0483 L -10.1595,-22.2936 L -10.3573,-21.5556 L -10.6311,-20.8422
 L -10.978,-20.1614 L -11.3942,-19.5206 L -11.875,-18.9267 L -12.4153,-18.3864 L -13.0092,-17.9056 L -13.65,-17.4894
 L -14.3308,-17.1425 L -15.0442,-16.8687 L -15.7822,-16.6709 L -16.5369,-16.5514 L -17.3,-16.5114 L -18.063,-16.5514
 L -18.8177,-16.6709 L -19.5558,-16.8687 L -114.616,-47.7557 L -120.797,-28.7345 L -25.7359,2.15253 L -25.0228,2.42627
 L -24.342,2.77316 L -23.7011,3.18933 L -23.1073,3.67018 L -22.567,4.21048 L -22.0861,4.80432 L -21.67,5.44514
 L -21.3231,6.12598 L -21.0493,6.83931 L -20.8515,7.57738 L -20.732,8.33208 L -20.692,9.09512 L -20.732,9.8582
 L -20.8515,10.6129 L -21.0493,11.351 L -21.3231,12.0643 L -21.67,12.7451 L -22.0862,13.386 L -80.8367,94.2492
 L -64.6564,106.005 L -5.90582,25.1417 L -5.42494,24.5479 L -4.88464,24.0076 L -4.29082,23.5267 L -3.64999,23.1105
 L -2.96918,22.7636 L -2.25581,22.4898 L -1.51775,22.292 L -0.763046,22.1725 L 0,22.1325 L 0.763031,22.1725
 L 1.51773,22.292 L 2.2558,22.4898 L 2.96916,22.7636 L 3.64998,23.1105 L 4.2908,23.5267 L 4.88463,24.0076
 L 5.42493,24.5479 L 5.90582,25.1417 L 64.6564,106.005 z
M -0.156952,-111.269 L -0.46843,-111.308 L -0.772522,-111.386 L -1.06442,-111.502 L -1.33954,-111.653 L -1.59354,-111.838
 L -1.8224,-112.052 L -2.02252,-112.294 L -2.19075,-112.559 L -2.32442,-112.844 L -2.42143,-113.142 L -2.48027,-113.45
 L -2.49998,-113.764 L -2.48027,-114.077 L -2.42143,-114.386 L -2.32442,-114.684 L -2.19075,-114.968 L -2.02252,-115.233
 L -1.8224,-115.475 L -1.59354,-115.69 L -1.33954,-115.875 L -1.06442,-116.026 L -0.772522,-116.141 L -0.46843,-116.22
 L -0.156952,-116.259 L 0.156967,-116.259 L 0.468445,-116.22 L 0.772537,-116.141 L 1.06444,-116.026 L 1.33955,-115.875
 L 1.59355,-115.69 L 1.82242,-115.475 L 2.02254,-115.233 L 2.19077,-114.968 L 2.32443,-114.684 L 2.42145,-114.386
 L 2.48029,-114.077 L 2.5,-113.764 L 2.48029,-113.45 L 2.42145,-113.142 L 2.32443,-112.844 L 2.19077,-112.559
 L 2.02254,-112.294 L 1.82242,-112.052 L 1.59355,-111.838 L 1.33955,-111.653 L 1.06444,-111.502 L 0.772537,-111.386
 L 0.468445,-111.308 L 0.156967,-111.269 z
M -0.156952,-81.2687 L -0.46843,-81.3081 L -0.772522,-81.3862 L -1.06442,-81.5017 L -1.33954,-81.653 L -1.59354,-81.8375
 L -1.8224,-82.0524 L -2.02252,-82.2943 L -2.19075,-82.5594 L -2.32442,-82.8435 L -2.42143,-83.1421 L -2.48027,-83.4505
 L -2.49998,-83.7638 L -2.48027,-84.0771 L -2.42143,-84.3855 L -2.32442,-84.6841 L -2.19075,-84.9682 L -2.02252,-85.2333
 L -1.8224,-85.4752 L -1.59354,-85.6901 L -1.33954,-85.8746 L -1.06442,-86.0259 L -0.772522,-86.1414 L -0.46843,-86.2195
 L -0.156952,-86.2589 L 0.156967,-86.2589 L 0.468445,-86.2195 L 0.772537,-86.1414 L 1.06444,-86.0259 L 1.33955,-85.8746
 L 1.59355,-85.6901 L 1.82242,-85.4752 L 2.02254,-85.2333 L 2.19077,-84.9682 L 2.32443,-84.6841 L 2.42145,-84.3855
 L 2.48029,-84.0771 L 2.5,-83.7638 L 2.48029,-83.4505 L 2.42145,-83.1421 L 2.32443,-82.8435 L 2.19077,-82.5594
 L 2.02254,-82.2943 L 1.82242,-82.0524 L 1.59355,-81.8375 L 1.33955,-81.653 L 1.06444,-81.5017 L 0.772537,-81.3862
 L 0.468445,-81.3081 L 0.156967,-81.2687 z
M -0.156952,-61.2687 L -0.46843,-61.3081 L -0.772522,-61.3862 L -1.06442,-61.5017 L -1.33954,-61.653 L -1.59354,-61.8375
 L -1.8224,-62.0524 L -2.02252,-62.2943 L -2.19075,-62.5594 L -2.32442,-62.8435 L -2.42143,-63.1421 L -2.48027,-63.4505
 L -2.49998,-63.7638 L -2.48027,-64.0771 L -2.42143,-64.3855 L -2.32442,-64.6841 L -2.19075,-64.9682 L -2.02252,-65.2333
 L -1.8224,-65.4752 L -1.59354,-65.6901 L -1.33954,-65.8746 L -1.06442,-66.0259 L -0.772522,-66.1414 L -0.46843,-66.2195
 L -0.156952,-66.2589 L 0.156967,-66.2589 L 0.468445,-66.2195 L 0.772537,-66.1414 L 1.06444,-66.0259 L 1.33955,-65.8746
 L 1.59355,-65.6901 L 1.82242,-65.4752 L 2.02254,-65.2333 L 2.19077,-64.9682 L 2.32443,-64.6841 L 2.42145,-64.3855
 L 2.48029,-64.0771 L 2.5,-63.7638 L 2.48029,-63.4505 L 2.42145,-63.1421 L 2.32443,-62.8435 L 2.19077,-62.5594
 L 2.02254,-62.2943 L 1.82242,-62.0524 L 1.59355,-61.8375 L 1.33955,-61.653 L 1.06444,-61.5017 L 0.772537,-61.3862
 L 0.468445,-61.3081 L 0.156967,-61.2687 z
M 108.039,-32.6599 L 107.727,-32.6992 L 107.423,-32.7773 L 107.131,-32.8929 L 106.856,-33.0441 L 106.602,-33.2287
 L 106.373,-33.4436 L 106.173,-33.6855 L 106.005,-33.9506 L 105.871,-34.2346 L 105.774,-34.5332 L 105.716,-34.8416
 L 105.696,-35.1549 L 105.716,-35.4683 L 105.774,-35.7767 L 105.871,-36.0752 L 106.005,-36.3593 L 106.173,-36.6244
 L 106.373,-36.8663 L 106.602,-37.0812 L 106.856,-37.2657 L 107.131,-37.417 L 107.423,-37.5326 L 107.727,-37.6107
 L 108.039,-37.65 L 108.353,-37.65 L 108.664,-37.6107 L 108.968,-37.5326 L 109.26,-37.417 L 109.535,-37.2658
 L 109.789,-37.0812 L 110.018,-36.8663 L 110.218,-36.6244 L 110.387,-36.3593 L 110.52,-36.0752 L 110.617,-35.7767
 L 110.676,-35.4683 L 110.696,-35.155 L 110.676,-34.8416 L 110.617,-34.5332 L 110.52,-34.2346 L 110.387,-33.9506
 L 110.218,-33.6855 L 110.018,-33.4436 L 109.789,-33.2287 L 109.535,-33.0441 L 109.26,-32.8929 L 108.968,-32.7773
 L 108.664,-32.6992 L 108.353,-32.6599 z
M -108.353,-32.6599 L -108.664,-32.6992 L -108.968,-32.7773 L -109.26,-32.8929 L -109.535,-33.0441 L -109.789,-33.2287
 L -110.018,-33.4436 L -110.218,-33.6855 L -110.387,-33.9506 L -110.52,-34.2346 L -110.617,-34.5332 L -110.676,-34.8416
 L -110.696,-35.155 L -110.676,-35.4683 L -110.617,-35.7767 L -110.52,-36.0752 L -110.387,-36.3593 L -110.218,-36.6244
 L -110.018,-36.8663 L -109.789,-37.0812 L -109.535,-37.2658 L -109.26,-37.417 L -108.968,-37.5326 L -108.664,-37.6107
 L -108.353,-37.65 L -108.039,-37.65 L -107.727,-37.6107 L -107.423,-37.5326 L -107.131,-37.417 L -106.856,-37.2657
 L -106.602,-37.0812 L -106.373,-36.8663 L -106.173,-36.6244 L -106.005,-36.3593 L -105.871,-36.0752 L -105.774,-35.7767
 L -105.716,-35.4683 L -105.696,-35.1549 L -105.716,-34.8416 L -105.774,-34.5332 L -105.871,-34.2346 L -106.005,-33.9506
 L -106.173,-33.6855 L -106.373,-33.4436 L -106.602,-33.2287 L -106.856,-33.0441 L -107.131,-32.8929 L -107.423,-32.7773
 L -107.727,-32.6992 L -108.039,-32.6599 z
M -0.156952,-31.2687 L -0.46843,-31.3081 L -0.772522,-31.3862 L -1.06442,-31.5017 L -1.33954,-31.653 L -1.59354,-31.8375
 L -1.8224,-32.0524 L -2.02252,-32.2943 L -2.19075,-32.5594 L -2.32442,-32.8435 L -2.42143,-33.1421 L -2.48027,-33.4505
 L -2.49998,-33.7638 L -2.48027,-34.0771 L -2.42143,-34.3855 L -2.32442,-34.6841 L -2.19075,-34.9682 L -2.02252,-35.2333
 L -1.8224,-35.4752 L -1.59354,-35.6901 L -1.33954,-35.8746 L -1.06442,-36.0259 L -0.772522,-36.1414 L -0.46843,-36.2195
 L -0.156952,-36.2589 L 0.156967,-36.2589 L 0.468445,-36.2195 L 0.772537,-36.1414 L 1.06444,-36.0259 L 1.33955,-35.8746
 L 1.59355,-35.6901 L 1.82242,-35.4752 L 2.02254,-35.2333 L 2.19077,-34.9682 L 2.32443,-34.6841 L 2.42145,-34.3855
 L 2.48029,-34.0771 L 2.5,-33.7638 L 2.48029,-33.4505 L 2.42145,-33.1421 L 2.32443,-32.8435 L 2.19077,-32.5594
 L 2.02254,-32.2943 L 1.82242,-32.0524 L 1.59355,-31.8375 L 1.33955,-31.653 L 1.06444,-31.5017 L 0.772537,-31.3862
 L 0.468445,-31.3081 L 0.156967,-31.2687 z
M -79.8211,-23.3894 L -80.1326,-23.4287 L -80.4366,-23.5068 L -80.7286,-23.6224 L -81.0037,-23.7736 L -81.2577,-23.9582
 L -81.4865,-24.1731 L -81.6867,-24.415 L -81.8549,-24.6801 L -81.9886,-24.9641 L -82.0856,-25.2627 L -82.1444,-25.5711
 L -82.1641,-25.8844 L -82.1444,-26.1978 L -82.0856,-26.5062 L -81.9886,-26.8047 L -81.8549,-27.0888 L -81.6866,-27.3539
 L -81.4865,-27.5958 L -81.2577,-27.8107 L -81.0037,-27.9952 L -80.7286,-28.1465 L -80.4367,-28.2621 L -80.1326,-28.3401
 L -79.8211,-28.3795 L -79.5071,-28.3795 L -79.1957,-28.3401 L -78.8916,-28.2621 L -78.5997,-28.1465 L -78.3246,-27.9952
 L -78.0706,-27.8107 L -77.8417,-27.5958 L -77.6416,-27.3539 L -77.4733,-27.0888 L -77.3397,-26.8047 L -77.2426,-26.5061
 L -77.1838,-26.1978 L -77.1641,-25.8844 L -77.1838,-25.5711 L -77.2426,-25.2627 L -77.3397,-24.9641 L -77.4733,-24.6801
 L -77.6416,-24.415 L -77.8417,-24.1731 L -78.0705,-23.9582 L -78.3245,-23.7736 L -78.5997,-23.6224 L -78.8916,-23.5068
 L -79.1957,-23.4287 L -79.5071,-23.3894 z
M 79.5071,-23.3894 L 79.1957,-23.4287 L 78.8916,-23.5068 L 78.5997,-23.6224 L 78.3245,-23.7736 L 78.0705,-23.9582
 L 77.8417,-24.1731 L 77.6416,-24.415 L 77.4733,-24.6801 L 77.3397,-24.9641 L 77.2426,-25.2627 L 77.1838,-25.5711
 L 77.1641,-25.8844 L 77.1838,-26.1978 L 77.2426,-26.5061 L 77.3397,-26.8047 L 77.4733,-27.0888 L 77.6416,-27.3539
 L 77.8417,-27.5958 L 78.0706,-27.8107 L 78.3246,-27.9952 L 78.5997,-28.1465 L 78.8916,-28.2621 L 79.1957,-28.3401
 L 79.5071,-28.3795 L 79.8211,-28.3795 L 80.1326,-28.3401 L 80.4367,-28.2621 L 80.7286,-28.1465 L 81.0037,-27.9952
 L 81.2577,-27.8107 L 81.4865,-27.5958 L 81.6866,-27.3539 L 81.8549,-27.0888 L 81.9886,-26.8047 L 82.0856,-26.5062
 L 82.1444,-26.1978 L 82.1641,-25.8844 L 82.1444,-25.5711 L 82.0856,-25.2627 L 81.9886,-24.9641 L 81.8549,-24.6801
 L 81.6867,-24.415 L 81.4865,-24.1731 L 81.2577,-23.9582 L 81.0037,-23.7736 L 80.7286,-23.6224 L 80.4366,-23.5068
 L 80.1326,-23.4287 L 79.8211,-23.3894 z
M -60.8,-17.209 L -61.1114,-17.2484 L -61.4155,-17.3264 L -61.7074,-17.442 L -61.9826,-17.5933 L -62.2365,-17.7778
 L -62.4654,-17.9927 L -62.6655,-18.2346 L -62.8337,-18.4997 L -62.9674,-18.7838 L -63.0644,-19.0824 L -63.1233,-19.3908
 L -63.143,-19.7041 L -63.1233,-20.0174 L -63.0644,-20.3258 L -62.9674,-20.6244 L -62.8338,-20.9085 L -62.6655,-21.1736
 L -62.4654,-21.4155 L -62.2365,-21.6304 L -61.9825,-21.8149 L -61.7074,-21.9662 L -61.4155,-22.0817 L -61.1114,-22.1598
 L -60.8,-22.1992 L -60.486,-22.1992 L -60.1745,-22.1598 L -59.8704,-22.0817 L -59.5785,-21.9662 L -59.3034,-21.8149
 L -59.0494,-21.6304 L -58.8206,-21.4155 L -58.6204,-21.1736 L -58.4522,-20.9085 L -58.3185,-20.6244 L -58.2215,-20.3258
 L -58.1627,-20.0174 L -58.143,-19.7041 L -58.1627,-19.3907 L -58.2215,-19.0824 L -58.3185,-18.7838 L -58.4522,-18.4997
 L -58.6204,-18.2346 L -58.8206,-17.9927 L -59.0494,-17.7778 L -59.3034,-17.5933 L -59.5785,-17.442 L -59.8704,-17.3265
 L -60.1745,-17.2484 L -60.486,-17.209 z
M 60.486,-17.209 L 60.1745,-17.2484 L 59.8704,-17.3265 L 59.5785,-17.442 L 59.3034,-17.5933 L 59.0494,-17.7778
 L 58.8206,-17.9927 L 58.6204,-18.2346 L 58.4522,-18.4997 L 58.3185,-18.7838 L 58.2215,-19.0824 L 58.1627,-19.3907
 L 58.143,-19.7041 L 58.1627,-20.0174 L 58.2215,-20.3258 L 58.3185,-20.6244 L 58.4522,-20.9085 L 58.6204,-21.1736
 L 58.8206,-21.4155 L 59.0494,-21.6304 L 59.3034,-21.8149 L 59.5785,-21.9662 L 59.8704,-22.0817 L 60.1745,-22.1598
 L 60.486,-22.1992 L 60.8,-22.1992 L 61.1114,-22.1598 L 61.4155,-22.0817 L 61.7074,-21.9662 L 61.9825,-21.8149
 L 62.2365,-21.6304 L 62.4654,-21.4155 L 62.6655,-21.1736 L 62.8338,-20.9085 L 62.9674,-20.6244 L 63.0644,-20.3258
 L 63.1233,-20.0174 L 63.143,-19.7041 L 63.1233,-19.3908 L 63.0644,-19.0824 L 62.9674,-18.7838 L 62.8337,-18.4997
 L 62.6655,-18.2346 L 62.4654,-17.9927 L 62.2365,-17.7778 L 61.9826,-17.5933 L 61.7074,-17.442 L 61.4155,-17.3264
 L 61.1114,-17.2484 L 60.8,-17.209 z
M 31.9543,-7.93852 L 31.6428,-7.97787 L 31.3387,-8.05594 L 31.0468,-8.17152 L 30.7717,-8.32277 L 30.5177,-8.50731
 L 30.2888,-8.72223 L 30.0887,-8.96413 L 29.9205,-9.2292 L 29.7868,-9.51328 L 29.6898,-9.81184 L 29.631,-10.1202
 L 29.6113,-10.4336 L 29.631,-10.7469 L 29.6898,-11.0553 L 29.7868,-11.3539 L 29.9205,-11.638 L 30.0887,-11.903
 L 30.2889,-12.145 L 30.5177,-12.3599 L 30.7717,-12.5444 L 31.0468,-12.6956 L 31.3387,-12.8112 L 31.6428,-12.8893
 L 31.9543,-12.9286 L 32.2683,-12.9286 L 32.5797,-12.8893 L 32.8838,-12.8112 L 33.1757,-12.6956 L 33.4509,-12.5444
 L 33.7048,-12.3598 L 33.9337,-12.1449 L 34.1338,-11.903 L 34.302,-11.638 L 34.4357,-11.3539 L 34.5327,-11.0553
 L 34.5916,-10.7469 L 34.6113,-10.4336 L 34.5916,-10.1203 L 34.5327,-9.81187 L 34.4357,-9.51328 L 34.302,-9.2292
 L 34.1338,-8.96413 L 33.9337,-8.72221 L 33.7048,-8.50731 L 33.4509,-8.32277 L 33.1757,-8.17152 L 32.8838,-8.05594
 L 32.5797,-7.97787 L 32.2683,-7.93852 z
M -32.2683,-7.93852 L -32.5797,-7.97787 L -32.8838,-8.05594 L -33.1757,-8.17152 L -33.4509,-8.32277 L -33.7048,-8.50731
 L -33.9337,-8.72221 L -34.1338,-8.96413 L -34.302,-9.2292 L -34.4357,-9.51328 L -34.5327,-9.81187 L -34.5916,-10.1203
 L -34.6113,-10.4336 L -34.5916,-10.7469 L -34.5327,-11.0553 L -34.4357,-11.3539 L -34.302,-11.638 L -34.1338,-11.903
 L -33.9337,-12.1449 L -33.7048,-12.3598 L -33.4509,-12.5444 L -33.1757,-12.6956 L -32.8838,-12.8112 L -32.5797,-12.8893
 L -32.2683,-12.9286 L -31.9543,-12.9286 L -31.6428,-12.8893 L -31.3387,-12.8112 L -31.0468,-12.6956 L -30.7717,-12.5444
 L -30.5177,-12.3599 L -30.2889,-12.145 L -30.0887,-11.903 L -29.9205,-11.638 L -29.7868,-11.3539 L -29.6898,-11.0553
 L -29.631,-10.7469 L -29.6113,-10.4336 L -29.631,-10.1202 L -29.6898,-9.81184 L -29.7868,-9.51328 L -29.9205,-9.2292
 L -30.0887,-8.96413 L -30.2888,-8.72223 L -30.5177,-8.50731 L -30.7717,-8.32277 L -31.0468,-8.17152 L -31.3387,-8.05594
 L -31.6428,-7.97787 L -31.9543,-7.93852 z
M -1.76776,1.76776 L -2.5,-0 L -1.76776,-1.76776 L 0,-2.5 L 1.76776,-1.76776 L 2.5,-0
 L 1.76776,1.76776 L 0,2.5 z
M -20.0029,29.8105 L -20.3143,29.7712 L -20.6184,29.6931 L -20.9103,29.5775 L -21.1854,29.4263 L -21.4394,29.2418
 L -21.6683,29.0269 L -21.8684,28.785 L -22.0366,28.5199 L -22.1703,28.2358 L -22.2673,27.9372 L -22.3261,27.6288
 L -22.3459,27.3155 L -22.3262,27.0022 L -22.2673,26.6938 L -22.1703,26.3952 L -22.0366,26.1111 L -21.8684,25.846
 L -21.6683,25.6041 L -21.4394,25.3892 L -21.1854,25.2047 L -20.9103,25.0534 L -20.6184,24.9379 L -20.3143,24.8598
 L -20.0028,24.8204 L -19.6889,24.8204 L -19.3774,24.8598 L -19.0733,24.9379 L -18.7814,25.0534 L -18.5063,25.2047
 L -18.2523,25.3892 L -18.0235,25.6041 L -17.8233,25.846 L -17.6551,26.1111 L -17.5214,26.3952 L -17.4244,26.6938
 L -17.3656,27.0022 L -17.3459,27.3155 L -17.3656,27.6288 L -17.4244,27.9372 L -17.5214,28.2358 L -17.6551,28.5199
 L -17.8233,28.785 L -18.0234,29.0269 L -18.2523,29.2418 L -18.5063,29.4263 L -18.7814,29.5776 L -19.0733,29.6931
 L -19.3774,29.7712 L -19.6889,29.8105 z
M 19.6889,29.8105 L 19.3774,29.7712 L 19.0733,29.6931 L 18.7814,29.5776 L 18.5063,29.4263 L 18.2523,29.2418
 L 18.0234,29.0269 L 17.8233,28.785 L 17.6551,28.5199 L 17.5214,28.2358 L 17.4244,27.9372 L 17.3656,27.6288
 L 17.3459,27.3155 L 17.3656,27.0022 L 17.4244,26.6938 L 17.5214,26.3952 L 17.6551,26.1111 L 17.8233,25.846
 L 18.0235,25.6041 L 18.2523,25.3892 L 18.5063,25.2047 L 18.7814,25.0534 L 19.0733,24.9379 L 19.3774,24.8598
 L 19.6889,24.8204 L 20.0028,24.8204 L 20.3143,24.8598 L 20.6184,24.9379 L 20.9103,25.0534 L 21.1854,25.2047
 L 21.4394,25.3892 L 21.6683,25.6041 L 21.8684,25.846 L 22.0366,26.1111 L 22.1703,26.3952 L 22.2673,26.6938
 L 22.3262,27.0022 L 22.3459,27.3155 L 22.3261,27.6288 L 22.2673,27.9372 L 22.1703,28.2358 L 22.0366,28.5199
 L 21.8684,28.785 L 21.6683,29.0269 L 21.4394,29.2418 L 21.1854,29.4263 L 20.9103,29.5775 L 20.6184,29.6931
 L 20.3143,29.7712 L 20.0029,29.8105 z
M 37.3224,54.0811 L 37.011,54.0417 L 36.7069,53.9636 L 36.415,53.8481 L 36.1399,53.6968 L 35.8859,53.5123
 L 35.657,53.2974 L 35.4569,53.0555 L 35.2887,52.7904 L 35.155,52.5063 L 35.058,52.2077 L 34.9991,51.8993
 L 34.9794,51.586 L 34.9991,51.2727 L 35.058,50.9643 L 35.155,50.6657 L 35.2887,50.3816 L 35.4569,50.1165
 L 35.657,49.8746 L 35.8859,49.6597 L 36.1398,49.4752 L 36.415,49.3239 L 36.7069,49.2084 L 37.011,49.1303
 L 37.3224,49.0909 L 37.6364,49.0909 L 37.9479,49.1303 L 38.252,49.2084 L 38.5439,49.3239 L 38.819,49.4752
 L 39.073,49.6597 L 39.3018,49.8746 L 39.502,50.1165 L 39.6702,50.3816 L 39.8039,50.6657 L 39.9009,50.9643
 L 39.9597,51.2727 L 39.9794,51.586 L 39.9597,51.8993 L 39.9009,52.2077 L 39.8038,52.5063 L 39.6702,52.7904
 L 39.502,53.0555 L 39.3018,53.2974 L 39.073,53.5123 L 38.819,53.6968 L 38.5439,53.8481 L 38.252,53.9636
 L 37.9479,54.0417 L 37.6364,54.0811 z
M -37.6364,54.0811 L -37.9479,54.0417 L -38.252,53.9636 L -38.5439,53.8481 L -38.819,53.6968 L -39.073,53.5123
 L -39.3018,53.2974 L -39.502,53.0555 L -39.6702,52.7904 L -39.8038,52.5063 L -39.9009,52.2077 L -39.9597,51.8993
 L -39.9794,51.586 L -39.9597,51.2727 L -39.9009,50.9643 L -39.8039,50.6657 L -39.6702,50.3816 L -39.502,50.1165
 L -39.3018,49.8746 L -39.073,49.6597 L -38.819,49.4752 L -38.5439,49.3239 L -38.252,49.2084 L -37.9479,49.1303
 L -37.6364,49.0909 L -37.3224,49.0909 L -37.011,49.1303 L -36.7069,49.2084 L -36.415,49.3239 L -36.1398,49.4752
 L -35.8859,49.6597 L -35.657,49.8746 L -35.4569,50.1165 L -35.2887,50.3816 L -35.155,50.6657 L -35.058,50.9643
 L -34.9991,51.2727 L -34.9794,51.586 L -34.9991,51.8993 L -35.058,52.2077 L -35.155,52.5063 L -35.2887,52.7904
 L -35.4569,53.0555 L -35.657,53.2974 L -35.8859,53.5123 L -36.1399,53.6968 L -36.415,53.8481 L -36.7069,53.9636
 L -37.011,54.0417 L -37.3224,54.0811 z
M 49.0782,70.2614 L 48.7667,70.222 L 48.4626,70.144 L 48.1707,70.0284 L 47.8956,69.8772 L 47.6416,69.6926
 L 47.4127,69.4777 L 47.2126,69.2358 L 47.0444,68.9707 L 46.9107,68.6866 L 46.8137,68.3881 L 46.7548,68.0797
 L 46.7351,67.7663 L 46.7548,67.453 L 46.8137,67.1446 L 46.9107,66.846 L 47.0444,66.562 L 47.2126,66.2969
 L 47.4127,66.055 L 47.6416,65.84 L 47.8956,65.6555 L 48.1707,65.5043 L 48.4626,65.3887 L 48.7667,65.3106
 L 49.0781,65.2713 L 49.3921,65.2713 L 49.7036,65.3106 L 50.0077,65.3887 L 50.2996,65.5043 L 50.5747,65.6555
 L 50.8287,65.8401 L 51.0576,66.055 L 51.2577,66.2969 L 51.4259,66.562 L 51.5596,66.846 L 51.6566,67.1446
 L 51.7154,67.453 L 51.7351,67.7663 L 51.7154,68.0797 L 51.6566,68.3881 L 51.5596,68.6867 L 51.4259,68.9707
 L 51.2577,69.2358 L 51.0575,69.4777 L 50.8287,69.6926 L 50.5747,69.8772 L 50.2996,70.0284 L 50.0077,70.144
 L 49.7036,70.222 L 49.3921,70.2614 z
M -49.3921,70.2614 L -49.7036,70.222 L -50.0077,70.144 L -50.2996,70.0284 L -50.5747,69.8772 L -50.8287,69.6926
 L -51.0575,69.4777 L -51.2577,69.2358 L -51.4259,68.9707 L -51.5596,68.6867 L -51.6566,68.3881 L -51.7154,68.0797
 L -51.7351,67.7663 L -51.7154,67.453 L -51.6566,67.1446 L -51.5596,66.846 L -51.4259,66.562 L -51.2577,66.2969
 L -51.0576,66.055 L -50.8287,65.8401 L -50.5747,65.6555 L -50.2996,65.5043 L -50.0077,65.3887 L -49.7036,65.3106
 L -49.3921,65.2713 L -49.0781,65.2713 L -48.7667,65.3106 L -48.4626,65.3887 L -48.1707,65.5043 L -47.8956,65.6555
 L -47.6416,65.84 L -47.4127,66.055 L -47.2126,66.2969 L -47.0444,66.562 L -46.9107,66.846 L -46.8137,67.1446
 L -46.7548,67.453 L -46.7351,67.7663 L -46.7548,68.0797 L -46.8137,68.3881 L -46.9107,68.6866 L -47.0444,68.9707
 L -47.2126,69.2358 L -47.4127,69.4777 L -47.6416,69.6926 L -47.8956,69.8772 L -48.1707,70.0284 L -48.4626,70.144
 L -48.7667,70.222 L -49.0782,70.2614 z
M 66.7117,94.5319 L 66.4002,94.4926 L 66.0961,94.4145 L 65.8042,94.2989 L 65.5291,94.1477 L 65.2751,93.9631
 L 65.0463,93.7482 L 64.8461,93.5063 L 64.6779,93.2412 L 64.5443,92.9572 L 64.4472,92.6586 L 64.3884,92.3502
 L 64.3687,92.0368 L 64.3884,91.7235 L 64.4472,91.4151 L 64.5443,91.1165 L 64.6779,90.8325 L 64.8461,90.5674
 L 65.0463,90.3255 L 65.2751,90.1105 L 65.5291,89.926 L 65.8042,89.7748 L 66.0961,89.6592 L 66.4002,89.5811
 L 66.7117,89.5418 L 67.0257,89.5418 L 67.3371,89.5811 L 67.6412,89.6592 L 67.9331,89.7748 L 68.2083,89.926
 L 68.4622,90.1106 L 68.6911,90.3255 L 68.8912,90.5674 L 69.0594,90.8325 L 69.1931,91.1165 L 69.2901,91.4151
 L 69.349,91.7235 L 69.3687,92.0368 L 69.349,92.3502 L 69.2901,92.6586 L 69.1931,92.9572 L 69.0594,93.2412
 L 68.8912,93.5063 L 68.6911,93.7482 L 68.4622,93.9631 L 68.2083,94.1477 L 67.9331,94.2989 L 67.6412,94.4145
 L 67.3371,94.4926 L 67.0257,94.5319 z
M -67.0257,94.5319 L -67.3371,94.4926 L -67.6412,94.4145 L -67.9331,94.2989 L -68.2083,94.1477 L -68.4622,93.9631
 L -68.6911,93.7482 L -68.8912,93.5063 L -69.0594,93.2412 L -69.1931,92.9572 L -69.2901,92.6586 L -69.349,92.3502
 L -69.3687,92.0368 L -69.349,91.7235 L -69.2901,91.4151 L -69.1931,91.1165 L -69.0594,90.8325 L -68.8912,90.5674
 L -68.6911,90.3255 L -68.4622,90.1106 L -68.2083,89.926 L -67.9331,89.7748 L -67.6412,89.6592 L -67.3371,89.5811
 L -67.0257,89.5418 L -66.7117,89.5418 L -66.4002,89.5811 L -66.0961,89.6592 L -65.8042,89.7748 L -65.5291,89.926
 L -65.2751,90.1105 L -65.0463,90.3255 L -64.8461,90.5674 L -64.6779,90.8325 L -64.5443,91.1165 L -64.4472,91.4151
 L -64.3884,91.7235 L -64.3687,92.0368 L -64.3884,92.3502 L -64.4472,92.6586 L -64.5443,92.9572 L -64.6779,93.2412
 L -64.8461,93.5063 L -65.0463,93.7482 L -65.2751,93.9631 L -65.5291,94.1477 L -65.8042,94.2989 L -66.0961,94.4145
 L -66.4002,94.4926 L -66.7117,94.5319 z
" stroke="black" fill="lightgray" stroke-width="0.5"/>
</svg>
