<?xml version="1.0" standalone="no"?>
<!DOCTYPE svg PUBLIC "-//W3C//DTD SVG 1.1//EN" "http://www.w3.org/Graphics/SVG/1.1/DTD/svg11.dtd">
<svg width="148" height="140" viewBox="-74 -74 148 140" xmlns="http://www.w3.org/2000/svg" version="1.1">
<title>OpenSCAD Model</title>
<path d="
M -10,-13.7638 L -67.0634,-32.3048 L -73.2437,-13.2837 L -16.1803,5.25731 z
M -60.8031,-17.1591 L -61.1208,-17.1993 L -61.431,-17.2789 L -61.7287,-17.3968 L -62.0093,-17.5511 L -62.2684,-17.7393
 L -62.5018,-17.9585 L -62.706,-18.2052 L -62.8776,-18.4756 L -63.0139,-18.7654 L -63.1129,-19.0699 L -63.1729,-19.3845
 L -63.193,-19.7041 L -63.1729,-20.0237 L -63.1129,-20.3383 L -63.0139,-20.6428 L -62.8776,-20.9326 L -62.706,-21.2029
 L -62.5018,-21.4497 L -62.2684,-21.6689 L -62.0093,-21.8571 L -61.7287,-22.0114 L -61.431,-22.1293 L -61.1208,-22.2089
 L -60.8031,-22.2491 L -60.4829,-22.2491 L -60.1652,-22.2089 L -59.855,-22.1293 L -59.5572,-22.0114 L -59.2766,-21.8571
 L -59.0176,-21.6689 L -58.7841,-21.4497 L -58.58,-21.2029 L -58.4084,-20.9326 L -58.272,-20.6428 L -58.1731,-20.3382
 L -58.1131,-20.0237 L -58.093,-19.7041 L -58.1131,-19.3845 L -58.1731,-19.0699 L -58.272,-18.7654 L -58.4084,-18.4756
 L -58.58,-18.2053 L -58.7841,-17.9585 L -59.0175,-17.7393 L -59.2766,-17.5511 L -59.5572,-17.3968 L -59.855,-17.2789
 L -60.1651,-17.1993 L -60.4829,-17.1591 z
M -37.0267,-9.4337 L -37.3444,-9.47383 L -37.6546,-9.55348 L -37.9523,-9.67136 L -38.2329,-9.82564 L -38.492,-10.0139
 L -38.7254,-10.2331 L -38.9296,-10.4798 L -39.1012,-10.7502 L -39.2375,-11.0399 L -39.3365,-11.3445 L -39.3965,-11.6591
 L -39.4166,-11.9787 L -39.3965,-12.2983 L -39.3365,-12.6128 L -39.2375,-12.9174 L -39.1012,-13.2071 L -38.9296,-13.4775
 L -38.7254,-13.7242 L -38.492,-13.9435 L -38.2329,-14.1317 L -37.9523,-14.286 L -37.6546,-14.4039 L -37.3444,-14.4835
 L -37.0267,-14.5236 L -36.7065,-14.5236 L -36.3887,-14.4835 L -36.0786,-14.4039 L -35.7808,-14.286 L -35.5002,-14.1317
 L -35.2411,-13.9435 L -35.0077,-13.7243 L -34.8036,-13.4775 L -34.632,-13.2071 L -34.4956,-12.9174 L -34.3967,-12.6128
 L -34.3367,-12.2983 L -34.3166,-11.9787 L -34.3367,-11.6591 L -34.3967,-11.3445 L -34.4956,-11.0399 L -34.632,-10.7502
 L -34.8036,-10.4798 L -35.0077,-10.2331 L -35.2411,-10.0139 L -35.5002,-9.82564 L -35.7808,-9.67137 L -36.0786,-9.55348
 L -36.3887,-9.47385 L -36.7065,-9.4337 z
M 67.0634,-32.3048 L 10,-13.7638 L 10,-73.7638 L -9.99998,-73.7638 L -9.99998,-13.7638 L -16.1803,5.25731
 L -51.4474,53.7983 L -35.2671,65.554 L 0,17.013 L 35.2671,65.554 L 51.4474,53.7983 L 16.1803,5.25731
 L 73.2437,-13.2837 z
M -0.160095,-61.2188 L -0.477798,-61.259 L -0.787964,-61.3386 L -1.08571,-61.4565 L -1.36633,-61.6108 L -1.62541,-61.799
 L -1.85884,-62.0182 L -2.06297,-62.265 L -2.23456,-62.5353 L -2.37091,-62.8251 L -2.46986,-63.1296 L -2.52988,-63.4442
 L -2.54997,-63.7638 L -2.52988,-64.0834 L -2.46986,-64.398 L -2.37091,-64.7025 L -2.23456,-64.9923 L -2.06297,-65.2626
 L -1.85884,-65.5094 L -1.62541,-65.7286 L -1.36633,-65.9168 L -1.08571,-66.0711 L -0.787964,-66.189 L -0.477798,-66.2686
 L -0.160095,-66.3088 L 0.16011,-66.3088 L 0.477814,-66.2686 L 0.787979,-66.189 L 1.08572,-66.0711 L 1.36635,-65.9168
 L 1.62543,-65.7286 L 1.85886,-65.5094 L 2.06299,-65.2626 L 2.23457,-64.9923 L 2.37093,-64.7025 L 2.46988,-64.398
 L 2.52989,-64.0834 L 2.54999,-63.7638 L 2.52989,-63.4442 L 2.46988,-63.1296 L 2.37093,-62.8251 L 2.23457,-62.5353
 L 2.06299,-62.265 L 1.85886,-62.0182 L 1.62543,-61.799 L 1.36635,-61.6108 L 1.08572,-61.4565 L 0.787979,-61.3386
 L 0.477814,-61.259 L 0.16011,-61.2188 z
M -0.160095,-36.2188 L -0.477798,-36.259 L -0.787964,-36.3386 L -1.08571,-36.4565 L -1.36633,-36.6108 L -1.62541,-36.799
 L -1.85884,-37.0182 L -2.06297,-37.265 L -2.23456,-37.5353 L -2.37091,-37.8251 L -2.46986,-38.1296 L -2.52988,-38.4442
 L -2.54997,-38.7638 L -2.52988,-39.0834 L -2.46986,-39.398 L -2.37091,-39.7025 L -2.23456,-39.9923 L -2.06297,-40.2626
 L -1.85884,-40.5094 L -1.62541,-40.7286 L -1.36633,-40.9168 L -1.08571,-41.0711 L -0.787964,-41.189 L -0.477798,-41.2686
 L -0.160095,-41.3088 L 0.16011,-41.3088 L 0.477814,-41.2686 L 0.787979,-41.189 L 1.08572,-41.0711 L 1.36635,-40.9168
 L 1.62543,-40.7286 L 1.85886,-40.5094 L 2.06299,-40.2626 L 2.23457,-39.9923 L 2.37093,-39.7025 L 2.46988,-39.398
 L 2.52989,-39.0834 L 2.54999,-38.7638 L 2.52989,-38.4442 L 2.46988,-38.1296 L 2.37093,-37.8251 L 2.23457,-37.5353
 L 2.06299,-37.265 L 1.85886,-37.0182 L 1.62543,-36.799 L 1.36635,-36.6108 L 1.08572,-36.4565 L 0.787979,-36.3386
 L 0.477814,-36.259 L 0.16011,-36.2188 z
M 60.4829,-17.1591 L 60.1651,-17.1993 L 59.855,-17.2789 L 59.5572,-17.3968 L 59.2766,-17.5511 L 59.0175,-17.7393
 L 58.7841,-17.9585 L 58.58,-18.2053 L 58.4084,-18.4756 L 58.272,-18.7654 L 58.1731,-19.0699 L 58.1131,-19.3845
 L 58.093,-19.7041 L 58.1131,-20.0237 L 58.1731,-20.3382 L 58.272,-20.6428 L 58.4084,-20.9326 L 58.58,-21.2029
 L 58.7841,-21.4497 L 59.0176,-21.6689 L 59.2766,-21.8571 L 59.5572,-22.0114 L 59.855,-22.1293 L 60.1652,-22.2089
 L 60.4829,-22.2491 L 60.8031,-22.2491 L 61.1208,-22.2089 L 61.431,-22.1293 L 61.7287,-22.0114 L 62.0093,-21.8571
 L 62.2684,-21.6689 L 62.5018,-21.4497 L 62.706,-21.2029 L 62.8776,-20.9326 L 63.0139,-20.6428 L 63.1129,-20.3383
 L 63.1729,-20.0237 L 63.193,-19.7041 L 63.1729,-19.3845 L 63.1129,-19.0699 L 63.0139,-18.7654 L 62.8776,-18.4756
 L 62.706,-18.2052 L 62.5018,-17.9585 L 62.2684,-17.7393 L 62.0093,-17.5511 L 61.7287,-17.3968 L 61.431,-17.2789
 L 61.1208,-17.1993 L 60.8031,-17.1591 z
M 36.7065,-9.4337 L 36.3887,-9.47385 L 36.0786,-9.55348 L 35.7808,-9.67137 L 35.5002,-9.82564 L 35.2411,-10.0139
 L 35.0077,-10.2331 L 34.8036,-10.4798 L 34.632,-10.7502 L 34.4956,-11.0399 L 34.3967,-11.3445 L 34.3367,-11.6591
 L 34.3166,-11.9787 L 34.3367,-12.2983 L 34.3967,-12.6128 L 34.4956,-12.9174 L 34.632,-13.2071 L 34.8036,-13.4775
 L 35.0077,-13.7243 L 35.2411,-13.9435 L 35.5002,-14.1317 L 35.7808,-14.286 L 36.0786,-14.4039 L 36.3887,-14.4835
 L 36.7065,-14.5236 L 37.0267,-14.5236 L 37.3444,-14.4835 L 37.6546,-14.4039 L 37.9523,-14.286 L 38.2329,-14.1317
 L 38.492,-13.9435 L 38.7254,-13.7242 L 38.9296,-13.4775 L 39.1012,-13.2071 L 39.2375,-12.9174 L 39.3365,-12.6128
 L 39.3965,-12.2983 L 39.4166,-11.9787 L 39.3965,-11.6591 L 39.3365,-11.3445 L 39.2375,-11.0399 L 39.1012,-10.7502
 L 38.9296,-10.4798 L 38.7254,-10.2331 L 38.492,-10.0139 L 38.2329,-9.82564 L 37.9523,-9.67136 L 37.6546,-9.55348
 L 37.3444,-9.47383 L 37.0267,-9.4337 z
M -22.9449,33.9055 L -23.2626,33.8654 L -23.5728,33.7858 L -23.8705,33.6679 L -24.1512,33.5136 L -24.4102,33.3254
 L -24.6436,33.1062 L -24.8478,32.8594 L -25.0194,32.5891 L -25.1557,32.2993 L -25.2547,31.9947 L -25.3147,31.6802
 L -25.3348,31.3606 L -25.3147,31.041 L -25.2547,30.7264 L -25.1557,30.4219 L -25.0194,30.1321 L -24.8478,29.8617
 L -24.6437,29.615 L -24.4102,29.3958 L -24.1512,29.2076 L -23.8705,29.0533 L -23.5728,28.9354 L -23.2626,28.8557
 L -22.9449,28.8156 L -22.6247,28.8156 L -22.307,28.8558 L -21.9968,28.9354 L -21.6991,29.0533 L -21.4184,29.2075
 L -21.1594,29.3958 L -20.9259,29.615 L -20.7218,29.8617 L -20.5502,30.1321 L -20.4139,30.4218 L -20.3149,30.7264
 L -20.2549,31.041 L -20.2348,31.3606 L -20.2549,31.6802 L -20.3149,31.9947 L -20.4139,32.2993 L -20.5502,32.5891
 L -20.7218,32.8594 L -20.9259,33.1062 L -21.1594,33.3254 L -21.4184,33.5136 L -21.6991,33.6679 L -21.9968,33.7858
 L -22.307,33.8654 L -22.6247,33.9055 z
M 22.6247,33.9055 L 22.307,33.8654 L 21.9968,33.7858 L 21.6991,33.6679 L 21.4184,33.5136 L 21.1594,33.3254
 L 20.9259,33.1062 L 20.7218,32.8594 L 20.5502,32.5891 L 20.4139,32.2993 L 20.3149,31.9947 L 20.2549,31.6802
 L 20.2348,31.3606 L 20.2549,31.041 L 20.3149,30.7264 L 20.4139,30.4218 L 20.5502,30.1321 L 20.7218,29.8617
 L 20.9259,29.615 L 21.1594,29.3958 L 21.4184,29.2075 L 21.6991,29.0533 L 21.9968,28.9354 L 22.307,28.8558
 L 22.6247,28.8156 L 22.9449,28.8156 L 23.2626,28.8557 L 23.5728,28.9354 L 23.8705,29.0533 L 24.1512,29.2076
 L 24.4102,29.3958 L 24.6437,29.615 L 24.8478,29.8617 L 25.0194,30.1321 L 25.1557,30.4219 L 25.2547,30.7264
 L 25.3147,31.041 L 25.3348,31.3606 L 25.3147,31.6802 L 25.2547,31.9947 L 25.1557,32.2993 L 25.0194,32.5891
 L 24.8478,32.8594 L 24.6436,33.1062 L 24.4102,33.3254 L 24.1512,33.5136 L 23.8705,33.6679 L 23.5728,33.7858
 L 23.2626,33.8654 L 22.9449,33.9055 z
M -37.6395,54.131 L -37.9572,54.0908 L -38.2674,54.0112 L -38.5652,53.8933 L -38.8458,53.739 L -39.1049,53.5508
 L -39.3383,53.3316 L -39.5424,53.0849 L -39.714,52.8145 L -39.8503,52.5247 L -39.9493,52.2202 L -40.0093,51.9056
 L -40.0294,51.586 L -40.0093,51.2664 L -39.9493,50.9518 L -39.8503,50.6473 L -39.714,50.3575 L -39.5424,50.0872
 L -39.3383,49.8404 L -39.1048,49.6212 L -38.8458,49.433 L -38.5651,49.2787 L -38.2674,49.1608 L -37.9572,49.0812
 L -37.6395,49.041 L -37.3193,49.041 L -37.0016,49.0812 L -36.6914,49.1608 L -36.3937,49.2787 L -36.1131,49.433
 L -35.854,49.6212 L -35.6206,49.8404 L -35.4164,50.0871 L -35.2449,50.3575 L -35.1085,50.6473 L -35.0095,50.9518
 L -34.9495,51.2664 L -34.9294,51.586 L -34.9495,51.9056 L -35.0095,52.2202 L -35.1085,52.5247 L -35.2448,52.8145
 L -35.4164,53.0849 L -35.6206,53.3316 L -35.854,53.5508 L -36.1131,53.739 L -36.3937,53.8933 L -36.6914,54.0112
 L -37.0016,54.0908 L -37.3193,54.131 z
M 37.3193,54.131 L 37.0016,54.0908 L 36.6914,54.0112 L 36.3937,53.8933 L 36.1131,53.739 L 35.854,53.5508
 L 35.6206,53.3316 L 35.4164,53.0849 L 35.2448,52.8145 L 35.1085,52.5247 L 35.0095,52.2202 L 34.9495,51.9056
 L 34.9294,51.586 L 34.9495,51.2664 L 35.0095,50.9518 L 35.1085,50.6473 L 35.2449,50.3575 L 35.4164,50.0871
 L 35.6206,49.8404 L 35.854,49.6212 L 36.1131,49.433 L 36.3937,49.2787 L 36.6914,49.1608 L 37.0016,49.0812
 L 37.3193,49.041 L 37.6395,49.041 L 37.9572,49.0812 L 38.2674,49.1608 L 38.5651,49.2787 L 38.8458,49.433
 L 39.1048,49.6212 L 39.3383,49.8404 L 39.5424,50.0872 L 39.714,50.3575 L 39.8503,50.6473 L 39.9493,50.9518
 L 40.0093,51.2664 L 40.0294,51.586 L 40.0093,51.9056 L 39.9493,52.2202 L 39.8503,52.5247 L 39.714,52.8145
 L 39.5424,53.0849 L 39.3383,53.3316 L 39.1049,53.5508 L 38.8458,53.739 L 38.5652,53.8933 L 38.2674,54.0112
 L 37.9572,54.0908 L 37.6395,54.131 z
" stroke="black" fill="lightgray" stroke-width="0.5"/></svg>
