  0
SECTION
  2
BLOCKS
  0
ENDSEC
  0
SECTION
  2
ENTITIES
  0
LINE
  8
0
 10
80.8367
 20
-94.2492
 11
22.0862
 21
-13.386
  0
LINE
  8
0
 10
22.0862
 20
-13.386
 11
21.67
 21
-12.7451
  0
LINE
  8
0
 10
21.67
 20
-12.7451
 11
21.3231
 21
-12.0643
  0
LINE
  8
0
 10
21.3231
 20
-12.0643
 11
21.0493
 21
-11.351
  0
LINE
  8
0
 10
21.0493
 20
-11.351
 11
20.8515
 21
-10.6129
  0
LINE
  8
0
 10
20.8515
 20
-10.6129
 11
20.732
 21
-9.8582
  0
LINE
  8
0
 10
20.732
 20
-9.8582
 11
20.692
 21
-9.09512
  0
LINE
  8
0
 10
20.692
 20
-9.09512
 11
20.732
 21
-8.33208
  0
LINE
  8
0
 10
20.732
 20
-8.33208
 11
20.8515
 21
-7.57738
  0
LINE
  8
0
 10
20.8515
 20
-7.57738
 11
21.0493
 21
-6.83931
  0
LINE
  8
0
 10
21.0493
 20
-6.83931
 11
21.3231
 21
-6.12598
  0
LINE
  8
0
 10
21.3231
 20
-6.12598
 11
21.67
 21
-5.44514
  0
LINE
  8
0
 10
21.67
 20
-5.44514
 11
22.0861
 21
-4.80432
  0
LINE
  8
0
 10
22.0861
 20
-4.80432
 11
22.567
 21
-4.21048
  0
LINE
  8
0
 10
22.567
 20
-4.21048
 11
23.1073
 21
-3.67018
  0
LINE
  8
0
 10
23.1073
 20
-3.67018
 11
23.7011
 21
-3.18933
  0
LINE
  8
0
 10
23.7011
 20
-3.18933
 11
24.342
 21
-2.77316
  0
LINE
  8
0
 10
24.342
 20
-2.77316
 11
25.0228
 21
-2.42627
  0
LINE
  8
0
 10
25.0228
 20
-2.42627
 11
25.7359
 21
-2.15253
  0
LINE
  8
0
 10
25.7359
 20
-2.15253
 11
120.797
 21
28.7345
  0
LINE
  8
0
 10
120.797
 20
28.7345
 11
114.616
 21
47.7557
  0
LINE
  8
0
 10
114.616
 20
47.7557
 11
0
 21
10.5146
  0
LINE
  8
0
 10
0
 20
10.5146
 11
-114.616
 21
47.7557
  0
LINE
  8
0
 10
-114.616
 20
47.7557
 11
-120.797
 21
28.7345
  0
LINE
  8
0
 10
-120.797
 20
28.7345
 11
-25.7359
 21
-2.15253
  0
LINE
  8
0
 10
-25.7359
 20
-2.15253
 11
-25.0228
 21
-2.42627
  0
LINE
  8
0
 10
-25.0228
 20
-2.42627
 11
-24.342
 21
-2.77316
  0
LINE
  8
0
 10
-24.342
 20
-2.77316
 11
-23.7011
 21
-3.18933
  0
LINE
  8
0
 10
-23.7011
 20
-3.18933
 11
-23.1073
 21
-3.67018
  0
LINE
  8
0
 10
-23.1073
 20
-3.67018
 11
-22.567
 21
-4.21048
  0
LINE
  8
0
 10
-22.567
 20
-4.21048
 11
-22.0861
 21
-4.80432
  0
LINE
  8
0
 10
-22.0861
 20
-4.80432
 11
-21.67
 21
-5.44514
  0
LINE
  8
0
 10
-21.67
 20
-5.44514
 11
-21.3231
 21
-6.12598
  0
LINE
  8
0
 10
-21.3231
 20
-6.12598
 11
-21.0493
 21
-6.83931
  0
LINE
  8
0
 10
-21.0493
 20
-6.83931
 11
-20.8515
 21
-7.57738
  0
LINE
  8
0
 10
-20.8515
 20
-7.57738
 11
-20.732
 21
-8.33208
  0
LINE
  8
0
 10
-20.732
 20
-8.33208
 11
-20.692
 21
-9.09512
  0
LINE
  8
0
 10
-20.692
 20
-9.09512
 11
-20.732
 21
-9.8582
  0
LINE
  8
0
 10
-20.732
 20
-9.8582
 11
-20.8515
 21
-10.6129
  0
LINE
  8
0
 10
-20.8515
 20
-10.6129
 11
-21.0493
 21
-11.351
  0
LINE
  8
0
 10
-21.0493
 20
-11.351
 11
-21.3231
 21
-12.0643
  0
LINE
  8
0
 10
-21.3231
 20
-12.0643
 11
-21.67
 21
-12.7451
  0
LINE
  8
0
 10
-21.67
 20
-12.7451
 11
-22.0862
 21
-13.386
  0
LINE
  8
0
 10
-22.0862
 20
-13.386
 11
-80.8367
 21
-94.2492
  0
LINE
  8
0
 10
-80.8367
 20
-94.2492
 11
-64.6564
 21
-106.005
  0
LINE
  8
0
 10
-64.6564
 20
-106.005
 11
-5.90582
 21
-25.1417
  0
LINE
  8
0
 10
-5.90582
 20
-25.1417
 11
-5.42494
 21
-24.5479
  0
LINE
  8
0
 10
-5.42494
 20
-24.5479
 11
-4.88464
 21
-24.0076
  0
LINE
  8
0
 10
-4.88464
 20
-24.0076
 11
-4.29082
 21
-23.5267
  0
LINE
  8
0
 10
-4.29082
 20
-23.5267
 11
-3.64999
 21
-23.1105
  0
LINE
  8
0
 10
-3.64999
 20
-23.1105
 11
-2.96918
 21
-22.7636
  0
LINE
  8
0
 10
-2.96918
 20
-22.7636
 11
-2.25581
 21
-22.4898
  0
LINE
  8
0
 10
-2.25581
 20
-22.4898
 11
-1.51775
 21
-22.292
  0
LINE
  8
0
 10
-1.51775
 20
-22.292
 11
-0.763046
 21
-22.1725
  0
LINE
  8
0
 10
-0.763046
 20
-22.1725
 11
0
 21
-22.1325
  0
LINE
  8
0
 10
0
 20
-22.1325
 11
0.763031
 21
-22.1725
  0
LINE
  8
0
 10
0.763031
 20
-22.1725
 11
1.51773
 21
-22.292
  0
LINE
  8
0
 10
1.51773
 20
-22.292
 11
2.2558
 21
-22.4898
  0
LINE
  8
0
 10
2.2558
 20
-22.4898
 11
2.96916
 21
-22.7636
  0
LINE
  8
0
 10
2.96916
 20
-22.7636
 11
3.64998
 21
-23.1105
  0
LINE
  8
0
 10
3.64998
 20
-23.1105
 11
4.2908
 21
-23.5267
  0
LINE
  8
0
 10
4.2908
 20
-23.5267
 11
4.88463
 21
-24.0076
  0
LINE
  8
0
 10
4.88463
 20
-24.0076
 11
5.42493
 21
-24.5479
  0
LINE
  8
0
 10
5.42493
 20
-24.5479
 11
5.90582
 21
-25.1417
  0
LINE
  8
0
 10
5.90582
 20
-25.1417
 11
64.6564
 21
-106.005
  0
LINE
  8
0
 10
64.6564
 20
-106.005
 11
80.8367
 21
-94.2492
  0
LINE
  8
0
 10
-108.353
 20
32.6599
 11
-108.664
 21
32.6992
  0
LINE
  8
0
 10
-108.664
 20
32.6992
 11
-108.968
 21
32.7773
  0
LINE
  8
0
 10
-108.968
 20
32.7773
 11
-109.26
 21
32.8929
  0
LINE
  8
0
 10
-109.26
 20
32.8929
 11
-109.535
 21
33.0441
  0
LINE
  8
0
 10
-109.535
 20
33.0441
 11
-109.789
 21
33.2287
  0
LINE
  8
0
 10
-109.789
 20
33.2287
 11
-110.018
 21
33.4436
  0
LINE
  8
0
 10
-110.018
 20
33.4436
 11
-110.218
 21
33.6855
  0
LINE
  8
0
 10
-110.218
 20
33.6855
 11
-110.387
 21
33.9506
  0
LINE
  8
0
 10
-110.387
 20
33.9506
 11
-110.52
 21
34.2346
  0
LINE
  8
0
 10
-110.52
 20
34.2346
 11
-110.617
 21
34.5332
  0
LINE
  8
0
 10
-110.617
 20
34.5332
 11
-110.676
 21
34.8416
  0
LINE
  8
0
 10
-110.676
 20
34.8416
 11
-110.696
 21
35.155
  0
LINE
  8
0
 10
-110.696
 20
35.155
 11
-110.676
 21
35.4683
  0
LINE
  8
0
 10
-110.676
 20
35.4683
 11
-110.617
 21
35.7767
  0
LINE
  8
0
 10
-110.617
 20
35.7767
 11
-110.52
 21
36.0752
  0
LINE
  8
0
 10
-110.52
 20
36.0752
 11
-110.387
 21
36.3593
  0
LINE
  8
0
 10
-110.387
 20
36.3593
 11
-110.218
 21
36.6244
  0
LINE
  8
0
 10
-110.218
 20
36.6244
 11
-110.018
 21
36.8663
  0
LINE
  8
0
 10
-110.018
 20
36.8663
 11
-109.789
 21
37.0812
  0
LINE
  8
0
 10
-109.789
 20
37.0812
 11
-109.535
 21
37.2658
  0
LINE
  8
0
 10
-109.535
 20
37.2658
 11
-109.26
 21
37.417
  0
LINE
  8
0
 10
-109.26
 20
37.417
 11
-108.968
 21
37.5326
  0
LINE
  8
0
 10
-108.968
 20
37.5326
 11
-108.664
 21
37.6107
  0
LINE
  8
0
 10
-108.664
 20
37.6107
 11
-108.353
 21
37.65
  0
LINE
  8
0
 10
-108.353
 20
37.65
 11
-108.039
 21
37.65
  0
LINE
  8
0
 10
-108.039
 20
37.65
 11
-107.727
 21
37.6107
  0
LINE
  8
0
 10
-107.727
 20
37.6107
 11
-107.423
 21
37.5326
  0
LINE
  8
0
 10
-107.423
 20
37.5326
 11
-107.131
 21
37.417
  0
LINE
  8
0
 10
-107.131
 20
37.417
 11
-106.856
 21
37.2657
  0
LINE
  8
0
 10
-106.856
 20
37.2657
 11
-106.602
 21
37.0812
  0
LINE
  8
0
 10
-106.602
 20
37.0812
 11
-106.373
 21
36.8663
  0
LINE
  8
0
 10
-106.373
 20
36.8663
 11
-106.173
 21
36.6244
  0
LINE
  8
0
 10
-106.173
 20
36.6244
 11
-106.005
 21
36.3593
  0
LINE
  8
0
 10
-106.005
 20
36.3593
 11
-105.871
 21
36.0752
  0
LINE
  8
0
 10
-105.871
 20
36.0752
 11
-105.774
 21
35.7767
  0
LINE
  8
0
 10
-105.774
 20
35.7767
 11
-105.716
 21
35.4683
  0
LINE
  8
0
 10
-105.716
 20
35.4683
 11
-105.696
 21
35.1549
  0
LINE
  8
0
 10
-105.696
 20
35.1549
 11
-105.716
 21
34.8416
  0
LINE
  8
0
 10
-105.716
 20
34.8416
 11
-105.774
 21
34.5332
  0
LINE
  8
0
 10
-105.774
 20
34.5332
 11
-105.871
 21
34.2346
  0
LINE
  8
0
 10
-105.871
 20
34.2346
 11
-106.005
 21
33.9506
  0
LINE
  8
0
 10
-106.005
 20
33.9506
 11
-106.173
 21
33.6855
  0
LINE
  8
0
 10
-106.173
 20
33.6855
 11
-106.373
 21
33.4436
  0
LINE
  8
0
 10
-106.373
 20
33.4436
 11
-106.602
 21
33.2287
  0
LINE
  8
0
 10
-106.602
 20
33.2287
 11
-106.856
 21
33.0441
  0
LINE
  8
0
 10
-106.856
 20
33.0441
 11
-107.131
 21
32.8929
  0
LINE
  8
0
 10
-107.131
 20
32.8929
 11
-107.423
 21
32.7773
  0
LINE
  8
0
 10
-107.423
 20
32.7773
 11
-107.727
 21
32.6992
  0
LINE
  8
0
 10
-107.727
 20
32.6992
 11
-108.039
 21
32.6599
  0
LINE
  8
0
 10
-108.039
 20
32.6599
 11
-108.353
 21
32.6599
  0
LINE
  8
0
 10
108.039
 20
32.6599
 11
107.727
 21
32.6992
  0
LINE
  8
0
 10
107.727
 20
32.6992
 11
107.423
 21
32.7773
  0
LINE
  8
0
 10
107.423
 20
32.7773
 11
107.131
 21
32.8929
  0
LINE
  8
0
 10
107.131
 20
32.8929
 11
106.856
 21
33.0441
  0
LINE
  8
0
 10
106.856
 20
33.0441
 11
106.602
 21
33.2287
  0
LINE
  8
0
 10
106.602
 20
33.2287
 11
106.373
 21
33.4436
  0
LINE
  8
0
 10
106.373
 20
33.4436
 11
106.173
 21
33.6855
  0
LINE
  8
0
 10
106.173
 20
33.6855
 11
106.005
 21
33.9506
  0
LINE
  8
0
 10
106.005
 20
33.9506
 11
105.871
 21
34.2346
  0
LINE
  8
0
 10
105.871
 20
34.2346
 11
105.774
 21
34.5332
  0
LINE
  8
0
 10
105.774
 20
34.5332
 11
105.716
 21
34.8416
  0
LINE
  8
0
 10
105.716
 20
34.8416
 11
105.696
 21
35.1549
  0
LINE
  8
0
 10
105.696
 20
35.1549
 11
105.716
 21
35.4683
  0
LINE
  8
0
 10
105.716
 20
35.4683
 11
105.774
 21
35.7767
  0
LINE
  8
0
 10
105.774
 20
35.7767
 11
105.871
 21
36.0752
  0
LINE
  8
0
 10
105.871
 20
36.0752
 11
106.005
 21
36.3593
  0
LINE
  8
0
 10
106.005
 20
36.3593
 11
106.173
 21
36.6244
  0
LINE
  8
0
 10
106.173
 20
36.6244
 11
106.373
 21
36.8663
  0
LINE
  8
0
 10
106.373
 20
36.8663
 11
106.602
 21
37.0812
  0
LINE
  8
0
 10
106.602
 20
37.0812
 11
106.856
 21
37.2657
  0
LINE
  8
0
 10
106.856
 20
37.2657
 11
107.131
 21
37.417
  0
LINE
  8
0
 10
107.131
 20
37.417
 11
107.423
 21
37.5326
  0
LINE
  8
0
 10
107.423
 20
37.5326
 11
107.727
 21
37.6107
  0
LINE
  8
0
 10
107.727
 20
37.6107
 11
108.039
 21
37.65
  0
LINE
  8
0
 10
108.039
 20
37.65
 11
108.353
 21
37.65
  0
LINE
  8
0
 10
108.353
 20
37.65
 11
108.664
 21
37.6107
  0
LINE
  8
0
 10
108.664
 20
37.6107
 11
108.968
 21
37.5326
  0
LINE
  8
0
 10
108.968
 20
37.5326
 11
109.26
 21
37.417
  0
LINE
  8
0
 10
109.26
 20
37.417
 11
109.535
 21
37.2658
  0
LINE
  8
0
 10
109.535
 20
37.2658
 11
109.789
 21
37.0812
  0
LINE
  8
0
 10
109.789
 20
37.0812
 11
110.018
 21
36.8663
  0
LINE
  8
0
 10
110.018
 20
36.8663
 11
110.218
 21
36.6244
  0
LINE
  8
0
 10
110.218
 20
36.6244
 11
110.387
 21
36.3593
  0
LINE
  8
0
 10
110.387
 20
36.3593
 11
110.52
 21
36.0752
  0
LINE
  8
0
 10
110.52
 20
36.0752
 11
110.617
 21
35.7767
  0
LINE
  8
0
 10
110.617
 20
35.7767
 11
110.676
 21
35.4683
  0
LINE
  8
0
 10
110.676
 20
35.4683
 11
110.696
 21
35.155
  0
LINE
  8
0
 10
110.696
 20
35.155
 11
110.676
 21
34.8416
  0
LINE
  8
0
 10
110.676
 20
34.8416
 11
110.617
 21
34.5332
  0
LINE
  8
0
 10
110.617
 20
34.5332
 11
110.52
 21
34.2346
  0
LINE
  8
0
 10
110.52
 20
34.2346
 11
110.387
 21
33.9506
  0
LINE
  8
0
 10
110.387
 20
33.9506
 11
110.218
 21
33.6855
  0
LINE
  8
0
 10
110.218
 20
33.6855
 11
110.018
 21
33.4436
  0
LINE
  8
0
 10
110.018
 20
33.4436
 11
109.789
 21
33.2287
  0
LINE
  8
0
 10
109.789
 20
33.2287
 11
109.535
 21
33.0441
  0
LINE
  8
0
 10
109.535
 20
33.0441
 11
109.26
 21
32.8929
  0
LINE
  8
0
 10
109.26
 20
32.8929
 11
108.968
 21
32.7773
  0
LINE
  8
0
 10
108.968
 20
32.7773
 11
108.664
 21
32.6992
  0
LINE
  8
0
 10
108.664
 20
32.6992
 11
108.353
 21
32.6599
  0
LINE
  8
0
 10
108.353
 20
32.6599
 11
108.039
 21
32.6599
  0
LINE
  8
0
 10
-79.8211
 20
23.3894
 11
-80.1326
 21
23.4287
  0
LINE
  8
0
 10
-80.1326
 20
23.4287
 11
-80.4366
 21
23.5068
  0
LINE
  8
0
 10
-80.4366
 20
23.5068
 11
-80.7286
 21
23.6224
  0
LINE
  8
0
 10
-80.7286
 20
23.6224
 11
-81.0037
 21
23.7736
  0
LINE
  8
0
 10
-81.0037
 20
23.7736
 11
-81.2577
 21
23.9582
  0
LINE
  8
0
 10
-81.2577
 20
23.9582
 11
-81.4865
 21
24.1731
  0
LINE
  8
0
 10
-81.4865
 20
24.1731
 11
-81.6867
 21
24.415
  0
LINE
  8
0
 10
-81.6867
 20
24.415
 11
-81.8549
 21
24.6801
  0
LINE
  8
0
 10
-81.8549
 20
24.6801
 11
-81.9886
 21
24.9641
  0
LINE
  8
0
 10
-81.9886
 20
24.9641
 11
-82.0856
 21
25.2627
  0
LINE
  8
0
 10
-82.0856
 20
25.2627
 11
-82.1444
 21
25.5711
  0
LINE
  8
0
 10
-82.1444
 20
25.5711
 11
-82.1641
 21
25.8844
  0
LINE
  8
0
 10
-82.1641
 20
25.8844
 11
-82.1444
 21
26.1978
  0
LINE
  8
0
 10
-82.1444
 20
26.1978
 11
-82.0856
 21
26.5062
  0
LINE
  8
0
 10
-82.0856
 20
26.5062
 11
-81.9886
 21
26.8047
  0
LINE
  8
0
 10
-81.9886
 20
26.8047
 11
-81.8549
 21
27.0888
  0
LINE
  8
0
 10
-81.8549
 20
27.0888
 11
-81.6866
 21
27.3539
  0
LINE
  8
0
 10
-81.6866
 20
27.3539
 11
-81.4865
 21
27.5958
  0
LINE
  8
0
 10
-81.4865
 20
27.5958
 11
-81.2577
 21
27.8107
  0
LINE
  8
0
 10
-81.2577
 20
27.8107
 11
-81.0037
 21
27.9952
  0
LINE
  8
0
 10
-81.0037
 20
27.9952
 11
-80.7286
 21
28.1465
  0
LINE
  8
0
 10
-80.7286
 20
28.1465
 11
-80.4367
 21
28.2621
  0
LINE
  8
0
 10
-80.4367
 20
28.2621
 11
-80.1326
 21
28.3401
  0
LINE
  8
0
 10
-80.1326
 20
28.3401
 11
-79.8211
 21
28.3795
  0
LINE
  8
0
 10
-79.8211
 20
28.3795
 11
-79.5071
 21
28.3795
  0
LINE
  8
0
 10
-79.5071
 20
28.3795
 11
-79.1957
 21
28.3401
  0
LINE
  8
0
 10
-79.1957
 20
28.3401
 11
-78.8916
 21
28.2621
  0
LINE
  8
0
 10
-78.8916
 20
28.2621
 11
-78.5997
 21
28.1465
  0
LINE
  8
0
 10
-78.5997
 20
28.1465
 11
-78.3246
 21
27.9952
  0
LINE
  8
0
 10
-78.3246
 20
27.9952
 11
-78.0706
 21
27.8107
  0
LINE
  8
0
 10
-78.0706
 20
27.8107
 11
-77.8417
 21
27.5958
  0
LINE
  8
0
 10
-77.8417
 20
27.5958
 11
-77.6416
 21
27.3539
  0
LINE
  8
0
 10
-77.6416
 20
27.3539
 11
-77.4733
 21
27.0888
  0
LINE
  8
0
 10
-77.4733
 20
27.0888
 11
-77.3397
 21
26.8047
  0
LINE
  8
0
 10
-77.3397
 20
26.8047
 11
-77.2426
 21
26.5061
  0
LINE
  8
0
 10
-77.2426
 20
26.5061
 11
-77.1838
 21
26.1978
  0
LINE
  8
0
 10
-77.1838
 20
26.1978
 11
-77.1641
 21
25.8844
  0
LINE
  8
0
 10
-77.1641
 20
25.8844
 11
-77.1838
 21
25.5711
  0
LINE
  8
0
 10
-77.1838
 20
25.5711
 11
-77.2426
 21
25.2627
  0
LINE
  8
0
 10
-77.2426
 20
25.2627
 11
-77.3397
 21
24.9641
  0
LINE
  8
0
 10
-77.3397
 20
24.9641
 11
-77.4733
 21
24.6801
  0
LINE
  8
0
 10
-77.4733
 20
24.6801
 11
-77.6416
 21
24.415
  0
LINE
  8
0
 10
-77.6416
 20
24.415
 11
-77.8417
 21
24.1731
  0
LINE
  8
0
 10
-77.8417
 20
24.1731
 11
-78.0705
 21
23.9582
  0
LINE
  8
0
 10
-78.0705
 20
23.9582
 11
-78.3245
 21
23.7736
  0
LINE
  8
0
 10
-78.3245
 20
23.7736
 11
-78.5997
 21
23.6224
  0
LINE
  8
0
 10
-78.5997
 20
23.6224
 11
-78.8916
 21
23.5068
  0
LINE
  8
0
 10
-78.8916
 20
23.5068
 11
-79.1957
 21
23.4287
  0
LINE
  8
0
 10
-79.1957
 20
23.4287
 11
-79.5071
 21
23.3894
  0
LINE
  8
0
 10
-79.5071
 20
23.3894
 11
-79.8211
 21
23.3894
  0
LINE
  8
0
 10
79.5071
 20
23.3894
 11
79.1957
 21
23.4287
  0
LINE
  8
0
 10
79.1957
 20
23.4287
 11
78.8916
 21
23.5068
  0
LINE
  8
0
 10
78.8916
 20
23.5068
 11
78.5997
 21
23.6224
  0
LINE
  8
0
 10
78.5997
 20
23.6224
 11
78.3245
 21
23.7736
  0
LINE
  8
0
 10
78.3245
 20
23.7736
 11
78.0705
 21
23.9582
  0
LINE
  8
0
 10
78.0705
 20
23.9582
 11
77.8417
 21
24.1731
  0
LINE
  8
0
 10
77.8417
 20
24.1731
 11
77.6416
 21
24.415
  0
LINE
  8
0
 10
77.6416
 20
24.415
 11
77.4733
 21
24.6801
  0
LINE
  8
0
 10
77.4733
 20
24.6801
 11
77.3397
 21
24.9641
  0
LINE
  8
0
 10
77.3397
 20
24.9641
 11
77.2426
 21
25.2627
  0
LINE
  8
0
 10
77.2426
 20
25.2627
 11
77.1838
 21
25.5711
  0
LINE
  8
0
 10
77.1838
 20
25.5711
 11
77.1641
 21
25.8844
  0
LINE
  8
0
 10
77.1641
 20
25.8844
 11
77.1838
 21
26.1978
  0
LINE
  8
0
 10
77.1838
 20
26.1978
 11
77.2426
 21
26.5061
  0
LINE
  8
0
 10
77.2426
 20
26.5061
 11
77.3397
 21
26.8047
  0
LINE
  8
0
 10
77.3397
 20
26.8047
 11
77.4733
 21
27.0888
  0
LINE
  8
0
 10
77.4733
 20
27.0888
 11
77.6416
 21
27.3539
  0
LINE
  8
0
 10
77.6416
 20
27.3539
 11
77.8417
 21
27.5958
  0
LINE
  8
0
 10
77.8417
 20
27.5958
 11
78.0706
 21
27.8107
  0
LINE
  8
0
 10
78.0706
 20
27.8107
 11
78.3246
 21
27.9952
  0
LINE
  8
0
 10
78.3246
 20
27.9952
 11
78.5997
 21
28.1465
  0
LINE
  8
0
 10
78.5997
 20
28.1465
 11
78.8916
 21
28.2621
  0
LINE
  8
0
 10
78.8916
 20
28.2621
 11
79.1957
 21
28.3401
  0
LINE
  8
0
 10
79.1957
 20
28.3401
 11
79.5071
 21
28.3795
  0
LINE
  8
0
 10
79.5071
 20
28.3795
 11
79.8211
 21
28.3795
  0
LINE
  8
0
 10
79.8211
 20
28.3795
 11
80.1326
 21
28.3401
  0
LINE
  8
0
 10
80.1326
 20
28.3401
 11
80.4367
 21
28.2621
  0
LINE
  8
0
 10
80.4367
 20
28.2621
 11
80.7286
 21
28.1465
  0
LINE
  8
0
 10
80.7286
 20
28.1465
 11
81.0037
 21
27.9952
  0
LINE
  8
0
 10
81.0037
 20
27.9952
 11
81.2577
 21
27.8107
  0
LINE
  8
0
 10
81.2577
 20
27.8107
 11
81.4865
 21
27.5958
  0
LINE
  8
0
 10
81.4865
 20
27.5958
 11
81.6866
 21
27.3539
  0
LINE
  8
0
 10
81.6866
 20
27.3539
 11
81.8549
 21
27.0888
  0
LINE
  8
0
 10
81.8549
 20
27.0888
 11
81.9886
 21
26.8047
  0
LINE
  8
0
 10
81.9886
 20
26.8047
 11
82.0856
 21
26.5062
  0
LINE
  8
0
 10
82.0856
 20
26.5062
 11
82.1444
 21
26.1978
  0
LINE
  8
0
 10
82.1444
 20
26.1978
 11
82.1641
 21
25.8844
  0
LINE
  8
0
 10
82.1641
 20
25.8844
 11
82.1444
 21
25.5711
  0
LINE
  8
0
 10
82.1444
 20
25.5711
 11
82.0856
 21
25.2627
  0
LINE
  8
0
 10
82.0856
 20
25.2627
 11
81.9886
 21
24.9641
  0
LINE
  8
0
 10
81.9886
 20
24.9641
 11
81.8549
 21
24.6801
  0
LINE
  8
0
 10
81.8549
 20
24.6801
 11
81.6867
 21
24.415
  0
LINE
  8
0
 10
81.6867
 20
24.415
 11
81.4865
 21
24.1731
  0
LINE
  8
0
 10
81.4865
 20
24.1731
 11
81.2577
 21
23.9582
  0
LINE
  8
0
 10
81.2577
 20
23.9582
 11
81.0037
 21
23.7736
  0
LINE
  8
0
 10
81.0037
 20
23.7736
 11
80.7286
 21
23.6224
  0
LINE
  8
0
 10
80.7286
 20
23.6224
 11
80.4366
 21
23.5068
  0
LINE
  8
0
 10
80.4366
 20
23.5068
 11
80.1326
 21
23.4287
  0
LINE
  8
0
 10
80.1326
 20
23.4287
 11
79.8211
 21
23.3894
  0
LINE
  8
0
 10
79.8211
 20
23.3894
 11
79.5071
 21
23.3894
  0
LINE
  8
0
 10
60.486
 20
17.209
 11
60.1745
 21
17.2484
  0
LINE
  8
0
 10
60.1745
 20
17.2484
 11
59.8704
 21
17.3265
  0
LINE
  8
0
 10
59.8704
 20
17.3265
 11
59.5785
 21
17.442
  0
LINE
  8
0
 10
59.5785
 20
17.442
 11
59.3034
 21
17.5933
  0
LINE
  8
0
 10
59.3034
 20
17.5933
 11
59.0494
 21
17.7778
  0
LINE
  8
0
 10
59.0494
 20
17.7778
 11
58.8206
 21
17.9927
  0
LINE
  8
0
 10
58.8206
 20
17.9927
 11
58.6204
 21
18.2346
  0
LINE
  8
0
 10
58.6204
 20
18.2346
 11
58.4522
 21
18.4997
  0
LINE
  8
0
 10
58.4522
 20
18.4997
 11
58.3185
 21
18.7838
  0
LINE
  8
0
 10
58.3185
 20
18.7838
 11
58.2215
 21
19.0824
  0
LINE
  8
0
 10
58.2215
 20
19.0824
 11
58.1627
 21
19.3907
  0
LINE
  8
0
 10
58.1627
 20
19.3907
 11
58.143
 21
19.7041
  0
LINE
  8
0
 10
58.143
 20
19.7041
 11
58.1627
 21
20.0174
  0
LINE
  8
0
 10
58.1627
 20
20.0174
 11
58.2215
 21
20.3258
  0
LINE
  8
0
 10
58.2215
 20
20.3258
 11
58.3185
 21
20.6244
  0
LINE
  8
0
 10
58.3185
 20
20.6244
 11
58.4522
 21
20.9085
  0
LINE
  8
0
 10
58.4522
 20
20.9085
 11
58.6204
 21
21.1736
  0
LINE
  8
0
 10
58.6204
 20
21.1736
 11
58.8206
 21
21.4155
  0
LINE
  8
0
 10
58.8206
 20
21.4155
 11
59.0494
 21
21.6304
  0
LINE
  8
0
 10
59.0494
 20
21.6304
 11
59.3034
 21
21.8149
  0
LINE
  8
0
 10
59.3034
 20
21.8149
 11
59.5785
 21
21.9662
  0
LINE
  8
0
 10
59.5785
 20
21.9662
 11
59.8704
 21
22.0817
  0
LINE
  8
0
 10
59.8704
 20
22.0817
 11
60.1745
 21
22.1598
  0
LINE
  8
0
 10
60.1745
 20
22.1598
 11
60.486
 21
22.1992
  0
LINE
  8
0
 10
60.486
 20
22.1992
 11
60.8
 21
22.1992
  0
LINE
  8
0
 10
60.8
 20
22.1992
 11
61.1114
 21
22.1598
  0
LINE
  8
0
 10
61.1114
 20
22.1598
 11
61.4155
 21
22.0817
  0
LINE
  8
0
 10
61.4155
 20
22.0817
 11
61.7074
 21
21.9662
  0
LINE
  8
0
 10
61.7074
 20
21.9662
 11
61.9825
 21
21.8149
  0
LINE
  8
0
 10
61.9825
 20
21.8149
 11
62.2365
 21
21.6304
  0
LINE
  8
0
 10
62.2365
 20
21.6304
 11
62.4654
 21
21.4155
  0
LINE
  8
0
 10
62.4654
 20
21.4155
 11
62.6655
 21
21.1736
  0
LINE
  8
0
 10
62.6655
 20
21.1736
 11
62.8338
 21
20.9085
  0
LINE
  8
0
 10
62.8338
 20
20.9085
 11
62.9674
 21
20.6244
  0
LINE
  8
0
 10
62.9674
 20
20.6244
 11
63.0644
 21
20.3258
  0
LINE
  8
0
 10
63.0644
 20
20.3258
 11
63.1233
 21
20.0174
  0
LINE
  8
0
 10
63.1233
 20
20.0174
 11
63.143
 21
19.7041
  0
LINE
  8
0
 10
63.143
 20
19.7041
 11
63.1233
 21
19.3908
  0
LINE
  8
0
 10
63.1233
 20
19.3908
 11
63.0644
 21
19.0824
  0
LINE
  8
0
 10
63.0644
 20
19.0824
 11
62.9674
 21
18.7838
  0
LINE
  8
0
 10
62.9674
 20
18.7838
 11
62.8337
 21
18.4997
  0
LINE
  8
0
 10
62.8337
 20
18.4997
 11
62.6655
 21
18.2346
  0
LINE
  8
0
 10
62.6655
 20
18.2346
 11
62.4654
 21
17.9927
  0
LINE
  8
0
 10
62.4654
 20
17.9927
 11
62.2365
 21
17.7778
  0
LINE
  8
0
 10
62.2365
 20
17.7778
 11
61.9826
 21
17.5933
  0
LINE
  8
0
 10
61.9826
 20
17.5933
 11
61.7074
 21
17.442
  0
LINE
  8
0
 10
61.7074
 20
17.442
 11
61.4155
 21
17.3264
  0
LINE
  8
0
 10
61.4155
 20
17.3264
 11
61.1114
 21
17.2484
  0
LINE
  8
0
 10
61.1114
 20
17.2484
 11
60.8
 21
17.209
  0
LINE
  8
0
 10
60.8
 20
17.209
 11
60.486
 21
17.209
  0
LINE
  8
0
 10
-60.8
 20
17.209
 11
-61.1114
 21
17.2484
  0
LINE
  8
0
 10
-61.1114
 20
17.2484
 11
-61.4155
 21
17.3264
  0
LINE
  8
0
 10
-61.4155
 20
17.3264
 11
-61.7074
 21
17.442
  0
LINE
  8
0
 10
-61.7074
 20
17.442
 11
-61.9826
 21
17.5933
  0
LINE
  8
0
 10
-61.9826
 20
17.5933
 11
-62.2365
 21
17.7778
  0
LINE
  8
0
 10
-62.2365
 20
17.7778
 11
-62.4654
 21
17.9927
  0
LINE
  8
0
 10
-62.4654
 20
17.9927
 11
-62.6655
 21
18.2346
  0
LINE
  8
0
 10
-62.6655
 20
18.2346
 11
-62.8337
 21
18.4997
  0
LINE
  8
0
 10
-62.8337
 20
18.4997
 11
-62.9674
 21
18.7838
  0
LINE
  8
0
 10
-62.9674
 20
18.7838
 11
-63.0644
 21
19.0824
  0
LINE
  8
0
 10
-63.0644
 20
19.0824
 11
-63.1233
 21
19.3908
  0
LINE
  8
0
 10
-63.1233
 20
19.3908
 11
-63.143
 21
19.7041
  0
LINE
  8
0
 10
-63.143
 20
19.7041
 11
-63.1233
 21
20.0174
  0
LINE
  8
0
 10
-63.1233
 20
20.0174
 11
-63.0644
 21
20.3258
  0
LINE
  8
0
 10
-63.0644
 20
20.3258
 11
-62.9674
 21
20.6244
  0
LINE
  8
0
 10
-62.9674
 20
20.6244
 11
-62.8338
 21
20.9085
  0
LINE
  8
0
 10
-62.8338
 20
20.9085
 11
-62.6655
 21
21.1736
  0
LINE
  8
0
 10
-62.6655
 20
21.1736
 11
-62.4654
 21
21.4155
  0
LINE
  8
0
 10
-62.4654
 20
21.4155
 11
-62.2365
 21
21.6304
  0
LINE
  8
0
 10
-62.2365
 20
21.6304
 11
-61.9825
 21
21.8149
  0
LINE
  8
0
 10
-61.9825
 20
21.8149
 11
-61.7074
 21
21.9662
  0
LINE
  8
0
 10
-61.7074
 20
21.9662
 11
-61.4155
 21
22.0817
  0
LINE
  8
0
 10
-61.4155
 20
22.0817
 11
-61.1114
 21
22.1598
  0
LINE
  8
0
 10
-61.1114
 20
22.1598
 11
-60.8
 21
22.1992
  0
LINE
  8
0
 10
-60.8
 20
22.1992
 11
-60.486
 21
22.1992
  0
LINE
  8
0
 10
-60.486
 20
22.1992
 11
-60.1745
 21
22.1598
  0
LINE
  8
0
 10
-60.1745
 20
22.1598
 11
-59.8704
 21
22.0817
  0
LINE
  8
0
 10
-59.8704
 20
22.0817
 11
-59.5785
 21
21.9662
  0
LINE
  8
0
 10
-59.5785
 20
21.9662
 11
-59.3034
 21
21.8149
  0
LINE
  8
0
 10
-59.3034
 20
21.8149
 11
-59.0494
 21
21.6304
  0
LINE
  8
0
 10
-59.0494
 20
21.6304
 11
-58.8206
 21
21.4155
  0
LINE
  8
0
 10
-58.8206
 20
21.4155
 11
-58.6204
 21
21.1736
  0
LINE
  8
0
 10
-58.6204
 20
21.1736
 11
-58.4522
 21
20.9085
  0
LINE
  8
0
 10
-58.4522
 20
20.9085
 11
-58.3185
 21
20.6244
  0
LINE
  8
0
 10
-58.3185
 20
20.6244
 11
-58.2215
 21
20.3258
  0
LINE
  8
0
 10
-58.2215
 20
20.3258
 11
-58.1627
 21
20.0174
  0
LINE
  8
0
 10
-58.1627
 20
20.0174
 11
-58.143
 21
19.7041
  0
LINE
  8
0
 10
-58.143
 20
19.7041
 11
-58.1627
 21
19.3907
  0
LINE
  8
0
 10
-58.1627
 20
19.3907
 11
-58.2215
 21
19.0824
  0
LINE
  8
0
 10
-58.2215
 20
19.0824
 11
-58.3185
 21
18.7838
  0
LINE
  8
0
 10
-58.3185
 20
18.7838
 11
-58.4522
 21
18.4997
  0
LINE
  8
0
 10
-58.4522
 20
18.4997
 11
-58.6204
 21
18.2346
  0
LINE
  8
0
 10
-58.6204
 20
18.2346
 11
-58.8206
 21
17.9927
  0
LINE
  8
0
 10
-58.8206
 20
17.9927
 11
-59.0494
 21
17.7778
  0
LINE
  8
0
 10
-59.0494
 20
17.7778
 11
-59.3034
 21
17.5933
  0
LINE
  8
0
 10
-59.3034
 20
17.5933
 11
-59.5785
 21
17.442
  0
LINE
  8
0
 10
-59.5785
 20
17.442
 11
-59.8704
 21
17.3265
  0
LINE
  8
0
 10
-59.8704
 20
17.3265
 11
-60.1745
 21
17.2484
  0
LINE
  8
0
 10
-60.1745
 20
17.2484
 11
-60.486
 21
17.209
  0
LINE
  8
0
 10
-60.486
 20
17.209
 11
-60.8
 21
17.209
  0
LINE
  8
0
 10
31.9543
 20
7.93852
 11
31.6428
 21
7.97787
  0
LINE
  8
0
 10
31.6428
 20
7.97787
 11
31.3387
 21
8.05594
  0
LINE
  8
0
 10
31.3387
 20
8.05594
 11
31.0468
 21
8.17152
  0
LINE
  8
0
 10
31.0468
 20
8.17152
 11
30.7717
 21
8.32277
  0
LINE
  8
0
 10
30.7717
 20
8.32277
 11
30.5177
 21
8.50731
  0
LINE
  8
0
 10
30.5177
 20
8.50731
 11
30.2888
 21
8.72223
  0
LINE
  8
0
 10
30.2888
 20
8.72223
 11
30.0887
 21
8.96413
  0
LINE
  8
0
 10
30.0887
 20
8.96413
 11
29.9205
 21
9.2292
  0
LINE
  8
0
 10
29.9205
 20
9.2292
 11
29.7868
 21
9.51328
  0
LINE
  8
0
 10
29.7868
 20
9.51328
 11
29.6898
 21
9.81184
  0
LINE
  8
0
 10
29.6898
 20
9.81184
 11
29.631
 21
10.1202
  0
LINE
  8
0
 10
29.631
 20
10.1202
 11
29.6113
 21
10.4336
  0
LINE
  8
0
 10
29.6113
 20
10.4336
 11
29.631
 21
10.7469
  0
LINE
  8
0
 10
29.631
 20
10.7469
 11
29.6898
 21
11.0553
  0
LINE
  8
0
 10
29.6898
 20
11.0553
 11
29.7868
 21
11.3539
  0
LINE
  8
0
 10
29.7868
 20
11.3539
 11
29.9205
 21
11.638
  0
LINE
  8
0
 10
29.9205
 20
11.638
 11
30.0887
 21
11.903
  0
LINE
  8
0
 10
30.0887
 20
11.903
 11
30.2889
 21
12.145
  0
LINE
  8
0
 10
30.2889
 20
12.145
 11
30.5177
 21
12.3599
  0
LINE
  8
0
 10
30.5177
 20
12.3599
 11
30.7717
 21
12.5444
  0
LINE
  8
0
 10
30.7717
 20
12.5444
 11
31.0468
 21
12.6956
  0
LINE
  8
0
 10
31.0468
 20
12.6956
 11
31.3387
 21
12.8112
  0
LINE
  8
0
 10
31.3387
 20
12.8112
 11
31.6428
 21
12.8893
  0
LINE
  8
0
 10
31.6428
 20
12.8893
 11
31.9543
 21
12.9286
  0
LINE
  8
0
 10
31.9543
 20
12.9286
 11
32.2683
 21
12.9286
  0
LINE
  8
0
 10
32.2683
 20
12.9286
 11
32.5797
 21
12.8893
  0
LINE
  8
0
 10
32.5797
 20
12.8893
 11
32.8838
 21
12.8112
  0
LINE
  8
0
 10
32.8838
 20
12.8112
 11
33.1757
 21
12.6956
  0
LINE
  8
0
 10
33.1757
 20
12.6956
 11
33.4509
 21
12.5444
  0
LINE
  8
0
 10
33.4509
 20
12.5444
 11
33.7048
 21
12.3598
  0
LINE
  8
0
 10
33.7048
 20
12.3598
 11
33.9337
 21
12.1449
  0
LINE
  8
0
 10
33.9337
 20
12.1449
 11
34.1338
 21
11.903
  0
LINE
  8
0
 10
34.1338
 20
11.903
 11
34.302
 21
11.638
  0
LINE
  8
0
 10
34.302
 20
11.638
 11
34.4357
 21
11.3539
  0
LINE
  8
0
 10
34.4357
 20
11.3539
 11
34.5327
 21
11.0553
  0
LINE
  8
0
 10
34.5327
 20
11.0553
 11
34.5916
 21
10.7469
  0
LINE
  8
0
 10
34.5916
 20
10.7469
 11
34.6113
 21
10.4336
  0
LINE
  8
0
 10
34.6113
 20
10.4336
 11
34.5916
 21
10.1203
  0
LINE
  8
0
 10
34.5916
 20
10.1203
 11
34.5327
 21
9.81187
  0
LINE
  8
0
 10
34.5327
 20
9.81187
 11
34.4357
 21
9.51328
  0
LINE
  8
0
 10
34.4357
 20
9.51328
 11
34.302
 21
9.2292
  0
LINE
  8
0
 10
34.302
 20
9.2292
 11
34.1338
 21
8.96413
  0
LINE
  8
0
 10
34.1338
 20
8.96413
 11
33.9337
 21
8.72221
  0
LINE
  8
0
 10
33.9337
 20
8.72221
 11
33.7048
 21
8.50731
  0
LINE
  8
0
 10
33.7048
 20
8.50731
 11
33.4509
 21
8.32277
  0
LINE
  8
0
 10
33.4509
 20
8.32277
 11
33.1757
 21
8.17152
  0
LINE
  8
0
 10
33.1757
 20
8.17152
 11
32.8838
 21
8.05594
  0
LINE
  8
0
 10
32.8838
 20
8.05594
 11
32.5797
 21
7.97787
  0
LINE
  8
0
 10
32.5797
 20
7.97787
 11
32.2683
 21
7.93852
  0
LINE
  8
0
 10
32.2683
 20
7.93852
 11
31.9543
 21
7.93852
  0
LINE
  8
0
 10
-32.2683
 20
7.93852
 11
-32.5797
 21
7.97787
  0
LINE
  8
0
 10
-32.5797
 20
7.97787
 11
-32.8838
 21
8.05594
  0
LINE
  8
0
 10
-32.8838
 20
8.05594
 11
-33.1757
 21
8.17152
  0
LINE
  8
0
 10
-33.1757
 20
8.17152
 11
-33.4509
 21
8.32277
  0
LINE
  8
0
 10
-33.4509
 20
8.32277
 11
-33.7048
 21
8.50731
  0
LINE
  8
0
 10
-33.7048
 20
8.50731
 11
-33.9337
 21
8.72221
  0
LINE
  8
0
 10
-33.9337
 20
8.72221
 11
-34.1338
 21
8.96413
  0
LINE
  8
0
 10
-34.1338
 20
8.96413
 11
-34.302
 21
9.2292
  0
LINE
  8
0
 10
-34.302
 20
9.2292
 11
-34.4357
 21
9.51328
  0
LINE
  8
0
 10
-34.4357
 20
9.51328
 11
-34.5327
 21
9.81187
  0
LINE
  8
0
 10
-34.5327
 20
9.81187
 11
-34.5916
 21
10.1203
  0
LINE
  8
0
 10
-34.5916
 20
10.1203
 11
-34.6113
 21
10.4336
  0
LINE
  8
0
 10
-34.6113
 20
10.4336
 11
-34.5916
 21
10.7469
  0
LINE
  8
0
 10
-34.5916
 20
10.7469
 11
-34.5327
 21
11.0553
  0
LINE
  8
0
 10
-34.5327
 20
11.0553
 11
-34.4357
 21
11.3539
  0
LINE
  8
0
 10
-34.4357
 20
11.3539
 11
-34.302
 21
11.638
  0
LINE
  8
0
 10
-34.302
 20
11.638
 11
-34.1338
 21
11.903
  0
LINE
  8
0
 10
-34.1338
 20
11.903
 11
-33.9337
 21
12.1449
  0
LINE
  8
0
 10
-33.9337
 20
12.1449
 11
-33.7048
 21
12.3598
  0
LINE
  8
0
 10
-33.7048
 20
12.3598
 11
-33.4509
 21
12.5444
  0
LINE
  8
0
 10
-33.4509
 20
12.5444
 11
-33.1757
 21
12.6956
  0
LINE
  8
0
 10
-33.1757
 20
12.6956
 11
-32.8838
 21
12.8112
  0
LINE
  8
0
 10
-32.8838
 20
12.8112
 11
-32.5797
 21
12.8893
  0
LINE
  8
0
 10
-32.5797
 20
12.8893
 11
-32.2683
 21
12.9286
  0
LINE
  8
0
 10
-32.2683
 20
12.9286
 11
-31.9543
 21
12.9286
  0
LINE
  8
0
 10
-31.9543
 20
12.9286
 11
-31.6428
 21
12.8893
  0
LINE
  8
0
 10
-31.6428
 20
12.8893
 11
-31.3387
 21
12.8112
  0
LINE
  8
0
 10
-31.3387
 20
12.8112
 11
-31.0468
 21
12.6956
  0
LINE
  8
0
 10
-31.0468
 20
12.6956
 11
-30.7717
 21
12.5444
  0
LINE
  8
0
 10
-30.7717
 20
12.5444
 11
-30.5177
 21
12.3599
  0
LINE
  8
0
 10
-30.5177
 20
12.3599
 11
-30.2889
 21
12.145
  0
LINE
  8
0
 10
-30.2889
 20
12.145
 11
-30.0887
 21
11.903
  0
LINE
  8
0
 10
-30.0887
 20
11.903
 11
-29.9205
 21
11.638
  0
LINE
  8
0
 10
-29.9205
 20
11.638
 11
-29.7868
 21
11.3539
  0
LINE
  8
0
 10
-29.7868
 20
11.3539
 11
-29.6898
 21
11.0553
  0
LINE
  8
0
 10
-29.6898
 20
11.0553
 11
-29.631
 21
10.7469
  0
LINE
  8
0
 10
-29.631
 20
10.7469
 11
-29.6113
 21
10.4336
  0
LINE
  8
0
 10
-29.6113
 20
10.4336
 11
-29.631
 21
10.1202
  0
LINE
  8
0
 10
-29.631
 20
10.1202
 11
-29.6898
 21
9.81184
  0
LINE
  8
0
 10
-29.6898
 20
9.81184
 11
-29.7868
 21
9.51328
  0
LINE
  8
0
 10
-29.7868
 20
9.51328
 11
-29.9205
 21
9.2292
  0
LINE
  8
0
 10
-29.9205
 20
9.2292
 11
-30.0887
 21
8.96413
  0
LINE
  8
0
 10
-30.0887
 20
8.96413
 11
-30.2888
 21
8.72223
  0
LINE
  8
0
 10
-30.2888
 20
8.72223
 11
-30.5177
 21
8.50731
  0
LINE
  8
0
 10
-30.5177
 20
8.50731
 11
-30.7717
 21
8.32277
  0
LINE
  8
0
 10
-30.7717
 20
8.32277
 11
-31.0468
 21
8.17152
  0
LINE
  8
0
 10
-31.0468
 20
8.17152
 11
-31.3387
 21
8.05594
  0
LINE
  8
0
 10
-31.3387
 20
8.05594
 11
-31.6428
 21
7.97787
  0
LINE
  8
0
 10
-31.6428
 20
7.97787
 11
-31.9543
 21
7.93852
  0
LINE
  8
0
 10
-31.9543
 20
7.93852
 11
-32.2683
 21
7.93852
  0
LINE
  8
0
 10
-1.76776
 20
-1.76776
 11
-2.5
 21
0
  0
LINE
  8
0
 10
-2.5
 20
0
 11
-1.76776
 21
1.76776
  0
LINE
  8
0
 10
-1.76776
 20
1.76776
 11
0
 21
2.5
  0
LINE
  8
0
 10
0
 20
2.5
 11
1.76776
 21
1.76776
  0
LINE
  8
0
 10
1.76776
 20
1.76776
 11
2.5
 21
0
  0
LINE
  8
0
 10
2.5
 20
0
 11
1.76776
 21
-1.76776
  0
LINE
  8
0
 10
1.76776
 20
-1.76776
 11
0
 21
-2.5
  0
LINE
  8
0
 10
0
 20
-2.5
 11
-1.76776
 21
-1.76776
  0
LINE
  8
0
 10
-20.0029
 20
-29.8105
 11
-20.3143
 21
-29.7712
  0
LINE
  8
0
 10
-20.3143
 20
-29.7712
 11
-20.6184
 21
-29.6931
  0
LINE
  8
0
 10
-20.6184
 20
-29.6931
 11
-20.9103
 21
-29.5775
  0
LINE
  8
0
 10
-20.9103
 20
-29.5775
 11
-21.1854
 21
-29.4263
  0
LINE
  8
0
 10
-21.1854
 20
-29.4263
 11
-21.4394
 21
-29.2418
  0
LINE
  8
0
 10
-21.4394
 20
-29.2418
 11
-21.6683
 21
-29.0269
  0
LINE
  8
0
 10
-21.6683
 20
-29.0269
 11
-21.8684
 21
-28.785
  0
LINE
  8
0
 10
-21.8684
 20
-28.785
 11
-22.0366
 21
-28.5199
  0
LINE
  8
0
 10
-22.0366
 20
-28.5199
 11
-22.1703
 21
-28.2358
  0
LINE
  8
0
 10
-22.1703
 20
-28.2358
 11
-22.2673
 21
-27.9372
  0
LINE
  8
0
 10
-22.2673
 20
-27.9372
 11
-22.3261
 21
-27.6288
  0
LINE
  8
0
 10
-22.3261
 20
-27.6288
 11
-22.3459
 21
-27.3155
  0
LINE
  8
0
 10
-22.3459
 20
-27.3155
 11
-22.3262
 21
-27.0022
  0
LINE
  8
0
 10
-22.3262
 20
-27.0022
 11
-22.2673
 21
-26.6938
  0
LINE
  8
0
 10
-22.2673
 20
-26.6938
 11
-22.1703
 21
-26.3952
  0
LINE
  8
0
 10
-22.1703
 20
-26.3952
 11
-22.0366
 21
-26.1111
  0
LINE
  8
0
 10
-22.0366
 20
-26.1111
 11
-21.8684
 21
-25.846
  0
LINE
  8
0
 10
-21.8684
 20
-25.846
 11
-21.6683
 21
-25.6041
  0
LINE
  8
0
 10
-21.6683
 20
-25.6041
 11
-21.4394
 21
-25.3892
  0
LINE
  8
0
 10
-21.4394
 20
-25.3892
 11
-21.1854
 21
-25.2047
  0
LINE
  8
0
 10
-21.1854
 20
-25.2047
 11
-20.9103
 21
-25.0534
  0
LINE
  8
0
 10
-20.9103
 20
-25.0534
 11
-20.6184
 21
-24.9379
  0
LINE
  8
0
 10
-20.6184
 20
-24.9379
 11
-20.3143
 21
-24.8598
  0
LINE
  8
0
 10
-20.3143
 20
-24.8598
 11
-20.0028
 21
-24.8204
  0
LINE
  8
0
 10
-20.0028
 20
-24.8204
 11
-19.6889
 21
-24.8204
  0
LINE
  8
0
 10
-19.6889
 20
-24.8204
 11
-19.3774
 21
-24.8598
  0
LINE
  8
0
 10
-19.3774
 20
-24.8598
 11
-19.0733
 21
-24.9379
  0
LINE
  8
0
 10
-19.0733
 20
-24.9379
 11
-18.7814
 21
-25.0534
  0
LINE
  8
0
 10
-18.7814
 20
-25.0534
 11
-18.5063
 21
-25.2047
  0
LINE
  8
0
 10
-18.5063
 20
-25.2047
 11
-18.2523
 21
-25.3892
  0
LINE
  8
0
 10
-18.2523
 20
-25.3892
 11
-18.0235
 21
-25.6041
  0
LINE
  8
0
 10
-18.0235
 20
-25.6041
 11
-17.8233
 21
-25.846
  0
LINE
  8
0
 10
-17.8233
 20
-25.846
 11
-17.6551
 21
-26.1111
  0
LINE
  8
0
 10
-17.6551
 20
-26.1111
 11
-17.5214
 21
-26.3952
  0
LINE
  8
0
 10
-17.5214
 20
-26.3952
 11
-17.4244
 21
-26.6938
  0
LINE
  8
0
 10
-17.4244
 20
-26.6938
 11
-17.3656
 21
-27.0022
  0
LINE
  8
0
 10
-17.3656
 20
-27.0022
 11
-17.3459
 21
-27.3155
  0
LINE
  8
0
 10
-17.3459
 20
-27.3155
 11
-17.3656
 21
-27.6288
  0
LINE
  8
0
 10
-17.3656
 20
-27.6288
 11
-17.4244
 21
-27.9372
  0
LINE
  8
0
 10
-17.4244
 20
-27.9372
 11
-17.5214
 21
-28.2358
  0
LINE
  8
0
 10
-17.5214
 20
-28.2358
 11
-17.6551
 21
-28.5199
  0
LINE
  8
0
 10
-17.6551
 20
-28.5199
 11
-17.8233
 21
-28.785
  0
LINE
  8
0
 10
-17.8233
 20
-28.785
 11
-18.0234
 21
-29.0269
  0
LINE
  8
0
 10
-18.0234
 20
-29.0269
 11
-18.2523
 21
-29.2418
  0
LINE
  8
0
 10
-18.2523
 20
-29.2418
 11
-18.5063
 21
-29.4263
  0
LINE
  8
0
 10
-18.5063
 20
-29.4263
 11
-18.7814
 21
-29.5776
  0
LINE
  8
0
 10
-18.7814
 20
-29.5776
 11
-19.0733
 21
-29.6931
  0
LINE
  8
0
 10
-19.0733
 20
-29.6931
 11
-19.3774
 21
-29.7712
  0
LINE
  8
0
 10
-19.3774
 20
-29.7712
 11
-19.6889
 21
-29.8105
  0
LINE
  8
0
 10
-19.6889
 20
-29.8105
 11
-20.0029
 21
-29.8105
  0
LINE
  8
0
 10
19.6889
 20
-29.8105
 11
19.3774
 21
-29.7712
  0
LINE
  8
0
 10
19.3774
 20
-29.7712
 11
19.0733
 21
-29.6931
  0
LINE
  8
0
 10
19.0733
 20
-29.6931
 11
18.7814
 21
-29.5776
  0
LINE
  8
0
 10
18.7814
 20
-29.5776
 11
18.5063
 21
-29.4263
  0
LINE
  8
0
 10
18.5063
 20
-29.4263
 11
18.2523
 21
-29.2418
  0
LINE
  8
0
 10
18.2523
 20
-29.2418
 11
18.0234
 21
-29.0269
  0
LINE
  8
0
 10
18.0234
 20
-29.0269
 11
17.8233
 21
-28.785
  0
LINE
  8
0
 10
17.8233
 20
-28.785
 11
17.6551
 21
-28.5199
  0
LINE
  8
0
 10
17.6551
 20
-28.5199
 11
17.5214
 21
-28.2358
  0
LINE
  8
0
 10
17.5214
 20
-28.2358
 11
17.4244
 21
-27.9372
  0
LINE
  8
0
 10
17.4244
 20
-27.9372
 11
17.3656
 21
-27.6288
  0
LINE
  8
0
 10
17.3656
 20
-27.6288
 11
17.3459
 21
-27.3155
  0
LINE
  8
0
 10
17.3459
 20
-27.3155
 11
17.3656
 21
-27.0022
  0
LINE
  8
0
 10
17.3656
 20
-27.0022
 11
17.4244
 21
-26.6938
  0
LINE
  8
0
 10
17.4244
 20
-26.6938
 11
17.5214
 21
-26.3952
  0
LINE
  8
0
 10
17.5214
 20
-26.3952
 11
17.6551
 21
-26.1111
  0
LINE
  8
0
 10
17.6551
 20
-26.1111
 11
17.8233
 21
-25.846
  0
LINE
  8
0
 10
17.8233
 20
-25.846
 11
18.0235
 21
-25.6041
  0
LINE
  8
0
 10
18.0235
 20
-25.6041
 11
18.2523
 21
-25.3892
  0
LINE
  8
0
 10
18.2523
 20
-25.3892
 11
18.5063
 21
-25.2047
  0
LINE
  8
0
 10
18.5063
 20
-25.2047
 11
18.7814
 21
-25.0534
  0
LINE
  8
0
 10
18.7814
 20
-25.0534
 11
19.0733
 21
-24.9379
  0
LINE
  8
0
 10
19.0733
 20
-24.9379
 11
19.3774
 21
-24.8598
  0
LINE
  8
0
 10
19.3774
 20
-24.8598
 11
19.6889
 21
-24.8204
  0
LINE
  8
0
 10
19.6889
 20
-24.8204
 11
20.0028
 21
-24.8204
  0
LINE
  8
0
 10
20.0028
 20
-24.8204
 11
20.3143
 21
-24.8598
  0
LINE
  8
0
 10
20.3143
 20
-24.8598
 11
20.6184
 21
-24.9379
  0
LINE
  8
0
 10
20.6184
 20
-24.9379
 11
20.9103
 21
-25.0534
  0
LINE
  8
0
 10
20.9103
 20
-25.0534
 11
21.1854
 21
-25.2047
  0
LINE
  8
0
 10
21.1854
 20
-25.2047
 11
21.4394
 21
-25.3892
  0
LINE
  8
0
 10
21.4394
 20
-25.3892
 11
21.6683
 21
-25.6041
  0
LINE
  8
0
 10
21.6683
 20
-25.6041
 11
21.8684
 21
-25.846
  0
LINE
  8
0
 10
21.8684
 20
-25.846
 11
22.0366
 21
-26.1111
  0
LINE
  8
0
 10
22.0366
 20
-26.1111
 11
22.1703
 21
-26.3952
  0
LINE
  8
0
 10
22.1703
 20
-26.3952
 11
22.2673
 21
-26.6938
  0
LINE
  8
0
 10
22.2673
 20
-26.6938
 11
22.3262
 21
-27.0022
  0
LINE
  8
0
 10
22.3262
 20
-27.0022
 11
22.3459
 21
-27.3155
  0
LINE
  8
0
 10
22.3459
 20
-27.3155
 11
22.3261
 21
-27.6288
  0
LINE
  8
0
 10
22.3261
 20
-27.6288
 11
22.2673
 21
-27.9372
  0
LINE
  8
0
 10
22.2673
 20
-27.9372
 11
22.1703
 21
-28.2358
  0
LINE
  8
0
 10
22.1703
 20
-28.2358
 11
22.0366
 21
-28.5199
  0
LINE
  8
0
 10
22.0366
 20
-28.5199
 11
21.8684
 21
-28.785
  0
LINE
  8
0
 10
21.8684
 20
-28.785
 11
21.6683
 21
-29.0269
  0
LINE
  8
0
 10
21.6683
 20
-29.0269
 11
21.4394
 21
-29.2418
  0
LINE
  8
0
 10
21.4394
 20
-29.2418
 11
21.1854
 21
-29.4263
  0
LINE
  8
0
 10
21.1854
 20
-29.4263
 11
20.9103
 21
-29.5775
  0
LINE
  8
0
 10
20.9103
 20
-29.5775
 11
20.6184
 21
-29.6931
  0
LINE
  8
0
 10
20.6184
 20
-29.6931
 11
20.3143
 21
-29.7712
  0
LINE
  8
0
 10
20.3143
 20
-29.7712
 11
20.0029
 21
-29.8105
  0
LINE
  8
0
 10
20.0029
 20
-29.8105
 11
19.6889
 21
-29.8105
  0
LINE
  8
0
 10
37.3224
 20
-54.0811
 11
37.011
 21
-54.0417
  0
LINE
  8
0
 10
37.011
 20
-54.0417
 11
36.7069
 21
-53.9636
  0
LINE
  8
0
 10
36.7069
 20
-53.9636
 11
36.415
 21
-53.8481
  0
LINE
  8
0
 10
36.415
 20
-53.8481
 11
36.1399
 21
-53.6968
  0
LINE
  8
0
 10
36.1399
 20
-53.6968
 11
35.8859
 21
-53.5123
  0
LINE
  8
0
 10
35.8859
 20
-53.5123
 11
35.657
 21
-53.2974
  0
LINE
  8
0
 10
35.657
 20
-53.2974
 11
35.4569
 21
-53.0555
  0
LINE
  8
0
 10
35.4569
 20
-53.0555
 11
35.2887
 21
-52.7904
  0
LINE
  8
0
 10
35.2887
 20
-52.7904
 11
35.155
 21
-52.5063
  0
LINE
  8
0
 10
35.155
 20
-52.5063
 11
35.058
 21
-52.2077
  0
LINE
  8
0
 10
35.058
 20
-52.2077
 11
34.9991
 21
-51.8993
  0
LINE
  8
0
 10
34.9991
 20
-51.8993
 11
34.9794
 21
-51.586
  0
LINE
  8
0
 10
34.9794
 20
-51.586
 11
34.9991
 21
-51.2727
  0
LINE
  8
0
 10
34.9991
 20
-51.2727
 11
35.058
 21
-50.9643
  0
LINE
  8
0
 10
35.058
 20
-50.9643
 11
35.155
 21
-50.6657
  0
LINE
  8
0
 10
35.155
 20
-50.6657
 11
35.2887
 21
-50.3816
  0
LINE
  8
0
 10
35.2887
 20
-50.3816
 11
35.4569
 21
-50.1165
  0
LINE
  8
0
 10
35.4569
 20
-50.1165
 11
35.657
 21
-49.8746
  0
LINE
  8
0
 10
35.657
 20
-49.8746
 11
35.8859
 21
-49.6597
  0
LINE
  8
0
 10
35.8859
 20
-49.6597
 11
36.1398
 21
-49.4752
  0
LINE
  8
0
 10
36.1398
 20
-49.4752
 11
36.415
 21
-49.3239
  0
LINE
  8
0
 10
36.415
 20
-49.3239
 11
36.7069
 21
-49.2084
  0
LINE
  8
0
 10
36.7069
 20
-49.2084
 11
37.011
 21
-49.1303
  0
LINE
  8
0
 10
37.011
 20
-49.1303
 11
37.3224
 21
-49.0909
  0
LINE
  8
0
 10
37.3224
 20
-49.0909
 11
37.6364
 21
-49.0909
  0
LINE
  8
0
 10
37.6364
 20
-49.0909
 11
37.9479
 21
-49.1303
  0
LINE
  8
0
 10
37.9479
 20
-49.1303
 11
38.252
 21
-49.2084
  0
LINE
  8
0
 10
38.252
 20
-49.2084
 11
38.5439
 21
-49.3239
  0
LINE
  8
0
 10
38.5439
 20
-49.3239
 11
38.819
 21
-49.4752
  0
LINE
  8
0
 10
38.819
 20
-49.4752
 11
39.073
 21
-49.6597
  0
LINE
  8
0
 10
39.073
 20
-49.6597
 11
39.3018
 21
-49.8746
  0
LINE
  8
0
 10
39.3018
 20
-49.8746
 11
39.502
 21
-50.1165
  0
LINE
  8
0
 10
39.502
 20
-50.1165
 11
39.6702
 21
-50.3816
  0
LINE
  8
0
 10
39.6702
 20
-50.3816
 11
39.8039
 21
-50.6657
  0
LINE
  8
0
 10
39.8039
 20
-50.6657
 11
39.9009
 21
-50.9643
  0
LINE
  8
0
 10
39.9009
 20
-50.9643
 11
39.9597
 21
-51.2727
  0
LINE
  8
0
 10
39.9597
 20
-51.2727
 11
39.9794
 21
-51.586
  0
LINE
  8
0
 10
39.9794
 20
-51.586
 11
39.9597
 21
-51.8993
  0
LINE
  8
0
 10
39.9597
 20
-51.8993
 11
39.9009
 21
-52.2077
  0
LINE
  8
0
 10
39.9009
 20
-52.2077
 11
39.8038
 21
-52.5063
  0
LINE
  8
0
 10
39.8038
 20
-52.5063
 11
39.6702
 21
-52.7904
  0
LINE
  8
0
 10
39.6702
 20
-52.7904
 11
39.502
 21
-53.0555
  0
LINE
  8
0
 10
39.502
 20
-53.0555
 11
39.3018
 21
-53.2974
  0
LINE
  8
0
 10
39.3018
 20
-53.2974
 11
39.073
 21
-53.5123
  0
LINE
  8
0
 10
39.073
 20
-53.5123
 11
38.819
 21
-53.6968
  0
LINE
  8
0
 10
38.819
 20
-53.6968
 11
38.5439
 21
-53.8481
  0
LINE
  8
0
 10
38.5439
 20
-53.8481
 11
38.252
 21
-53.9636
  0
LINE
  8
0
 10
38.252
 20
-53.9636
 11
37.9479
 21
-54.0417
  0
LINE
  8
0
 10
37.9479
 20
-54.0417
 11
37.6364
 21
-54.0811
  0
LINE
  8
0
 10
37.6364
 20
-54.0811
 11
37.3224
 21
-54.0811
  0
LINE
  8
0
 10
-37.6364
 20
-54.0811
 11
-37.9479
 21
-54.0417
  0
LINE
  8
0
 10
-37.9479
 20
-54.0417
 11
-38.252
 21
-53.9636
  0
LINE
  8
0
 10
-38.252
 20
-53.9636
 11
-38.5439
 21
-53.8481
  0
LINE
  8
0
 10
-38.5439
 20
-53.8481
 11
-38.819
 21
-53.6968
  0
LINE
  8
0
 10
-38.819
 20
-53.6968
 11
-39.073
 21
-53.5123
  0
LINE
  8
0
 10
-39.073
 20
-53.5123
 11
-39.3018
 21
-53.2974
  0
LINE
  8
0
 10
-39.3018
 20
-53.2974
 11
-39.502
 21
-53.0555
  0
LINE
  8
0
 10
-39.502
 20
-53.0555
 11
-39.6702
 21
-52.7904
  0
LINE
  8
0
 10
-39.6702
 20
-52.7904
 11
-39.8038
 21
-52.5063
  0
LINE
  8
0
 10
-39.8038
 20
-52.5063
 11
-39.9009
 21
-52.2077
  0
LINE
  8
0
 10
-39.9009
 20
-52.2077
 11
-39.9597
 21
-51.8993
  0
LINE
  8
0
 10
-39.9597
 20
-51.8993
 11
-39.9794
 21
-51.586
  0
LINE
  8
0
 10
-39.9794
 20
-51.586
 11
-39.9597
 21
-51.2727
  0
LINE
  8
0
 10
-39.9597
 20
-51.2727
 11
-39.9009
 21
-50.9643
  0
LINE
  8
0
 10
-39.9009
 20
-50.9643
 11
-39.8039
 21
-50.6657
  0
LINE
  8
0
 10
-39.8039
 20
-50.6657
 11
-39.6702
 21
-50.3816
  0
LINE
  8
0
 10
-39.6702
 20
-50.3816
 11
-39.502
 21
-50.1165
  0
LINE
  8
0
 10
-39.502
 20
-50.1165
 11
-39.3018
 21
-49.8746
  0
LINE
  8
0
 10
-39.3018
 20
-49.8746
 11
-39.073
 21
-49.6597
  0
LINE
  8
0
 10
-39.073
 20
-49.6597
 11
-38.819
 21
-49.4752
  0
LINE
  8
0
 10
-38.819
 20
-49.4752
 11
-38.5439
 21
-49.3239
  0
LINE
  8
0
 10
-38.5439
 20
-49.3239
 11
-38.252
 21
-49.2084
  0
LINE
  8
0
 10
-38.252
 20
-49.2084
 11
-37.9479
 21
-49.1303
  0
LINE
  8
0
 10
-37.9479
 20
-49.1303
 11
-37.6364
 21
-49.0909
  0
LINE
  8
0
 10
-37.6364
 20
-49.0909
 11
-37.3224
 21
-49.0909
  0
LINE
  8
0
 10
-37.3224
 20
-49.0909
 11
-37.011
 21
-49.1303
  0
LINE
  8
0
 10
-37.011
 20
-49.1303
 11
-36.7069
 21
-49.2084
  0
LINE
  8
0
 10
-36.7069
 20
-49.2084
 11
-36.415
 21
-49.3239
  0
LINE
  8
0
 10
-36.415
 20
-49.3239
 11
-36.1398
 21
-49.4752
  0
LINE
  8
0
 10
-36.1398
 20
-49.4752
 11
-35.8859
 21
-49.6597
  0
LINE
  8
0
 10
-35.8859
 20
-49.6597
 11
-35.657
 21
-49.8746
  0
LINE
  8
0
 10
-35.657
 20
-49.8746
 11
-35.4569
 21
-50.1165
  0
LINE
  8
0
 10
-35.4569
 20
-50.1165
 11
-35.2887
 21
-50.3816
  0
LINE
  8
0
 10
-35.2887
 20
-50.3816
 11
-35.155
 21
-50.6657
  0
LINE
  8
0
 10
-35.155
 20
-50.6657
 11
-35.058
 21
-50.9643
  0
LINE
  8
0
 10
-35.058
 20
-50.9643
 11
-34.9991
 21
-51.2727
  0
LINE
  8
0
 10
-34.9991
 20
-51.2727
 11
-34.9794
 21
-51.586
  0
LINE
  8
0
 10
-34.9794
 20
-51.586
 11
-34.9991
 21
-51.8993
  0
LINE
  8
0
 10
-34.9991
 20
-51.8993
 11
-35.058
 21
-52.2077
  0
LINE
  8
0
 10
-35.058
 20
-52.2077
 11
-35.155
 21
-52.5063
  0
LINE
  8
0
 10
-35.155
 20
-52.5063
 11
-35.2887
 21
-52.7904
  0
LINE
  8
0
 10
-35.2887
 20
-52.7904
 11
-35.4569
 21
-53.0555
  0
LINE
  8
0
 10
-35.4569
 20
-53.0555
 11
-35.657
 21
-53.2974
  0
LINE
  8
0
 10
-35.657
 20
-53.2974
 11
-35.8859
 21
-53.5123
  0
LINE
  8
0
 10
-35.8859
 20
-53.5123
 11
-36.1399
 21
-53.6968
  0
LINE
  8
0
 10
-36.1399
 20
-53.6968
 11
-36.415
 21
-53.8481
  0
LINE
  8
0
 10
-36.415
 20
-53.8481
 11
-36.7069
 21
-53.9636
  0
LINE
  8
0
 10
-36.7069
 20
-53.9636
 11
-37.011
 21
-54.0417
  0
LINE
  8
0
 10
-37.011
 20
-54.0417
 11
-37.3224
 21
-54.0811
  0
LINE
  8
0
 10
-37.3224
 20
-54.0811
 11
-37.6364
 21
-54.0811
  0
LINE
  8
0
 10
49.0782
 20
-70.2614
 11
48.7667
 21
-70.222
  0
LINE
  8
0
 10
48.7667
 20
-70.222
 11
48.4626
 21
-70.144
  0
LINE
  8
0
 10
48.4626
 20
-70.144
 11
48.1707
 21
-70.0284
  0
LINE
  8
0
 10
48.1707
 20
-70.0284
 11
47.8956
 21
-69.8772
  0
LINE
  8
0
 10
47.8956
 20
-69.8772
 11
47.6416
 21
-69.6926
  0
LINE
  8
0
 10
47.6416
 20
-69.6926
 11
47.4127
 21
-69.4777
  0
LINE
  8
0
 10
47.4127
 20
-69.4777
 11
47.2126
 21
-69.2358
  0
LINE
  8
0
 10
47.2126
 20
-69.2358
 11
47.0444
 21
-68.9707
  0
LINE
  8
0
 10
47.0444
 20
-68.9707
 11
46.9107
 21
-68.6866
  0
LINE
  8
0
 10
46.9107
 20
-68.6866
 11
46.8137
 21
-68.3881
  0
LINE
  8
0
 10
46.8137
 20
-68.3881
 11
46.7548
 21
-68.0797
  0
LINE
  8
0
 10
46.7548
 20
-68.0797
 11
46.7351
 21
-67.7663
  0
LINE
  8
0
 10
46.7351
 20
-67.7663
 11
46.7548
 21
-67.453
  0
LINE
  8
0
 10
46.7548
 20
-67.453
 11
46.8137
 21
-67.1446
  0
LINE
  8
0
 10
46.8137
 20
-67.1446
 11
46.9107
 21
-66.846
  0
LINE
  8
0
 10
46.9107
 20
-66.846
 11
47.0444
 21
-66.562
  0
LINE
  8
0
 10
47.0444
 20
-66.562
 11
47.2126
 21
-66.2969
  0
LINE
  8
0
 10
47.2126
 20
-66.2969
 11
47.4127
 21
-66.055
  0
LINE
  8
0
 10
47.4127
 20
-66.055
 11
47.6416
 21
-65.84
  0
LINE
  8
0
 10
47.6416
 20
-65.84
 11
47.8956
 21
-65.6555
  0
LINE
  8
0
 10
47.8956
 20
-65.6555
 11
48.1707
 21
-65.5043
  0
LINE
  8
0
 10
48.1707
 20
-65.5043
 11
48.4626
 21
-65.3887
  0
LINE
  8
0
 10
48.4626
 20
-65.3887
 11
48.7667
 21
-65.3106
  0
LINE
  8
0
 10
48.7667
 20
-65.3106
 11
49.0781
 21
-65.2713
  0
LINE
  8
0
 10
49.0781
 20
-65.2713
 11
49.3921
 21
-65.2713
  0
LINE
  8
0
 10
49.3921
 20
-65.2713
 11
49.7036
 21
-65.3106
  0
LINE
  8
0
 10
49.7036
 20
-65.3106
 11
50.0077
 21
-65.3887
  0
LINE
  8
0
 10
50.0077
 20
-65.3887
 11
50.2996
 21
-65.5043
  0
LINE
  8
0
 10
50.2996
 20
-65.5043
 11
50.5747
 21
-65.6555
  0
LINE
  8
0
 10
50.5747
 20
-65.6555
 11
50.8287
 21
-65.8401
  0
LINE
  8
0
 10
50.8287
 20
-65.8401
 11
51.0576
 21
-66.055
  0
LINE
  8
0
 10
51.0576
 20
-66.055
 11
51.2577
 21
-66.2969
  0
LINE
  8
0
 10
51.2577
 20
-66.2969
 11
51.4259
 21
-66.562
  0
LINE
  8
0
 10
51.4259
 20
-66.562
 11
51.5596
 21
-66.846
  0
LINE
  8
0
 10
51.5596
 20
-66.846
 11
51.6566
 21
-67.1446
  0
LINE
  8
0
 10
51.6566
 20
-67.1446
 11
51.7154
 21
-67.453
  0
LINE
  8
0
 10
51.7154
 20
-67.453
 11
51.7351
 21
-67.7663
  0
LINE
  8
0
 10
51.7351
 20
-67.7663
 11
51.7154
 21
-68.0797
  0
LINE
  8
0
 10
51.7154
 20
-68.0797
 11
51.6566
 21
-68.3881
  0
LINE
  8
0
 10
51.6566
 20
-68.3881
 11
51.5596
 21
-68.6867
  0
LINE
  8
0
 10
51.5596
 20
-68.6867
 11
51.4259
 21
-68.9707
  0
LINE
  8
0
 10
51.4259
 20
-68.9707
 11
51.2577
 21
-69.2358
  0
LINE
  8
0
 10
51.2577
 20
-69.2358
 11
51.0575
 21
-69.4777
  0
LINE
  8
0
 10
51.0575
 20
-69.4777
 11
50.8287
 21
-69.6926
  0
LINE
  8
0
 10
50.8287
 20
-69.6926
 11
50.5747
 21
-69.8772
  0
LINE
  8
0
 10
50.5747
 20
-69.8772
 11
50.2996
 21
-70.0284
  0
LINE
  8
0
 10
50.2996
 20
-70.0284
 11
50.0077
 21
-70.144
  0
LINE
  8
0
 10
50.0077
 20
-70.144
 11
49.7036
 21
-70.222
  0
LINE
  8
0
 10
49.7036
 20
-70.222
 11
49.3921
 21
-70.2614
  0
LINE
  8
0
 10
49.3921
 20
-70.2614
 11
49.0782
 21
-70.2614
  0
LINE
  8
0
 10
-49.3921
 20
-70.2614
 11
-49.7036
 21
-70.222
  0
LINE
  8
0
 10
-49.7036
 20
-70.222
 11
-50.0077
 21
-70.144
  0
LINE
  8
0
 10
-50.0077
 20
-70.144
 11
-50.2996
 21
-70.0284
  0
LINE
  8
0
 10
-50.2996
 20
-70.0284
 11
-50.5747
 21
-69.8772
  0
LINE
  8
0
 10
-50.5747
 20
-69.8772
 11
-50.8287
 21
-69.6926
  0
LINE
  8
0
 10
-50.8287
 20
-69.6926
 11
-51.0575
 21
-69.4777
  0
LINE
  8
0
 10
-51.0575
 20
-69.4777
 11
-51.2577
 21
-69.2358
  0
LINE
  8
0
 10
-51.2577
 20
-69.2358
 11
-51.4259
 21
-68.9707
  0
LINE
  8
0
 10
-51.4259
 20
-68.9707
 11
-51.5596
 21
-68.6867
  0
LINE
  8
0
 10
-51.5596
 20
-68.6867
 11
-51.6566
 21
-68.3881
  0
LINE
  8
0
 10
-51.6566
 20
-68.3881
 11
-51.7154
 21
-68.0797
  0
LINE
  8
0
 10
-51.7154
 20
-68.0797
 11
-51.7351
 21
-67.7663
  0
LINE
  8
0
 10
-51.7351
 20
-67.7663
 11
-51.7154
 21
-67.453
  0
LINE
  8
0
 10
-51.7154
 20
-67.453
 11
-51.6566
 21
-67.1446
  0
LINE
  8
0
 10
-51.6566
 20
-67.1446
 11
-51.5596
 21
-66.846
  0
LINE
  8
0
 10
-51.5596
 20
-66.846
 11
-51.4259
 21
-66.562
  0
LINE
  8
0
 10
-51.4259
 20
-66.562
 11
-51.2577
 21
-66.2969
  0
LINE
  8
0
 10
-51.2577
 20
-66.2969
 11
-51.0576
 21
-66.055
  0
LINE
  8
0
 10
-51.0576
 20
-66.055
 11
-50.8287
 21
-65.8401
  0
LINE
  8
0
 10
-50.8287
 20
-65.8401
 11
-50.5747
 21
-65.6555
  0
LINE
  8
0
 10
-50.5747
 20
-65.6555
 11
-50.2996
 21
-65.5043
  0
LINE
  8
0
 10
-50.2996
 20
-65.5043
 11
-50.0077
 21
-65.3887
  0
LINE
  8
0
 10
-50.0077
 20
-65.3887
 11
-49.7036
 21
-65.3106
  0
LINE
  8
0
 10
-49.7036
 20
-65.3106
 11
-49.3921
 21
-65.2713
  0
LINE
  8
0
 10
-49.3921
 20
-65.2713
 11
-49.0781
 21
-65.2713
  0
LINE
  8
0
 10
-49.0781
 20
-65.2713
 11
-48.7667
 21
-65.3106
  0
LINE
  8
0
 10
-48.7667
 20
-65.3106
 11
-48.4626
 21
-65.3887
  0
LINE
  8
0
 10
-48.4626
 20
-65.3887
 11
-48.1707
 21
-65.5043
  0
LINE
  8
0
 10
-48.1707
 20
-65.5043
 11
-47.8956
 21
-65.6555
  0
LINE
  8
0
 10
-47.8956
 20
-65.6555
 11
-47.6416
 21
-65.84
  0
LINE
  8
0
 10
-47.6416
 20
-65.84
 11
-47.4127
 21
-66.055
  0
LINE
  8
0
 10
-47.4127
 20
-66.055
 11
-47.2126
 21
-66.2969
  0
LINE
  8
0
 10
-47.2126
 20
-66.2969
 11
-47.0444
 21
-66.562
  0
LINE
  8
0
 10
-47.0444
 20
-66.562
 11
-46.9107
 21
-66.846
  0
LINE
  8
0
 10
-46.9107
 20
-66.846
 11
-46.8137
 21
-67.1446
  0
LINE
  8
0
 10
-46.8137
 20
-67.1446
 11
-46.7548
 21
-67.453
  0
LINE
  8
0
 10
-46.7548
 20
-67.453
 11
-46.7351
 21
-67.7663
  0
LINE
  8
0
 10
-46.7351
 20
-67.7663
 11
-46.7548
 21
-68.0797
  0
LINE
  8
0
 10
-46.7548
 20
-68.0797
 11
-46.8137
 21
-68.3881
  0
LINE
  8
0
 10
-46.8137
 20
-68.3881
 11
-46.9107
 21
-68.6866
  0
LINE
  8
0
 10
-46.9107
 20
-68.6866
 11
-47.0444
 21
-68.9707
  0
LINE
  8
0
 10
-47.0444
 20
-68.9707
 11
-47.2126
 21
-69.2358
  0
LINE
  8
0
 10
-47.2126
 20
-69.2358
 11
-47.4127
 21
-69.4777
  0
LINE
  8
0
 10
-47.4127
 20
-69.4777
 11
-47.6416
 21
-69.6926
  0
LINE
  8
0
 10
-47.6416
 20
-69.6926
 11
-47.8956
 21
-69.8772
  0
LINE
  8
0
 10
-47.8956
 20
-69.8772
 11
-48.1707
 21
-70.0284
  0
LINE
  8
0
 10
-48.1707
 20
-70.0284
 11
-48.4626
 21
-70.144
  0
LINE
  8
0
 10
-48.4626
 20
-70.144
 11
-48.7667
 21
-70.222
  0
LINE
  8
0
 10
-48.7667
 20
-70.222
 11
-49.0782
 21
-70.2614
  0
LINE
  8
0
 10
-49.0782
 20
-70.2614
 11
-49.3921
 21
-70.2614
  0
LINE
  8
0
 10
66.7117
 20
-94.5319
 11
66.4002
 21
-94.4926
  0
LINE
  8
0
 10
66.4002
 20
-94.4926
 11
66.0961
 21
-94.4145
  0
LINE
  8
0
 10
66.0961
 20
-94.4145
 11
65.8042
 21
-94.2989
  0
LINE
  8
0
 10
65.8042
 20
-94.2989
 11
65.5291
 21
-94.1477
  0
LINE
  8
0
 10
65.5291
 20
-94.1477
 11
65.2751
 21
-93.9631
  0
LINE
  8
0
 10
65.2751
 20
-93.9631
 11
65.0463
 21
-93.7482
  0
LINE
  8
0
 10
65.0463
 20
-93.7482
 11
64.8461
 21
-93.5063
  0
LINE
  8
0
 10
64.8461
 20
-93.5063
 11
64.6779
 21
-93.2412
  0
LINE
  8
0
 10
64.6779
 20
-93.2412
 11
64.5443
 21
-92.9572
  0
LINE
  8
0
 10
64.5443
 20
-92.9572
 11
64.4472
 21
-92.6586
  0
LINE
  8
0
 10
64.4472
 20
-92.6586
 11
64.3884
 21
-92.3502
  0
LINE
  8
0
 10
64.3884
 20
-92.3502
 11
64.3687
 21
-92.0368
  0
LINE
  8
0
 10
64.3687
 20
-92.0368
 11
64.3884
 21
-91.7235
  0
LINE
  8
0
 10
64.3884
 20
-91.7235
 11
64.4472
 21
-91.4151
  0
LINE
  8
0
 10
64.4472
 20
-91.4151
 11
64.5443
 21
-91.1165
  0
LINE
  8
0
 10
64.5443
 20
-91.1165
 11
64.6779
 21
-90.8325
  0
LINE
  8
0
 10
64.6779
 20
-90.8325
 11
64.8461
 21
-90.5674
  0
LINE
  8
0
 10
64.8461
 20
-90.5674
 11
65.0463
 21
-90.3255
  0
LINE
  8
0
 10
65.0463
 20
-90.3255
 11
65.2751
 21
-90.1105
  0
LINE
  8
0
 10
65.2751
 20
-90.1105
 11
65.5291
 21
-89.926
  0
LINE
  8
0
 10
65.5291
 20
-89.926
 11
65.8042
 21
-89.7748
  0
LINE
  8
0
 10
65.8042
 20
-89.7748
 11
66.0961
 21
-89.6592
  0
LINE
  8
0
 10
66.0961
 20
-89.6592
 11
66.4002
 21
-89.5811
  0
LINE
  8
0
 10
66.4002
 20
-89.5811
 11
66.7117
 21
-89.5418
  0
LINE
  8
0
 10
66.7117
 20
-89.5418
 11
67.0257
 21
-89.5418
  0
LINE
  8
0
 10
67.0257
 20
-89.5418
 11
67.3371
 21
-89.5811
  0
LINE
  8
0
 10
67.3371
 20
-89.5811
 11
67.6412
 21
-89.6592
  0
LINE
  8
0
 10
67.6412
 20
-89.6592
 11
67.9331
 21
-89.7748
  0
LINE
  8
0
 10
67.9331
 20
-89.7748
 11
68.2083
 21
-89.926
  0
LINE
  8
0
 10
68.2083
 20
-89.926
 11
68.4622
 21
-90.1106
  0
LINE
  8
0
 10
68.4622
 20
-90.1106
 11
68.6911
 21
-90.3255
  0
LINE
  8
0
 10
68.6911
 20
-90.3255
 11
68.8912
 21
-90.5674
  0
LINE
  8
0
 10
68.8912
 20
-90.5674
 11
69.0594
 21
-90.8325
  0
LINE
  8
0
 10
69.0594
 20
-90.8325
 11
69.1931
 21
-91.1165
  0
LINE
  8
0
 10
69.1931
 20
-91.1165
 11
69.2901
 21
-91.4151
  0
LINE
  8
0
 10
69.2901
 20
-91.4151
 11
69.349
 21
-91.7235
  0
LINE
  8
0
 10
69.349
 20
-91.7235
 11
69.3687
 21
-92.0368
  0
LINE
  8
0
 10
69.3687
 20
-92.0368
 11
69.349
 21
-92.3502
  0
LINE
  8
0
 10
69.349
 20
-92.3502
 11
69.2901
 21
-92.6586
  0
LINE
  8
0
 10
69.2901
 20
-92.6586
 11
69.1931
 21
-92.9572
  0
LINE
  8
0
 10
69.1931
 20
-92.9572
 11
69.0594
 21
-93.2412
  0
LINE
  8
0
 10
69.0594
 20
-93.2412
 11
68.8912
 21
-93.5063
  0
LINE
  8
0
 10
68.8912
 20
-93.5063
 11
68.6911
 21
-93.7482
  0
LINE
  8
0
 10
68.6911
 20
-93.7482
 11
68.4622
 21
-93.9631
  0
LINE
  8
0
 10
68.4622
 20
-93.9631
 11
68.2083
 21
-94.1477
  0
LINE
  8
0
 10
68.2083
 20
-94.1477
 11
67.9331
 21
-94.2989
  0
LINE
  8
0
 10
67.9331
 20
-94.2989
 11
67.6412
 21
-94.4145
  0
LINE
  8
0
 10
67.6412
 20
-94.4145
 11
67.3371
 21
-94.4926
  0
LINE
  8
0
 10
67.3371
 20
-94.4926
 11
67.0257
 21
-94.5319
  0
LINE
  8
0
 10
67.0257
 20
-94.5319
 11
66.7117
 21
-94.5319
  0
LINE
  8
0
 10
-67.0257
 20
-94.5319
 11
-67.3371
 21
-94.4926
  0
LINE
  8
0
 10
-67.3371
 20
-94.4926
 11
-67.6412
 21
-94.4145
  0
LINE
  8
0
 10
-67.6412
 20
-94.4145
 11
-67.9331
 21
-94.2989
  0
LINE
  8
0
 10
-67.9331
 20
-94.2989
 11
-68.2083
 21
-94.1477
  0
LINE
  8
0
 10
-68.2083
 20
-94.1477
 11
-68.4622
 21
-93.9631
  0
LINE
  8
0
 10
-68.4622
 20
-93.9631
 11
-68.6911
 21
-93.7482
  0
LINE
  8
0
 10
-68.6911
 20
-93.7482
 11
-68.8912
 21
-93.5063
  0
LINE
  8
0
 10
-68.8912
 20
-93.5063
 11
-69.0594
 21
-93.2412
  0
LINE
  8
0
 10
-69.0594
 20
-93.2412
 11
-69.1931
 21
-92.9572
  0
LINE
  8
0
 10
-69.1931
 20
-92.9572
 11
-69.2901
 21
-92.6586
  0
LINE
  8
0
 10
-69.2901
 20
-92.6586
 11
-69.349
 21
-92.3502
  0
LINE
  8
0
 10
-69.349
 20
-92.3502
 11
-69.3687
 21
-92.0368
  0
LINE
  8
0
 10
-69.3687
 20
-92.0368
 11
-69.349
 21
-91.7235
  0
LINE
  8
0
 10
-69.349
 20
-91.7235
 11
-69.2901
 21
-91.4151
  0
LINE
  8
0
 10
-69.2901
 20
-91.4151
 11
-69.1931
 21
-91.1165
  0
LINE
  8
0
 10
-69.1931
 20
-91.1165
 11
-69.0594
 21
-90.8325
  0
LINE
  8
0
 10
-69.0594
 20
-90.8325
 11
-68.8912
 21
-90.5674
  0
LINE
  8
0
 10
-68.8912
 20
-90.5674
 11
-68.6911
 21
-90.3255
  0
LINE
  8
0
 10
-68.6911
 20
-90.3255
 11
-68.4622
 21
-90.1106
  0
LINE
  8
0
 10
-68.4622
 20
-90.1106
 11
-68.2083
 21
-89.926
  0
LINE
  8
0
 10
-68.2083
 20
-89.926
 11
-67.9331
 21
-89.7748
  0
LINE
  8
0
 10
-67.9331
 20
-89.7748
 11
-67.6412
 21
-89.6592
  0
LINE
  8
0
 10
-67.6412
 20
-89.6592
 11
-67.3371
 21
-89.5811
  0
LINE
  8
0
 10
-67.3371
 20
-89.5811
 11
-67.0257
 21
-89.5418
  0
LINE
  8
0
 10
-67.0257
 20
-89.5418
 11
-66.7117
 21
-89.5418
  0
LINE
  8
0
 10
-66.7117
 20
-89.5418
 11
-66.4002
 21
-89.5811
  0
LINE
  8
0
 10
-66.4002
 20
-89.5811
 11
-66.0961
 21
-89.6592
  0
LINE
  8
0
 10
-66.0961
 20
-89.6592
 11
-65.8042
 21
-89.7748
  0
LINE
  8
0
 10
-65.8042
 20
-89.7748
 11
-65.5291
 21
-89.926
  0
LINE
  8
0
 10
-65.5291
 20
-89.926
 11
-65.2751
 21
-90.1105
  0
LINE
  8
0
 10
-65.2751
 20
-90.1105
 11
-65.0463
 21
-90.3255
  0
LINE
  8
0
 10
-65.0463
 20
-90.3255
 11
-64.8461
 21
-90.5674
  0
LINE
  8
0
 10
-64.8461
 20
-90.5674
 11
-64.6779
 21
-90.8325
  0
LINE
  8
0
 10
-64.6779
 20
-90.8325
 11
-64.5443
 21
-91.1165
  0
LINE
  8
0
 10
-64.5443
 20
-91.1165
 11
-64.4472
 21
-91.4151
  0
LINE
  8
0
 10
-64.4472
 20
-91.4151
 11
-64.3884
 21
-91.7235
  0
LINE
  8
0
 10
-64.3884
 20
-91.7235
 11
-64.3687
 21
-92.0368
  0
LINE
  8
0
 10
-64.3687
 20
-92.0368
 11
-64.3884
 21
-92.3502
  0
LINE
  8
0
 10
-64.3884
 20
-92.3502
 11
-64.4472
 21
-92.6586
  0
LINE
  8
0
 10
-64.4472
 20
-92.6586
 11
-64.5443
 21
-92.9572
  0
LINE
  8
0
 10
-64.5443
 20
-92.9572
 11
-64.6779
 21
-93.2412
  0
LINE
  8
0
 10
-64.6779
 20
-93.2412
 11
-64.8461
 21
-93.5063
  0
LINE
  8
0
 10
-64.8461
 20
-93.5063
 11
-65.0463
 21
-93.7482
  0
LINE
  8
0
 10
-65.0463
 20
-93.7482
 11
-65.2751
 21
-93.9631
  0
LINE
  8
0
 10
-65.2751
 20
-93.9631
 11
-65.5291
 21
-94.1477
  0
LINE
  8
0
 10
-65.5291
 20
-94.1477
 11
-65.8042
 21
-94.2989
  0
LINE
  8
0
 10
-65.8042
 20
-94.2989
 11
-66.0961
 21
-94.4145
  0
LINE
  8
0
 10
-66.0961
 20
-94.4145
 11
-66.4002
 21
-94.4926
  0
LINE
  8
0
 10
-66.4002
 20
-94.4926
 11
-66.7117
 21
-94.5319
  0
LINE
  8
0
 10
-66.7117
 20
-94.5319
 11
-67.0257
 21
-94.5319
  0
ENDSEC
  0
SECTION
  2
OBJECTS
  0
DICTIONARY
  0
ENDSEC
  0
EOF
